M48
;GenerationSoftware,Autodesk,EAGLE,9.2.2*%
;CreationDate,2018-12-13T01:06:56Z*%
FMAT,2
ICI,OFF
METRIC,TZ,000.000
T8C0.305
T7C0.700
T6C0.800
T5C0.813
T4C0.900
T3C1.000
T2C1.016
T1C2.410
%
G90
M71
T1
X-36892Y-21881
X62172Y-35203
X-36886Y-10729
T2
X74540Y-27500
X72000Y-27500
X6394Y28505
X6394Y25965
X6394Y23425
X6394Y20885
X6394Y18345
X1314Y18345
X1314Y28505
X1314Y20885
X1314Y25965
X1314Y23425
X-1226Y28506
X-1226Y25966
X-1226Y23426
X-1226Y20886
X-1226Y18346
X-6306Y18346
X-6306Y28506
X-6306Y20886
X-6306Y25966
X-6306Y23426
X-18791Y19694
X-18791Y17154
X-18791Y14614
X-18791Y12074
X-18791Y9534
X-23870Y9534
X-23870Y19694
X-23870Y12074
X-23870Y17154
X-23870Y14614
X31856Y19693
X31856Y17153
X31856Y14613
X31856Y12073
X31856Y9533
X26776Y9533
X26776Y19693
X26776Y12073
X26776Y17153
X26776Y14613
X24245Y19687
X24245Y17147
X24245Y14607
X24245Y12067
X24245Y9527
X19165Y9527
X19165Y19687
X19165Y12067
X19165Y17147
X19165Y14607
X-24324Y-31413
X-24324Y-33953
X-24324Y-36493
X-24324Y-39033
X-24324Y-41573
X-29404Y-41573
X-29404Y-31413
X-29404Y-39033
X-29404Y-33953
X77080Y-27500
X79620Y-27500
X5126Y-3706
X-29404Y-36493
X-16697Y-31407
X-16697Y-33947
X-16697Y-36487
X-16697Y-39027
X-5034Y-11326
X5126Y-8786
X5126Y-6246
X-5034Y-8786
X-5034Y-6246
X-5034Y-3706
X5126Y-16406
X5126Y-18946
X-5034Y-18946
X-5034Y-16406
X-31479Y14612
X-31479Y17152
X-31479Y12072
X-31479Y19692
X5126Y-11326
X-31479Y9532
X-26399Y9532
X-26399Y12072
X-26399Y14612
X-26399Y17152
X-26399Y19692
X-37007Y-36493
X-37007Y-33953
X-37007Y-39033
X-37007Y-31413
X-37007Y-41573
X-31927Y-41573
X-31927Y-39033
X-16697Y-41567
X-21777Y-41567
X-21777Y-31407
X-21777Y-39027
X-21777Y-33947
X-21777Y-36487
X-32572Y-23381
X-32572Y-20381
X66492Y-36703
X66492Y-33703
X-32566Y-12229
X-32566Y-9229
X-42438Y-1540
X-42438Y1000
X-42438Y3540
X-26718Y-14103
X-26718Y-7261
X-13149Y-19539
X-15689Y-19539
X-18229Y-19539
X71641Y8330
X71641Y18490
X84341Y18490
X84341Y8330
X74181Y8330
X74181Y18490
X76721Y18490
X76721Y8330
X79261Y18490
X79261Y8330
X81801Y8330
X81801Y18490
X-39536Y-31415
X-39536Y-33955
X-39536Y-36495
X-39536Y-39035
X-39536Y-41575
X-44616Y-41575
X-44616Y-31415
X-44616Y-39035
X-44616Y-33955
X-44616Y-36495
X-31927Y-31413
X-31927Y-33953
X-31927Y-36493
T3
X80141Y-18216
X77601Y-18216
X75061Y-18216
X72521Y-18216
X42041Y-18216
X44581Y-18216
X47121Y-18216
X49661Y-18216
X52201Y-18216
X54741Y-18216
X57281Y-18216
X59821Y-18216
X62361Y-18216
X67441Y-18216
X69981Y-18216
X42041Y2104
X44581Y2104
X47121Y2104
X49661Y2104
X52201Y2104
X54741Y2104
X57281Y2104
X59821Y2104
X62361Y2104
X64901Y2104
X67441Y2104
X69981Y2104
X64901Y-18216
T4
X80064Y-23000
X68486Y39500
X76614Y39500
X39762Y22702
X47890Y22702
X23992Y-42064
X23992Y-33936
X4064Y2500
X-4064Y2500
X56936Y-24500
X65064Y-24500
X71936Y-23000
T5
X38466Y17348
X63866Y9728
X61326Y9728
X58786Y9728
X56246Y9728
X66406Y9728
X53706Y9728
X51166Y9728
X48626Y9728
X46086Y9728
X43546Y9728
X41006Y9728
X38466Y9728
X10872Y-41916
X10872Y-39376
X10872Y-36836
X10872Y-34296
X10872Y-31756
X10872Y-29216
X10872Y-26676
X10872Y-24136
X10872Y-21596
X10872Y-19056
X10872Y-16516
X10872Y-13976
X18492Y-13976
X18492Y-16516
X18492Y-19056
X18492Y-21596
X18492Y-24136
X66406Y17348
X18492Y-29216
X18492Y-31756
X18492Y-34296
X18492Y-36836
X18492Y-39376
X18492Y-41916
X52482Y32380
X55022Y32380
X57562Y32380
X60102Y32380
X62642Y32380
X65182Y32380
X67722Y32380
X70262Y32380
X72802Y32380
X75342Y32380
X77882Y32380
X80422Y32380
X80422Y24760
X77882Y24760
X75342Y24760
X72802Y24760
X70262Y24760
X67722Y24760
X65182Y24760
X62642Y24760
X60102Y24760
X57562Y24760
X55022Y24760
X52482Y24760
X41006Y17348
X43546Y17348
X46086Y17348
X48626Y17348
X51166Y17348
X53706Y17348
X56246Y17348
X58786Y17348
X61326Y17348
X63866Y17348
X18492Y-26676
T6
X25422Y34377
X35584Y41983
X7665Y34368
X7667Y41975
X5127Y41975
X-7574Y34368
X-5035Y34368
X2587Y41975
X47Y41975
X-2493Y41975
X-5033Y41975
X-2495Y34368
X45Y34368
X2586Y34368
X5100Y34292
X-38031Y41983
X-35491Y41983
X-32951Y41983
X-30411Y41983
X22882Y34377
X-27871Y41983
X27962Y34377
X30502Y34377
X33042Y34377
X35557Y34301
X38122Y34377
X38124Y41983
X-7573Y41975
X33044Y41983
X30504Y41983
X27964Y41983
X25424Y41983
X22884Y41983
X-38032Y34377
X-35492Y34377
X-32952Y34377
X-30412Y34377
X-27872Y34377
X-25358Y34301
X-22792Y34377
X-22791Y41983
X-25331Y41983
T7
X52852Y39500
X24000Y-17000
X24000Y-22000
X23992Y-30250
X23992Y-27750
X31254Y-14540
X31254Y-19540
X31254Y-10560
X31254Y-8060
X64602Y39500
X59602Y39500
X55352Y39500
T8
X-43102Y22500
X27000Y0
X76142Y-33642
X-4535Y-39500
X53753Y-13208
X74613Y-23654
X29686Y11430
X26670Y-13176
X8890Y17145
X12541Y6032
X45561Y6191
X6350Y6509
X22701Y-37941
X8795Y-27940
X-14287Y-22066
X9049Y8573
X22860Y-15875
X13335Y10636
X-11589Y-29051
X-6985Y-21273
X34608Y18098
X794Y13017
X-1111Y13017
X14764Y23971
X37465Y24289
X-6509Y15875
X-2857Y13811
X37465Y18891
X-10160Y15081
X2540Y15875
X13494Y19844
X35719Y19526
X-318Y15081
X45244Y20796
X-15557Y22066
X10605Y26352
X48260Y26035
X-20796Y35084
X3651Y4763
X36989Y5080
X2699Y4763
X34608Y17145
X46514Y14446
X37783Y29686
X53499Y30004
X26035Y31115
X27781Y31909
X31909Y39529
X56515Y36671
X28099Y40005
X53022Y37624
X11112Y31115
X10001Y35560
X37624Y-1111
X36671Y-1111
X13494Y-31274
X72073Y36671
X40640Y31242
X34798Y22606
X73660Y-1778
X73660Y2032
X18034Y-5080
X19812Y-7112
X42164Y22860
X-4572Y-32766
X-4572Y-26670
X35878Y11271
X82000Y39500
X31750Y5556
M30