G75*
%MOIN*%
%OFA0B0*%
%FSLAX25Y25*%
%IPPOS*%
%LPD*%
%AMOC8*
5,1,8,0,0,1.08239X$1,22.5*
%
%ADD10C,0.00000*%
%ADD11C,0.01000*%
%ADD12C,0.07000*%
%ADD13C,0.07400*%
%ADD14C,0.01500*%
%ADD15C,0.02978*%
D10*
X0011443Y0068035D02*
X0011445Y0068193D01*
X0011451Y0068351D01*
X0011461Y0068509D01*
X0011475Y0068667D01*
X0011493Y0068824D01*
X0011514Y0068981D01*
X0011540Y0069137D01*
X0011570Y0069293D01*
X0011603Y0069448D01*
X0011641Y0069601D01*
X0011682Y0069754D01*
X0011727Y0069906D01*
X0011776Y0070057D01*
X0011829Y0070206D01*
X0011885Y0070354D01*
X0011945Y0070500D01*
X0012009Y0070645D01*
X0012077Y0070788D01*
X0012148Y0070930D01*
X0012222Y0071070D01*
X0012300Y0071207D01*
X0012382Y0071343D01*
X0012466Y0071477D01*
X0012555Y0071608D01*
X0012646Y0071737D01*
X0012741Y0071864D01*
X0012838Y0071989D01*
X0012939Y0072111D01*
X0013043Y0072230D01*
X0013150Y0072347D01*
X0013260Y0072461D01*
X0013373Y0072572D01*
X0013488Y0072681D01*
X0013606Y0072786D01*
X0013727Y0072888D01*
X0013850Y0072988D01*
X0013976Y0073084D01*
X0014104Y0073177D01*
X0014234Y0073267D01*
X0014367Y0073353D01*
X0014502Y0073437D01*
X0014638Y0073516D01*
X0014777Y0073593D01*
X0014918Y0073665D01*
X0015060Y0073735D01*
X0015204Y0073800D01*
X0015350Y0073862D01*
X0015497Y0073920D01*
X0015646Y0073975D01*
X0015796Y0074026D01*
X0015947Y0074073D01*
X0016099Y0074116D01*
X0016252Y0074155D01*
X0016407Y0074191D01*
X0016562Y0074222D01*
X0016718Y0074250D01*
X0016874Y0074274D01*
X0017031Y0074294D01*
X0017189Y0074310D01*
X0017346Y0074322D01*
X0017505Y0074330D01*
X0017663Y0074334D01*
X0017821Y0074334D01*
X0017979Y0074330D01*
X0018138Y0074322D01*
X0018295Y0074310D01*
X0018453Y0074294D01*
X0018610Y0074274D01*
X0018766Y0074250D01*
X0018922Y0074222D01*
X0019077Y0074191D01*
X0019232Y0074155D01*
X0019385Y0074116D01*
X0019537Y0074073D01*
X0019688Y0074026D01*
X0019838Y0073975D01*
X0019987Y0073920D01*
X0020134Y0073862D01*
X0020280Y0073800D01*
X0020424Y0073735D01*
X0020566Y0073665D01*
X0020707Y0073593D01*
X0020846Y0073516D01*
X0020982Y0073437D01*
X0021117Y0073353D01*
X0021250Y0073267D01*
X0021380Y0073177D01*
X0021508Y0073084D01*
X0021634Y0072988D01*
X0021757Y0072888D01*
X0021878Y0072786D01*
X0021996Y0072681D01*
X0022111Y0072572D01*
X0022224Y0072461D01*
X0022334Y0072347D01*
X0022441Y0072230D01*
X0022545Y0072111D01*
X0022646Y0071989D01*
X0022743Y0071864D01*
X0022838Y0071737D01*
X0022929Y0071608D01*
X0023018Y0071477D01*
X0023102Y0071343D01*
X0023184Y0071207D01*
X0023262Y0071070D01*
X0023336Y0070930D01*
X0023407Y0070788D01*
X0023475Y0070645D01*
X0023539Y0070500D01*
X0023599Y0070354D01*
X0023655Y0070206D01*
X0023708Y0070057D01*
X0023757Y0069906D01*
X0023802Y0069754D01*
X0023843Y0069601D01*
X0023881Y0069448D01*
X0023914Y0069293D01*
X0023944Y0069137D01*
X0023970Y0068981D01*
X0023991Y0068824D01*
X0024009Y0068667D01*
X0024023Y0068509D01*
X0024033Y0068351D01*
X0024039Y0068193D01*
X0024041Y0068035D01*
X0024039Y0067877D01*
X0024033Y0067719D01*
X0024023Y0067561D01*
X0024009Y0067403D01*
X0023991Y0067246D01*
X0023970Y0067089D01*
X0023944Y0066933D01*
X0023914Y0066777D01*
X0023881Y0066622D01*
X0023843Y0066469D01*
X0023802Y0066316D01*
X0023757Y0066164D01*
X0023708Y0066013D01*
X0023655Y0065864D01*
X0023599Y0065716D01*
X0023539Y0065570D01*
X0023475Y0065425D01*
X0023407Y0065282D01*
X0023336Y0065140D01*
X0023262Y0065000D01*
X0023184Y0064863D01*
X0023102Y0064727D01*
X0023018Y0064593D01*
X0022929Y0064462D01*
X0022838Y0064333D01*
X0022743Y0064206D01*
X0022646Y0064081D01*
X0022545Y0063959D01*
X0022441Y0063840D01*
X0022334Y0063723D01*
X0022224Y0063609D01*
X0022111Y0063498D01*
X0021996Y0063389D01*
X0021878Y0063284D01*
X0021757Y0063182D01*
X0021634Y0063082D01*
X0021508Y0062986D01*
X0021380Y0062893D01*
X0021250Y0062803D01*
X0021117Y0062717D01*
X0020982Y0062633D01*
X0020846Y0062554D01*
X0020707Y0062477D01*
X0020566Y0062405D01*
X0020424Y0062335D01*
X0020280Y0062270D01*
X0020134Y0062208D01*
X0019987Y0062150D01*
X0019838Y0062095D01*
X0019688Y0062044D01*
X0019537Y0061997D01*
X0019385Y0061954D01*
X0019232Y0061915D01*
X0019077Y0061879D01*
X0018922Y0061848D01*
X0018766Y0061820D01*
X0018610Y0061796D01*
X0018453Y0061776D01*
X0018295Y0061760D01*
X0018138Y0061748D01*
X0017979Y0061740D01*
X0017821Y0061736D01*
X0017663Y0061736D01*
X0017505Y0061740D01*
X0017346Y0061748D01*
X0017189Y0061760D01*
X0017031Y0061776D01*
X0016874Y0061796D01*
X0016718Y0061820D01*
X0016562Y0061848D01*
X0016407Y0061879D01*
X0016252Y0061915D01*
X0016099Y0061954D01*
X0015947Y0061997D01*
X0015796Y0062044D01*
X0015646Y0062095D01*
X0015497Y0062150D01*
X0015350Y0062208D01*
X0015204Y0062270D01*
X0015060Y0062335D01*
X0014918Y0062405D01*
X0014777Y0062477D01*
X0014638Y0062554D01*
X0014502Y0062633D01*
X0014367Y0062717D01*
X0014234Y0062803D01*
X0014104Y0062893D01*
X0013976Y0062986D01*
X0013850Y0063082D01*
X0013727Y0063182D01*
X0013606Y0063284D01*
X0013488Y0063389D01*
X0013373Y0063498D01*
X0013260Y0063609D01*
X0013150Y0063723D01*
X0013043Y0063840D01*
X0012939Y0063959D01*
X0012838Y0064081D01*
X0012741Y0064206D01*
X0012646Y0064333D01*
X0012555Y0064462D01*
X0012466Y0064593D01*
X0012382Y0064727D01*
X0012300Y0064863D01*
X0012222Y0065000D01*
X0012148Y0065140D01*
X0012077Y0065282D01*
X0012009Y0065425D01*
X0011945Y0065570D01*
X0011885Y0065716D01*
X0011829Y0065864D01*
X0011776Y0066013D01*
X0011727Y0066164D01*
X0011682Y0066316D01*
X0011641Y0066469D01*
X0011603Y0066622D01*
X0011570Y0066777D01*
X0011540Y0066933D01*
X0011514Y0067089D01*
X0011493Y0067246D01*
X0011475Y0067403D01*
X0011461Y0067561D01*
X0011451Y0067719D01*
X0011445Y0067877D01*
X0011443Y0068035D01*
X0067742Y0068035D02*
X0067744Y0068193D01*
X0067750Y0068351D01*
X0067760Y0068509D01*
X0067774Y0068667D01*
X0067792Y0068824D01*
X0067813Y0068981D01*
X0067839Y0069137D01*
X0067869Y0069293D01*
X0067902Y0069448D01*
X0067940Y0069601D01*
X0067981Y0069754D01*
X0068026Y0069906D01*
X0068075Y0070057D01*
X0068128Y0070206D01*
X0068184Y0070354D01*
X0068244Y0070500D01*
X0068308Y0070645D01*
X0068376Y0070788D01*
X0068447Y0070930D01*
X0068521Y0071070D01*
X0068599Y0071207D01*
X0068681Y0071343D01*
X0068765Y0071477D01*
X0068854Y0071608D01*
X0068945Y0071737D01*
X0069040Y0071864D01*
X0069137Y0071989D01*
X0069238Y0072111D01*
X0069342Y0072230D01*
X0069449Y0072347D01*
X0069559Y0072461D01*
X0069672Y0072572D01*
X0069787Y0072681D01*
X0069905Y0072786D01*
X0070026Y0072888D01*
X0070149Y0072988D01*
X0070275Y0073084D01*
X0070403Y0073177D01*
X0070533Y0073267D01*
X0070666Y0073353D01*
X0070801Y0073437D01*
X0070937Y0073516D01*
X0071076Y0073593D01*
X0071217Y0073665D01*
X0071359Y0073735D01*
X0071503Y0073800D01*
X0071649Y0073862D01*
X0071796Y0073920D01*
X0071945Y0073975D01*
X0072095Y0074026D01*
X0072246Y0074073D01*
X0072398Y0074116D01*
X0072551Y0074155D01*
X0072706Y0074191D01*
X0072861Y0074222D01*
X0073017Y0074250D01*
X0073173Y0074274D01*
X0073330Y0074294D01*
X0073488Y0074310D01*
X0073645Y0074322D01*
X0073804Y0074330D01*
X0073962Y0074334D01*
X0074120Y0074334D01*
X0074278Y0074330D01*
X0074437Y0074322D01*
X0074594Y0074310D01*
X0074752Y0074294D01*
X0074909Y0074274D01*
X0075065Y0074250D01*
X0075221Y0074222D01*
X0075376Y0074191D01*
X0075531Y0074155D01*
X0075684Y0074116D01*
X0075836Y0074073D01*
X0075987Y0074026D01*
X0076137Y0073975D01*
X0076286Y0073920D01*
X0076433Y0073862D01*
X0076579Y0073800D01*
X0076723Y0073735D01*
X0076865Y0073665D01*
X0077006Y0073593D01*
X0077145Y0073516D01*
X0077281Y0073437D01*
X0077416Y0073353D01*
X0077549Y0073267D01*
X0077679Y0073177D01*
X0077807Y0073084D01*
X0077933Y0072988D01*
X0078056Y0072888D01*
X0078177Y0072786D01*
X0078295Y0072681D01*
X0078410Y0072572D01*
X0078523Y0072461D01*
X0078633Y0072347D01*
X0078740Y0072230D01*
X0078844Y0072111D01*
X0078945Y0071989D01*
X0079042Y0071864D01*
X0079137Y0071737D01*
X0079228Y0071608D01*
X0079317Y0071477D01*
X0079401Y0071343D01*
X0079483Y0071207D01*
X0079561Y0071070D01*
X0079635Y0070930D01*
X0079706Y0070788D01*
X0079774Y0070645D01*
X0079838Y0070500D01*
X0079898Y0070354D01*
X0079954Y0070206D01*
X0080007Y0070057D01*
X0080056Y0069906D01*
X0080101Y0069754D01*
X0080142Y0069601D01*
X0080180Y0069448D01*
X0080213Y0069293D01*
X0080243Y0069137D01*
X0080269Y0068981D01*
X0080290Y0068824D01*
X0080308Y0068667D01*
X0080322Y0068509D01*
X0080332Y0068351D01*
X0080338Y0068193D01*
X0080340Y0068035D01*
X0080338Y0067877D01*
X0080332Y0067719D01*
X0080322Y0067561D01*
X0080308Y0067403D01*
X0080290Y0067246D01*
X0080269Y0067089D01*
X0080243Y0066933D01*
X0080213Y0066777D01*
X0080180Y0066622D01*
X0080142Y0066469D01*
X0080101Y0066316D01*
X0080056Y0066164D01*
X0080007Y0066013D01*
X0079954Y0065864D01*
X0079898Y0065716D01*
X0079838Y0065570D01*
X0079774Y0065425D01*
X0079706Y0065282D01*
X0079635Y0065140D01*
X0079561Y0065000D01*
X0079483Y0064863D01*
X0079401Y0064727D01*
X0079317Y0064593D01*
X0079228Y0064462D01*
X0079137Y0064333D01*
X0079042Y0064206D01*
X0078945Y0064081D01*
X0078844Y0063959D01*
X0078740Y0063840D01*
X0078633Y0063723D01*
X0078523Y0063609D01*
X0078410Y0063498D01*
X0078295Y0063389D01*
X0078177Y0063284D01*
X0078056Y0063182D01*
X0077933Y0063082D01*
X0077807Y0062986D01*
X0077679Y0062893D01*
X0077549Y0062803D01*
X0077416Y0062717D01*
X0077281Y0062633D01*
X0077145Y0062554D01*
X0077006Y0062477D01*
X0076865Y0062405D01*
X0076723Y0062335D01*
X0076579Y0062270D01*
X0076433Y0062208D01*
X0076286Y0062150D01*
X0076137Y0062095D01*
X0075987Y0062044D01*
X0075836Y0061997D01*
X0075684Y0061954D01*
X0075531Y0061915D01*
X0075376Y0061879D01*
X0075221Y0061848D01*
X0075065Y0061820D01*
X0074909Y0061796D01*
X0074752Y0061776D01*
X0074594Y0061760D01*
X0074437Y0061748D01*
X0074278Y0061740D01*
X0074120Y0061736D01*
X0073962Y0061736D01*
X0073804Y0061740D01*
X0073645Y0061748D01*
X0073488Y0061760D01*
X0073330Y0061776D01*
X0073173Y0061796D01*
X0073017Y0061820D01*
X0072861Y0061848D01*
X0072706Y0061879D01*
X0072551Y0061915D01*
X0072398Y0061954D01*
X0072246Y0061997D01*
X0072095Y0062044D01*
X0071945Y0062095D01*
X0071796Y0062150D01*
X0071649Y0062208D01*
X0071503Y0062270D01*
X0071359Y0062335D01*
X0071217Y0062405D01*
X0071076Y0062477D01*
X0070937Y0062554D01*
X0070801Y0062633D01*
X0070666Y0062717D01*
X0070533Y0062803D01*
X0070403Y0062893D01*
X0070275Y0062986D01*
X0070149Y0063082D01*
X0070026Y0063182D01*
X0069905Y0063284D01*
X0069787Y0063389D01*
X0069672Y0063498D01*
X0069559Y0063609D01*
X0069449Y0063723D01*
X0069342Y0063840D01*
X0069238Y0063959D01*
X0069137Y0064081D01*
X0069040Y0064206D01*
X0068945Y0064333D01*
X0068854Y0064462D01*
X0068765Y0064593D01*
X0068681Y0064727D01*
X0068599Y0064863D01*
X0068521Y0065000D01*
X0068447Y0065140D01*
X0068376Y0065282D01*
X0068308Y0065425D01*
X0068244Y0065570D01*
X0068184Y0065716D01*
X0068128Y0065864D01*
X0068075Y0066013D01*
X0068026Y0066164D01*
X0067981Y0066316D01*
X0067940Y0066469D01*
X0067902Y0066622D01*
X0067869Y0066777D01*
X0067839Y0066933D01*
X0067813Y0067089D01*
X0067792Y0067246D01*
X0067774Y0067403D01*
X0067760Y0067561D01*
X0067750Y0067719D01*
X0067744Y0067877D01*
X0067742Y0068035D01*
D11*
X0001896Y0001500D02*
X0001610Y0001500D01*
X0001610Y0001785D01*
X0001730Y0001621D01*
X0001896Y0001500D01*
X0001730Y0001621D02*
X0001730Y0001621D01*
X0001730Y0001621D01*
X0006067Y0005963D02*
X0005147Y0007227D01*
X0004662Y0008713D01*
X0004600Y0009495D01*
X0004599Y0010092D01*
X0004509Y0079272D01*
X0004558Y0079898D01*
X0004943Y0081090D01*
X0005679Y0082104D01*
X0006692Y0082841D01*
X0007883Y0083228D01*
X0008509Y0083277D01*
X0082495Y0083277D01*
X0082495Y0083277D01*
X0083085Y0083277D01*
X0083092Y0083277D01*
X0083872Y0083200D01*
X0085312Y0082604D01*
X0086416Y0081503D01*
X0087014Y0080063D01*
X0087092Y0079283D01*
X0087092Y0079253D01*
X0087183Y0009534D01*
X0087183Y0009506D01*
X0087122Y0008723D01*
X0086640Y0007234D01*
X0085720Y0005967D01*
X0084454Y0005046D01*
X0082965Y0004562D01*
X0082183Y0004500D01*
X0009600Y0004500D01*
X0008819Y0004562D01*
X0007332Y0005044D01*
X0006067Y0005963D01*
X0006162Y0005894D02*
X0085620Y0005894D01*
X0086392Y0006892D02*
X0005390Y0006892D01*
X0004931Y0007891D02*
X0086852Y0007891D01*
X0087135Y0008889D02*
X0004648Y0008889D01*
X0004600Y0009888D02*
X0087182Y0009888D01*
X0087181Y0010886D02*
X0004598Y0010886D01*
X0004599Y0010092D02*
X0004599Y0010092D01*
X0004597Y0011885D02*
X0087180Y0011885D01*
X0087178Y0012883D02*
X0004596Y0012883D01*
X0004594Y0013882D02*
X0087177Y0013882D01*
X0087176Y0014880D02*
X0004593Y0014880D01*
X0004592Y0015879D02*
X0018664Y0015879D01*
X0017776Y0016247D02*
X0019797Y0015409D01*
X0021985Y0015409D01*
X0024007Y0016247D01*
X0025554Y0017794D01*
X0026391Y0019815D01*
X0026391Y0022003D01*
X0025554Y0024025D01*
X0024007Y0025572D01*
X0021985Y0026409D01*
X0019797Y0026409D01*
X0017776Y0025572D01*
X0016229Y0024025D01*
X0015391Y0022003D01*
X0015391Y0019815D01*
X0016229Y0017794D01*
X0017776Y0016247D01*
X0017145Y0016877D02*
X0004590Y0016877D01*
X0004589Y0017876D02*
X0016195Y0017876D01*
X0015781Y0018874D02*
X0004588Y0018874D01*
X0004586Y0019873D02*
X0015391Y0019873D01*
X0015391Y0020871D02*
X0004585Y0020871D01*
X0004584Y0021870D02*
X0015391Y0021870D01*
X0015750Y0022868D02*
X0004583Y0022868D01*
X0004581Y0023867D02*
X0016163Y0023867D01*
X0017069Y0024865D02*
X0004580Y0024865D01*
X0004579Y0025864D02*
X0018480Y0025864D01*
X0023302Y0025864D02*
X0062048Y0025864D01*
X0063046Y0024865D02*
X0024714Y0024865D01*
X0025619Y0023867D02*
X0064045Y0023867D01*
X0065043Y0022868D02*
X0026033Y0022868D01*
X0026391Y0021870D02*
X0065391Y0021870D01*
X0065391Y0022003D02*
X0065391Y0019815D01*
X0066229Y0017794D01*
X0067776Y0016247D01*
X0069797Y0015409D01*
X0071985Y0015409D01*
X0074007Y0016247D01*
X0075554Y0017794D01*
X0076391Y0019815D01*
X0076391Y0022003D01*
X0075554Y0024025D01*
X0074007Y0025572D01*
X0071985Y0026409D01*
X0069797Y0026409D01*
X0069432Y0026258D01*
X0053841Y0041849D01*
X0053841Y0066157D01*
X0054333Y0066361D01*
X0055936Y0067964D01*
X0056804Y0070059D01*
X0056804Y0072327D01*
X0055936Y0074422D01*
X0054333Y0076025D01*
X0052238Y0076893D01*
X0049970Y0076893D01*
X0047875Y0076025D01*
X0046272Y0074422D01*
X0046104Y0074017D01*
X0045936Y0074422D01*
X0044333Y0076025D01*
X0042238Y0076893D01*
X0039970Y0076893D01*
X0037875Y0076025D01*
X0036272Y0074422D01*
X0035404Y0072327D01*
X0035404Y0070059D01*
X0036272Y0067964D01*
X0037875Y0066361D01*
X0038354Y0066162D01*
X0038354Y0050390D01*
X0031623Y0043659D01*
X0025705Y0043659D01*
X0025554Y0044025D01*
X0024007Y0045572D01*
X0021985Y0046409D01*
X0019797Y0046409D01*
X0017776Y0045572D01*
X0016229Y0044025D01*
X0015391Y0042003D01*
X0015391Y0039815D01*
X0016229Y0037794D01*
X0017776Y0036247D01*
X0019797Y0035409D01*
X0021985Y0035409D01*
X0024007Y0036247D01*
X0025554Y0037794D01*
X0025705Y0038159D01*
X0033309Y0038159D01*
X0034320Y0038578D01*
X0043435Y0047693D01*
X0043854Y0048704D01*
X0043854Y0066162D01*
X0044333Y0066361D01*
X0045936Y0067964D01*
X0046104Y0068369D01*
X0046272Y0067964D01*
X0047875Y0066361D01*
X0048341Y0066168D01*
X0048341Y0040162D01*
X0048760Y0039152D01*
X0049534Y0038378D01*
X0065543Y0022369D01*
X0065391Y0022003D01*
X0065391Y0020871D02*
X0026391Y0020871D01*
X0026391Y0019873D02*
X0065391Y0019873D01*
X0065781Y0018874D02*
X0026002Y0018874D01*
X0025588Y0017876D02*
X0066195Y0017876D01*
X0067145Y0016877D02*
X0024637Y0016877D01*
X0023118Y0015879D02*
X0068664Y0015879D01*
X0073118Y0015879D02*
X0087174Y0015879D01*
X0087173Y0016877D02*
X0074637Y0016877D01*
X0075588Y0017876D02*
X0087172Y0017876D01*
X0087170Y0018874D02*
X0076002Y0018874D01*
X0076391Y0019873D02*
X0087169Y0019873D01*
X0087168Y0020871D02*
X0076391Y0020871D01*
X0076391Y0021870D02*
X0087167Y0021870D01*
X0087165Y0022868D02*
X0076033Y0022868D01*
X0075619Y0023867D02*
X0087164Y0023867D01*
X0087163Y0024865D02*
X0074714Y0024865D01*
X0073302Y0025864D02*
X0087161Y0025864D01*
X0087160Y0026862D02*
X0068827Y0026862D01*
X0067829Y0027861D02*
X0087159Y0027861D01*
X0087157Y0028859D02*
X0066830Y0028859D01*
X0065832Y0029858D02*
X0087156Y0029858D01*
X0087155Y0030856D02*
X0064833Y0030856D01*
X0063835Y0031855D02*
X0087154Y0031855D01*
X0087152Y0032853D02*
X0062836Y0032853D01*
X0061838Y0033852D02*
X0087151Y0033852D01*
X0087150Y0034850D02*
X0060839Y0034850D01*
X0059841Y0035849D02*
X0068736Y0035849D01*
X0067776Y0036247D02*
X0069797Y0035409D01*
X0071985Y0035409D01*
X0074007Y0036247D01*
X0075554Y0037794D01*
X0076391Y0039815D01*
X0076391Y0042003D01*
X0075554Y0044025D01*
X0074007Y0045572D01*
X0071985Y0046409D01*
X0069797Y0046409D01*
X0067776Y0045572D01*
X0066229Y0044025D01*
X0065391Y0042003D01*
X0065391Y0039815D01*
X0066229Y0037794D01*
X0067776Y0036247D01*
X0067175Y0036848D02*
X0058842Y0036848D01*
X0057844Y0037846D02*
X0066207Y0037846D01*
X0065793Y0038845D02*
X0056845Y0038845D01*
X0055847Y0039843D02*
X0065391Y0039843D01*
X0065391Y0040842D02*
X0054848Y0040842D01*
X0053850Y0041840D02*
X0065391Y0041840D01*
X0065737Y0042839D02*
X0053841Y0042839D01*
X0053841Y0043837D02*
X0066151Y0043837D01*
X0067039Y0044836D02*
X0053841Y0044836D01*
X0053841Y0045834D02*
X0068408Y0045834D01*
X0073374Y0045834D02*
X0087135Y0045834D01*
X0087137Y0044836D02*
X0074743Y0044836D01*
X0075632Y0043837D02*
X0087138Y0043837D01*
X0087139Y0042839D02*
X0076045Y0042839D01*
X0076391Y0041840D02*
X0087141Y0041840D01*
X0087142Y0040842D02*
X0076391Y0040842D01*
X0076391Y0039843D02*
X0087143Y0039843D01*
X0087144Y0038845D02*
X0075989Y0038845D01*
X0075576Y0037846D02*
X0087146Y0037846D01*
X0087147Y0036848D02*
X0074608Y0036848D01*
X0073047Y0035849D02*
X0087148Y0035849D01*
X0087134Y0046833D02*
X0053841Y0046833D01*
X0053841Y0047831D02*
X0087133Y0047831D01*
X0087131Y0048830D02*
X0053841Y0048830D01*
X0053841Y0049828D02*
X0087130Y0049828D01*
X0087129Y0050827D02*
X0053841Y0050827D01*
X0053841Y0051825D02*
X0087128Y0051825D01*
X0087126Y0052824D02*
X0053841Y0052824D01*
X0053841Y0053822D02*
X0087125Y0053822D01*
X0087124Y0054821D02*
X0053841Y0054821D01*
X0053841Y0055819D02*
X0087122Y0055819D01*
X0087121Y0056818D02*
X0053841Y0056818D01*
X0053841Y0057816D02*
X0087120Y0057816D01*
X0087118Y0058815D02*
X0053841Y0058815D01*
X0053841Y0059813D02*
X0070898Y0059813D01*
X0072291Y0059236D02*
X0075791Y0059236D01*
X0079025Y0060576D01*
X0081501Y0063051D01*
X0082840Y0066285D01*
X0082840Y0069786D01*
X0081501Y0073020D01*
X0079025Y0075495D01*
X0075791Y0076835D01*
X0072291Y0076835D01*
X0069057Y0075495D01*
X0066581Y0073020D01*
X0065242Y0069786D01*
X0065242Y0066285D01*
X0066581Y0063051D01*
X0069057Y0060576D01*
X0072291Y0059236D01*
X0068821Y0060812D02*
X0053841Y0060812D01*
X0053841Y0061810D02*
X0067822Y0061810D01*
X0066824Y0062809D02*
X0053841Y0062809D01*
X0053841Y0063807D02*
X0066268Y0063807D01*
X0065854Y0064806D02*
X0053841Y0064806D01*
X0053841Y0065804D02*
X0065441Y0065804D01*
X0065242Y0066803D02*
X0054775Y0066803D01*
X0055773Y0067801D02*
X0065242Y0067801D01*
X0065242Y0068800D02*
X0056282Y0068800D01*
X0056696Y0069798D02*
X0065247Y0069798D01*
X0065661Y0070797D02*
X0056804Y0070797D01*
X0056804Y0071795D02*
X0066074Y0071795D01*
X0066488Y0072794D02*
X0056610Y0072794D01*
X0056197Y0073792D02*
X0067354Y0073792D01*
X0068352Y0074791D02*
X0055567Y0074791D01*
X0054568Y0075789D02*
X0069767Y0075789D01*
X0072178Y0076788D02*
X0052491Y0076788D01*
X0049717Y0076788D02*
X0042491Y0076788D01*
X0044568Y0075789D02*
X0047639Y0075789D01*
X0046641Y0074791D02*
X0045567Y0074791D01*
X0039717Y0076788D02*
X0019605Y0076788D01*
X0019492Y0076835D02*
X0015991Y0076835D01*
X0012757Y0075495D01*
X0010282Y0073020D01*
X0008943Y0069786D01*
X0008943Y0066285D01*
X0010282Y0063051D01*
X0012757Y0060576D01*
X0015991Y0059236D01*
X0019492Y0059236D01*
X0022726Y0060576D01*
X0025201Y0063051D01*
X0026541Y0066285D01*
X0026541Y0069786D01*
X0025201Y0073020D01*
X0022726Y0075495D01*
X0019492Y0076835D01*
X0022015Y0075789D02*
X0037639Y0075789D01*
X0036641Y0074791D02*
X0023430Y0074791D01*
X0024429Y0073792D02*
X0036011Y0073792D01*
X0035597Y0072794D02*
X0025295Y0072794D01*
X0025708Y0071795D02*
X0035404Y0071795D01*
X0035404Y0070797D02*
X0026122Y0070797D01*
X0026536Y0069798D02*
X0035512Y0069798D01*
X0035926Y0068800D02*
X0026541Y0068800D01*
X0026541Y0067801D02*
X0036434Y0067801D01*
X0037433Y0066803D02*
X0026541Y0066803D01*
X0026342Y0065804D02*
X0038354Y0065804D01*
X0038354Y0064806D02*
X0025928Y0064806D01*
X0025515Y0063807D02*
X0038354Y0063807D01*
X0038354Y0062809D02*
X0024959Y0062809D01*
X0023961Y0061810D02*
X0038354Y0061810D01*
X0038354Y0060812D02*
X0022962Y0060812D01*
X0020885Y0059813D02*
X0038354Y0059813D01*
X0038354Y0058815D02*
X0004536Y0058815D01*
X0004534Y0059813D02*
X0014598Y0059813D01*
X0012521Y0060812D02*
X0004533Y0060812D01*
X0004532Y0061810D02*
X0011523Y0061810D01*
X0010524Y0062809D02*
X0004531Y0062809D01*
X0004529Y0063807D02*
X0009969Y0063807D01*
X0009555Y0064806D02*
X0004528Y0064806D01*
X0004527Y0065804D02*
X0009142Y0065804D01*
X0008943Y0066803D02*
X0004525Y0066803D01*
X0004524Y0067801D02*
X0008943Y0067801D01*
X0008943Y0068800D02*
X0004523Y0068800D01*
X0004521Y0069798D02*
X0008948Y0069798D01*
X0009361Y0070797D02*
X0004520Y0070797D01*
X0004519Y0071795D02*
X0009775Y0071795D01*
X0010189Y0072794D02*
X0004518Y0072794D01*
X0004516Y0073792D02*
X0011055Y0073792D01*
X0012053Y0074791D02*
X0004515Y0074791D01*
X0004514Y0075789D02*
X0013468Y0075789D01*
X0015879Y0076788D02*
X0004512Y0076788D01*
X0004511Y0077786D02*
X0087094Y0077786D01*
X0087095Y0076788D02*
X0075904Y0076788D01*
X0078314Y0075789D02*
X0087096Y0075789D01*
X0087098Y0074791D02*
X0079729Y0074791D01*
X0080728Y0073792D02*
X0087099Y0073792D01*
X0087100Y0072794D02*
X0081594Y0072794D01*
X0082008Y0071795D02*
X0087102Y0071795D01*
X0087103Y0070797D02*
X0082421Y0070797D01*
X0082835Y0069798D02*
X0087104Y0069798D01*
X0087105Y0068800D02*
X0082840Y0068800D01*
X0082840Y0067801D02*
X0087107Y0067801D01*
X0087108Y0066803D02*
X0082840Y0066803D01*
X0082641Y0065804D02*
X0087109Y0065804D01*
X0087111Y0064806D02*
X0082227Y0064806D01*
X0081814Y0063807D02*
X0087112Y0063807D01*
X0087113Y0062809D02*
X0081258Y0062809D01*
X0080260Y0061810D02*
X0087115Y0061810D01*
X0087116Y0060812D02*
X0079261Y0060812D01*
X0077184Y0059813D02*
X0087117Y0059813D01*
X0087092Y0078785D02*
X0004510Y0078785D01*
X0004549Y0079784D02*
X0087042Y0079784D01*
X0086715Y0080782D02*
X0004844Y0080782D01*
X0005444Y0081781D02*
X0086137Y0081781D01*
X0084890Y0082779D02*
X0006607Y0082779D01*
X0008509Y0086277D02*
X0083092Y0086277D01*
X0083092Y0086278D02*
X0083263Y0086276D01*
X0083435Y0086270D01*
X0083606Y0086259D01*
X0083777Y0086244D01*
X0083948Y0086225D01*
X0084118Y0086202D01*
X0084287Y0086175D01*
X0084456Y0086144D01*
X0084624Y0086108D01*
X0084791Y0086069D01*
X0084957Y0086025D01*
X0085122Y0085977D01*
X0085286Y0085925D01*
X0085448Y0085870D01*
X0085609Y0085810D01*
X0085768Y0085746D01*
X0085926Y0085679D01*
X0086082Y0085607D01*
X0086236Y0085532D01*
X0086389Y0085453D01*
X0086539Y0085370D01*
X0086688Y0085284D01*
X0086834Y0085194D01*
X0086978Y0085100D01*
X0087119Y0085003D01*
X0087259Y0084903D01*
X0087395Y0084799D01*
X0087529Y0084692D01*
X0087661Y0084581D01*
X0087789Y0084468D01*
X0087915Y0084351D01*
X0088038Y0084231D01*
X0088158Y0084109D01*
X0088275Y0083983D01*
X0088389Y0083854D01*
X0088500Y0083723D01*
X0088607Y0083589D01*
X0088711Y0083453D01*
X0088812Y0083314D01*
X0088909Y0083172D01*
X0089003Y0083028D01*
X0089093Y0082882D01*
X0089179Y0082734D01*
X0089262Y0082584D01*
X0089341Y0082431D01*
X0089417Y0082277D01*
X0089489Y0082121D01*
X0089556Y0081964D01*
X0089620Y0081804D01*
X0089680Y0081643D01*
X0089736Y0081481D01*
X0089788Y0081318D01*
X0089836Y0081153D01*
X0089880Y0080987D01*
X0089920Y0080820D01*
X0089956Y0080652D01*
X0089987Y0080483D01*
X0090015Y0080314D01*
X0090038Y0080144D01*
X0090057Y0079973D01*
X0090072Y0079802D01*
X0090083Y0079631D01*
X0090090Y0079459D01*
X0090092Y0079288D01*
X0090092Y0079287D02*
X0090183Y0009510D01*
X0083991Y0004895D02*
X0007791Y0004895D01*
X0009600Y0001500D02*
X0082183Y0001500D01*
X0089885Y0001500D02*
X0090063Y0001630D01*
X0090193Y0001809D01*
X0090193Y0001500D01*
X0089885Y0001500D01*
X0090063Y0001630D02*
X0090063Y0001630D01*
X0090063Y0001630D01*
X0090183Y0009510D02*
X0090181Y0009317D01*
X0090174Y0009123D01*
X0090163Y0008930D01*
X0090147Y0008737D01*
X0090126Y0008545D01*
X0090100Y0008353D01*
X0090070Y0008162D01*
X0090036Y0007972D01*
X0089996Y0007782D01*
X0089953Y0007594D01*
X0089904Y0007406D01*
X0089851Y0007220D01*
X0089794Y0007036D01*
X0089732Y0006852D01*
X0089666Y0006670D01*
X0089595Y0006490D01*
X0089520Y0006312D01*
X0089441Y0006135D01*
X0089358Y0005961D01*
X0089270Y0005788D01*
X0089178Y0005618D01*
X0089082Y0005450D01*
X0088982Y0005284D01*
X0088878Y0005121D01*
X0088770Y0004961D01*
X0088659Y0004803D01*
X0088543Y0004647D01*
X0088424Y0004495D01*
X0088301Y0004346D01*
X0088175Y0004199D01*
X0088045Y0004056D01*
X0087911Y0003916D01*
X0087775Y0003779D01*
X0087635Y0003645D01*
X0087491Y0003515D01*
X0087345Y0003388D01*
X0087196Y0003265D01*
X0087044Y0003146D01*
X0086889Y0003030D01*
X0086731Y0002918D01*
X0086570Y0002810D01*
X0086407Y0002706D01*
X0086242Y0002606D01*
X0086074Y0002510D01*
X0085904Y0002418D01*
X0085731Y0002330D01*
X0085557Y0002246D01*
X0085380Y0002167D01*
X0085202Y0002092D01*
X0085022Y0002021D01*
X0084840Y0001954D01*
X0084657Y0001892D01*
X0084472Y0001835D01*
X0084286Y0001781D01*
X0084099Y0001733D01*
X0083911Y0001689D01*
X0083721Y0001649D01*
X0083531Y0001614D01*
X0083340Y0001584D01*
X0083148Y0001558D01*
X0082956Y0001537D01*
X0082763Y0001521D01*
X0082570Y0001509D01*
X0082376Y0001502D01*
X0082183Y0001500D01*
X0061049Y0026862D02*
X0004577Y0026862D01*
X0004576Y0027861D02*
X0060051Y0027861D01*
X0059052Y0028859D02*
X0004575Y0028859D01*
X0004573Y0029858D02*
X0058054Y0029858D01*
X0057055Y0030856D02*
X0004572Y0030856D01*
X0004571Y0031855D02*
X0056057Y0031855D01*
X0055058Y0032853D02*
X0004570Y0032853D01*
X0004568Y0033852D02*
X0054060Y0033852D01*
X0053061Y0034850D02*
X0004567Y0034850D01*
X0004566Y0035849D02*
X0018736Y0035849D01*
X0017175Y0036848D02*
X0004564Y0036848D01*
X0004563Y0037846D02*
X0016207Y0037846D01*
X0015793Y0038845D02*
X0004562Y0038845D01*
X0004560Y0039843D02*
X0015391Y0039843D01*
X0015391Y0040842D02*
X0004559Y0040842D01*
X0004558Y0041840D02*
X0015391Y0041840D01*
X0015737Y0042839D02*
X0004557Y0042839D01*
X0004555Y0043837D02*
X0016151Y0043837D01*
X0017039Y0044836D02*
X0004554Y0044836D01*
X0004553Y0045834D02*
X0018408Y0045834D01*
X0023374Y0045834D02*
X0033798Y0045834D01*
X0034796Y0046833D02*
X0004551Y0046833D01*
X0004550Y0047831D02*
X0035795Y0047831D01*
X0036793Y0048830D02*
X0004549Y0048830D01*
X0004547Y0049828D02*
X0037792Y0049828D01*
X0038354Y0050827D02*
X0004546Y0050827D01*
X0004545Y0051825D02*
X0038354Y0051825D01*
X0038354Y0052824D02*
X0004544Y0052824D01*
X0004542Y0053822D02*
X0038354Y0053822D01*
X0038354Y0054821D02*
X0004541Y0054821D01*
X0004540Y0055819D02*
X0038354Y0055819D01*
X0038354Y0056818D02*
X0004538Y0056818D01*
X0004537Y0057816D02*
X0038354Y0057816D01*
X0043854Y0057816D02*
X0048341Y0057816D01*
X0048341Y0056818D02*
X0043854Y0056818D01*
X0043854Y0055819D02*
X0048341Y0055819D01*
X0048341Y0054821D02*
X0043854Y0054821D01*
X0043854Y0053822D02*
X0048341Y0053822D01*
X0048341Y0052824D02*
X0043854Y0052824D01*
X0043854Y0051825D02*
X0048341Y0051825D01*
X0048341Y0050827D02*
X0043854Y0050827D01*
X0043854Y0049828D02*
X0048341Y0049828D01*
X0048341Y0048830D02*
X0043854Y0048830D01*
X0043492Y0047831D02*
X0048341Y0047831D01*
X0048341Y0046833D02*
X0042574Y0046833D01*
X0041576Y0045834D02*
X0048341Y0045834D01*
X0048341Y0044836D02*
X0040577Y0044836D01*
X0039579Y0043837D02*
X0048341Y0043837D01*
X0048341Y0042839D02*
X0038580Y0042839D01*
X0037582Y0041840D02*
X0048341Y0041840D01*
X0048341Y0040842D02*
X0036583Y0040842D01*
X0035585Y0039843D02*
X0048474Y0039843D01*
X0049067Y0038845D02*
X0034586Y0038845D01*
X0031801Y0043837D02*
X0025632Y0043837D01*
X0024743Y0044836D02*
X0032799Y0044836D01*
X0025576Y0037846D02*
X0050066Y0037846D01*
X0051064Y0036848D02*
X0024608Y0036848D01*
X0023047Y0035849D02*
X0052063Y0035849D01*
X0048341Y0058815D02*
X0043854Y0058815D01*
X0043854Y0059813D02*
X0048341Y0059813D01*
X0048341Y0060812D02*
X0043854Y0060812D01*
X0043854Y0061810D02*
X0048341Y0061810D01*
X0048341Y0062809D02*
X0043854Y0062809D01*
X0043854Y0063807D02*
X0048341Y0063807D01*
X0048341Y0064806D02*
X0043854Y0064806D01*
X0043854Y0065804D02*
X0048341Y0065804D01*
X0047433Y0066803D02*
X0044775Y0066803D01*
X0045773Y0067801D02*
X0046434Y0067801D01*
X0008509Y0086277D02*
X0008340Y0086275D01*
X0008171Y0086269D01*
X0008002Y0086259D01*
X0007833Y0086244D01*
X0007665Y0086226D01*
X0007497Y0086203D01*
X0007330Y0086177D01*
X0007163Y0086146D01*
X0006997Y0086112D01*
X0006832Y0086073D01*
X0006669Y0086031D01*
X0006506Y0085984D01*
X0006344Y0085934D01*
X0006184Y0085880D01*
X0006025Y0085821D01*
X0005867Y0085759D01*
X0005711Y0085694D01*
X0005557Y0085624D01*
X0005404Y0085551D01*
X0005254Y0085474D01*
X0005105Y0085393D01*
X0004958Y0085309D01*
X0004813Y0085222D01*
X0004670Y0085130D01*
X0004530Y0085036D01*
X0004392Y0084938D01*
X0004256Y0084837D01*
X0004123Y0084732D01*
X0003992Y0084625D01*
X0003864Y0084514D01*
X0003739Y0084400D01*
X0003616Y0084283D01*
X0003497Y0084163D01*
X0003380Y0084041D01*
X0003266Y0083915D01*
X0003156Y0083787D01*
X0003048Y0083656D01*
X0002944Y0083523D01*
X0002843Y0083387D01*
X0002745Y0083249D01*
X0002651Y0083108D01*
X0002560Y0082966D01*
X0002472Y0082821D01*
X0002388Y0082674D01*
X0002308Y0082525D01*
X0002231Y0082374D01*
X0002158Y0082221D01*
X0002089Y0082067D01*
X0002023Y0081910D01*
X0001961Y0081753D01*
X0001904Y0081594D01*
X0001849Y0081433D01*
X0001799Y0081272D01*
X0001753Y0081109D01*
X0001711Y0080945D01*
X0001672Y0080780D01*
X0001638Y0080614D01*
X0001608Y0080448D01*
X0001581Y0080280D01*
X0001559Y0080113D01*
X0001541Y0079944D01*
X0001527Y0079776D01*
X0001517Y0079607D01*
X0001511Y0079437D01*
X0001509Y0079268D01*
X0001600Y0009491D01*
X0001603Y0009295D01*
X0001610Y0009099D01*
X0001622Y0008903D01*
X0001639Y0008708D01*
X0001661Y0008513D01*
X0001688Y0008318D01*
X0001719Y0008125D01*
X0001755Y0007932D01*
X0001796Y0007740D01*
X0001842Y0007549D01*
X0001892Y0007360D01*
X0001947Y0007171D01*
X0002006Y0006984D01*
X0002070Y0006799D01*
X0002139Y0006615D01*
X0002212Y0006433D01*
X0002289Y0006252D01*
X0002371Y0006074D01*
X0002457Y0005898D01*
X0002548Y0005724D01*
X0002642Y0005552D01*
X0002741Y0005383D01*
X0002844Y0005216D01*
X0002952Y0005051D01*
X0003063Y0004889D01*
X0003178Y0004731D01*
X0003297Y0004574D01*
X0003419Y0004421D01*
X0003546Y0004271D01*
X0003676Y0004124D01*
X0003809Y0003981D01*
X0003947Y0003840D01*
X0004087Y0003703D01*
X0004231Y0003570D01*
X0004378Y0003440D01*
X0004528Y0003314D01*
X0004681Y0003191D01*
X0004838Y0003073D01*
X0004997Y0002958D01*
X0005158Y0002847D01*
X0005323Y0002740D01*
X0005490Y0002637D01*
X0005660Y0002538D01*
X0005831Y0002444D01*
X0006006Y0002353D01*
X0006182Y0002267D01*
X0006360Y0002186D01*
X0006541Y0002108D01*
X0006723Y0002036D01*
X0006907Y0001967D01*
X0007092Y0001903D01*
X0007280Y0001844D01*
X0007468Y0001790D01*
X0007658Y0001740D01*
X0007849Y0001694D01*
X0008041Y0001654D01*
X0008233Y0001618D01*
X0008427Y0001587D01*
X0008622Y0001560D01*
X0008817Y0001539D01*
X0009012Y0001522D01*
X0009208Y0001510D01*
X0009404Y0001502D01*
X0009600Y0001500D01*
D12*
X0020891Y0020909D03*
X0020891Y0040909D03*
X0070891Y0040909D03*
X0070891Y0020909D03*
D13*
X0051104Y0071193D03*
X0041104Y0071193D03*
D14*
X0041104Y0049251D01*
X0032762Y0040909D01*
X0020891Y0040909D01*
X0051091Y0040709D02*
X0051091Y0071180D01*
X0051091Y0040709D02*
X0070891Y0020909D01*
D15*
X0051091Y0071180D03*
M02*
