G75*
%MOIN*%
%OFA0B0*%
%FSLAX25Y25*%
%IPPOS*%
%LPD*%
%AMOC8*
5,1,8,0,0,1.08239X$1,22.5*
%
%ADD10C,0.00000*%
%ADD11C,0.01200*%
%ADD12C,0.01000*%
%ADD13C,0.07000*%
%ADD14C,0.06600*%
%ADD15C,0.04800*%
%ADD16C,0.06000*%
%ADD17C,0.09488*%
%ADD18C,0.07600*%
%ADD19R,0.07600X0.07600*%
%ADD20C,0.07400*%
%ADD21C,0.06500*%
D10*
X0040890Y0090550D02*
X0040892Y0090687D01*
X0040898Y0090825D01*
X0040908Y0090962D01*
X0040922Y0091098D01*
X0040940Y0091234D01*
X0040961Y0091370D01*
X0040987Y0091505D01*
X0041017Y0091639D01*
X0041050Y0091772D01*
X0041087Y0091905D01*
X0041129Y0092036D01*
X0041173Y0092165D01*
X0041222Y0092294D01*
X0041274Y0092421D01*
X0041330Y0092546D01*
X0041390Y0092670D01*
X0041453Y0092792D01*
X0041520Y0092912D01*
X0041590Y0093030D01*
X0041663Y0093146D01*
X0041740Y0093260D01*
X0041820Y0093372D01*
X0041904Y0093481D01*
X0041990Y0093588D01*
X0042080Y0093692D01*
X0042172Y0093793D01*
X0042267Y0093892D01*
X0042366Y0093988D01*
X0042466Y0094082D01*
X0042570Y0094172D01*
X0042676Y0094259D01*
X0042785Y0094343D01*
X0042896Y0094424D01*
X0043009Y0094502D01*
X0043125Y0094576D01*
X0043242Y0094647D01*
X0043362Y0094714D01*
X0043483Y0094778D01*
X0043607Y0094839D01*
X0043732Y0094896D01*
X0043858Y0094949D01*
X0043986Y0094999D01*
X0044116Y0095045D01*
X0044247Y0095087D01*
X0044379Y0095125D01*
X0044512Y0095159D01*
X0044645Y0095190D01*
X0044780Y0095217D01*
X0044916Y0095239D01*
X0045052Y0095258D01*
X0045188Y0095273D01*
X0045325Y0095284D01*
X0045462Y0095291D01*
X0045600Y0095294D01*
X0045737Y0095293D01*
X0045874Y0095288D01*
X0046011Y0095279D01*
X0046148Y0095266D01*
X0046284Y0095249D01*
X0046420Y0095228D01*
X0046555Y0095204D01*
X0046690Y0095175D01*
X0046823Y0095143D01*
X0046956Y0095106D01*
X0047087Y0095066D01*
X0047217Y0095022D01*
X0047346Y0094974D01*
X0047473Y0094923D01*
X0047599Y0094868D01*
X0047723Y0094809D01*
X0047846Y0094747D01*
X0047966Y0094681D01*
X0048085Y0094612D01*
X0048201Y0094539D01*
X0048316Y0094463D01*
X0048428Y0094384D01*
X0048538Y0094301D01*
X0048645Y0094216D01*
X0048750Y0094127D01*
X0048852Y0094035D01*
X0048952Y0093941D01*
X0049049Y0093843D01*
X0049143Y0093743D01*
X0049234Y0093640D01*
X0049322Y0093535D01*
X0049406Y0093427D01*
X0049488Y0093316D01*
X0049567Y0093203D01*
X0049642Y0093088D01*
X0049714Y0092971D01*
X0049782Y0092852D01*
X0049847Y0092731D01*
X0049908Y0092608D01*
X0049966Y0092484D01*
X0050020Y0092358D01*
X0050071Y0092230D01*
X0050117Y0092101D01*
X0050160Y0091970D01*
X0050200Y0091839D01*
X0050235Y0091706D01*
X0050267Y0091572D01*
X0050294Y0091438D01*
X0050318Y0091302D01*
X0050338Y0091166D01*
X0050354Y0091030D01*
X0050366Y0090893D01*
X0050374Y0090756D01*
X0050378Y0090619D01*
X0050378Y0090481D01*
X0050374Y0090344D01*
X0050366Y0090207D01*
X0050354Y0090070D01*
X0050338Y0089934D01*
X0050318Y0089798D01*
X0050294Y0089662D01*
X0050267Y0089528D01*
X0050235Y0089394D01*
X0050200Y0089261D01*
X0050160Y0089130D01*
X0050117Y0088999D01*
X0050071Y0088870D01*
X0050020Y0088742D01*
X0049966Y0088616D01*
X0049908Y0088492D01*
X0049847Y0088369D01*
X0049782Y0088248D01*
X0049714Y0088129D01*
X0049642Y0088012D01*
X0049567Y0087897D01*
X0049488Y0087784D01*
X0049406Y0087673D01*
X0049322Y0087565D01*
X0049234Y0087460D01*
X0049143Y0087357D01*
X0049049Y0087257D01*
X0048952Y0087159D01*
X0048852Y0087065D01*
X0048750Y0086973D01*
X0048645Y0086884D01*
X0048538Y0086799D01*
X0048428Y0086716D01*
X0048316Y0086637D01*
X0048201Y0086561D01*
X0048085Y0086488D01*
X0047966Y0086419D01*
X0047846Y0086353D01*
X0047723Y0086291D01*
X0047599Y0086232D01*
X0047473Y0086177D01*
X0047346Y0086126D01*
X0047217Y0086078D01*
X0047087Y0086034D01*
X0046956Y0085994D01*
X0046823Y0085957D01*
X0046690Y0085925D01*
X0046555Y0085896D01*
X0046420Y0085872D01*
X0046284Y0085851D01*
X0046148Y0085834D01*
X0046011Y0085821D01*
X0045874Y0085812D01*
X0045737Y0085807D01*
X0045600Y0085806D01*
X0045462Y0085809D01*
X0045325Y0085816D01*
X0045188Y0085827D01*
X0045052Y0085842D01*
X0044916Y0085861D01*
X0044780Y0085883D01*
X0044645Y0085910D01*
X0044512Y0085941D01*
X0044379Y0085975D01*
X0044247Y0086013D01*
X0044116Y0086055D01*
X0043986Y0086101D01*
X0043858Y0086151D01*
X0043732Y0086204D01*
X0043607Y0086261D01*
X0043483Y0086322D01*
X0043362Y0086386D01*
X0043242Y0086453D01*
X0043125Y0086524D01*
X0043009Y0086598D01*
X0042896Y0086676D01*
X0042785Y0086757D01*
X0042676Y0086841D01*
X0042570Y0086928D01*
X0042466Y0087018D01*
X0042366Y0087112D01*
X0042267Y0087208D01*
X0042172Y0087307D01*
X0042080Y0087408D01*
X0041990Y0087512D01*
X0041904Y0087619D01*
X0041820Y0087728D01*
X0041740Y0087840D01*
X0041663Y0087954D01*
X0041590Y0088070D01*
X0041520Y0088188D01*
X0041453Y0088308D01*
X0041390Y0088430D01*
X0041330Y0088554D01*
X0041274Y0088679D01*
X0041222Y0088806D01*
X0041173Y0088935D01*
X0041129Y0089064D01*
X0041087Y0089195D01*
X0041050Y0089328D01*
X0041017Y0089461D01*
X0040987Y0089595D01*
X0040961Y0089730D01*
X0040940Y0089866D01*
X0040922Y0090002D01*
X0040908Y0090138D01*
X0040898Y0090275D01*
X0040892Y0090413D01*
X0040890Y0090550D01*
X0040914Y0134457D02*
X0040916Y0134594D01*
X0040922Y0134732D01*
X0040932Y0134869D01*
X0040946Y0135005D01*
X0040964Y0135141D01*
X0040985Y0135277D01*
X0041011Y0135412D01*
X0041041Y0135546D01*
X0041074Y0135679D01*
X0041111Y0135812D01*
X0041153Y0135943D01*
X0041197Y0136072D01*
X0041246Y0136201D01*
X0041298Y0136328D01*
X0041354Y0136453D01*
X0041414Y0136577D01*
X0041477Y0136699D01*
X0041544Y0136819D01*
X0041614Y0136937D01*
X0041687Y0137053D01*
X0041764Y0137167D01*
X0041844Y0137279D01*
X0041928Y0137388D01*
X0042014Y0137495D01*
X0042104Y0137599D01*
X0042196Y0137700D01*
X0042291Y0137799D01*
X0042390Y0137895D01*
X0042490Y0137989D01*
X0042594Y0138079D01*
X0042700Y0138166D01*
X0042809Y0138250D01*
X0042920Y0138331D01*
X0043033Y0138409D01*
X0043149Y0138483D01*
X0043266Y0138554D01*
X0043386Y0138621D01*
X0043507Y0138685D01*
X0043631Y0138746D01*
X0043756Y0138803D01*
X0043882Y0138856D01*
X0044010Y0138906D01*
X0044140Y0138952D01*
X0044271Y0138994D01*
X0044403Y0139032D01*
X0044536Y0139066D01*
X0044669Y0139097D01*
X0044804Y0139124D01*
X0044940Y0139146D01*
X0045076Y0139165D01*
X0045212Y0139180D01*
X0045349Y0139191D01*
X0045486Y0139198D01*
X0045624Y0139201D01*
X0045761Y0139200D01*
X0045898Y0139195D01*
X0046035Y0139186D01*
X0046172Y0139173D01*
X0046308Y0139156D01*
X0046444Y0139135D01*
X0046579Y0139111D01*
X0046714Y0139082D01*
X0046847Y0139050D01*
X0046980Y0139013D01*
X0047111Y0138973D01*
X0047241Y0138929D01*
X0047370Y0138881D01*
X0047497Y0138830D01*
X0047623Y0138775D01*
X0047747Y0138716D01*
X0047870Y0138654D01*
X0047990Y0138588D01*
X0048109Y0138519D01*
X0048225Y0138446D01*
X0048340Y0138370D01*
X0048452Y0138291D01*
X0048562Y0138208D01*
X0048669Y0138123D01*
X0048774Y0138034D01*
X0048876Y0137942D01*
X0048976Y0137848D01*
X0049073Y0137750D01*
X0049167Y0137650D01*
X0049258Y0137547D01*
X0049346Y0137442D01*
X0049430Y0137334D01*
X0049512Y0137223D01*
X0049591Y0137110D01*
X0049666Y0136995D01*
X0049738Y0136878D01*
X0049806Y0136759D01*
X0049871Y0136638D01*
X0049932Y0136515D01*
X0049990Y0136391D01*
X0050044Y0136265D01*
X0050095Y0136137D01*
X0050141Y0136008D01*
X0050184Y0135877D01*
X0050224Y0135746D01*
X0050259Y0135613D01*
X0050291Y0135479D01*
X0050318Y0135345D01*
X0050342Y0135209D01*
X0050362Y0135073D01*
X0050378Y0134937D01*
X0050390Y0134800D01*
X0050398Y0134663D01*
X0050402Y0134526D01*
X0050402Y0134388D01*
X0050398Y0134251D01*
X0050390Y0134114D01*
X0050378Y0133977D01*
X0050362Y0133841D01*
X0050342Y0133705D01*
X0050318Y0133569D01*
X0050291Y0133435D01*
X0050259Y0133301D01*
X0050224Y0133168D01*
X0050184Y0133037D01*
X0050141Y0132906D01*
X0050095Y0132777D01*
X0050044Y0132649D01*
X0049990Y0132523D01*
X0049932Y0132399D01*
X0049871Y0132276D01*
X0049806Y0132155D01*
X0049738Y0132036D01*
X0049666Y0131919D01*
X0049591Y0131804D01*
X0049512Y0131691D01*
X0049430Y0131580D01*
X0049346Y0131472D01*
X0049258Y0131367D01*
X0049167Y0131264D01*
X0049073Y0131164D01*
X0048976Y0131066D01*
X0048876Y0130972D01*
X0048774Y0130880D01*
X0048669Y0130791D01*
X0048562Y0130706D01*
X0048452Y0130623D01*
X0048340Y0130544D01*
X0048225Y0130468D01*
X0048109Y0130395D01*
X0047990Y0130326D01*
X0047870Y0130260D01*
X0047747Y0130198D01*
X0047623Y0130139D01*
X0047497Y0130084D01*
X0047370Y0130033D01*
X0047241Y0129985D01*
X0047111Y0129941D01*
X0046980Y0129901D01*
X0046847Y0129864D01*
X0046714Y0129832D01*
X0046579Y0129803D01*
X0046444Y0129779D01*
X0046308Y0129758D01*
X0046172Y0129741D01*
X0046035Y0129728D01*
X0045898Y0129719D01*
X0045761Y0129714D01*
X0045624Y0129713D01*
X0045486Y0129716D01*
X0045349Y0129723D01*
X0045212Y0129734D01*
X0045076Y0129749D01*
X0044940Y0129768D01*
X0044804Y0129790D01*
X0044669Y0129817D01*
X0044536Y0129848D01*
X0044403Y0129882D01*
X0044271Y0129920D01*
X0044140Y0129962D01*
X0044010Y0130008D01*
X0043882Y0130058D01*
X0043756Y0130111D01*
X0043631Y0130168D01*
X0043507Y0130229D01*
X0043386Y0130293D01*
X0043266Y0130360D01*
X0043149Y0130431D01*
X0043033Y0130505D01*
X0042920Y0130583D01*
X0042809Y0130664D01*
X0042700Y0130748D01*
X0042594Y0130835D01*
X0042490Y0130925D01*
X0042390Y0131019D01*
X0042291Y0131115D01*
X0042196Y0131214D01*
X0042104Y0131315D01*
X0042014Y0131419D01*
X0041928Y0131526D01*
X0041844Y0131635D01*
X0041764Y0131747D01*
X0041687Y0131861D01*
X0041614Y0131977D01*
X0041544Y0132095D01*
X0041477Y0132215D01*
X0041414Y0132337D01*
X0041354Y0132461D01*
X0041298Y0132586D01*
X0041246Y0132713D01*
X0041197Y0132842D01*
X0041153Y0132971D01*
X0041111Y0133102D01*
X0041074Y0133235D01*
X0041041Y0133368D01*
X0041011Y0133502D01*
X0040985Y0133637D01*
X0040964Y0133773D01*
X0040946Y0133909D01*
X0040932Y0134045D01*
X0040922Y0134182D01*
X0040916Y0134320D01*
X0040914Y0134457D01*
X0172424Y0021185D02*
X0172426Y0021234D01*
X0172432Y0021282D01*
X0172442Y0021330D01*
X0172456Y0021377D01*
X0172473Y0021423D01*
X0172494Y0021467D01*
X0172519Y0021509D01*
X0172547Y0021549D01*
X0172579Y0021587D01*
X0172613Y0021622D01*
X0172650Y0021654D01*
X0172689Y0021683D01*
X0172731Y0021709D01*
X0172775Y0021731D01*
X0172820Y0021749D01*
X0172867Y0021764D01*
X0172914Y0021775D01*
X0172963Y0021782D01*
X0173012Y0021785D01*
X0173061Y0021784D01*
X0173109Y0021779D01*
X0173158Y0021770D01*
X0173205Y0021757D01*
X0173251Y0021740D01*
X0173295Y0021720D01*
X0173338Y0021696D01*
X0173379Y0021669D01*
X0173417Y0021638D01*
X0173453Y0021605D01*
X0173485Y0021569D01*
X0173515Y0021530D01*
X0173542Y0021489D01*
X0173565Y0021445D01*
X0173584Y0021400D01*
X0173600Y0021354D01*
X0173612Y0021307D01*
X0173620Y0021258D01*
X0173624Y0021209D01*
X0173624Y0021161D01*
X0173620Y0021112D01*
X0173612Y0021063D01*
X0173600Y0021016D01*
X0173584Y0020970D01*
X0173565Y0020925D01*
X0173542Y0020881D01*
X0173515Y0020840D01*
X0173485Y0020801D01*
X0173453Y0020765D01*
X0173417Y0020732D01*
X0173379Y0020701D01*
X0173338Y0020674D01*
X0173295Y0020650D01*
X0173251Y0020630D01*
X0173205Y0020613D01*
X0173158Y0020600D01*
X0173109Y0020591D01*
X0173061Y0020586D01*
X0173012Y0020585D01*
X0172963Y0020588D01*
X0172914Y0020595D01*
X0172867Y0020606D01*
X0172820Y0020621D01*
X0172775Y0020639D01*
X0172731Y0020661D01*
X0172689Y0020687D01*
X0172650Y0020716D01*
X0172613Y0020748D01*
X0172579Y0020783D01*
X0172547Y0020821D01*
X0172519Y0020861D01*
X0172494Y0020903D01*
X0172473Y0020947D01*
X0172456Y0020993D01*
X0172442Y0021040D01*
X0172432Y0021088D01*
X0172426Y0021136D01*
X0172424Y0021185D01*
X0296577Y0176697D02*
X0296579Y0176746D01*
X0296585Y0176794D01*
X0296595Y0176842D01*
X0296609Y0176889D01*
X0296626Y0176935D01*
X0296647Y0176979D01*
X0296672Y0177021D01*
X0296700Y0177061D01*
X0296732Y0177099D01*
X0296766Y0177134D01*
X0296803Y0177166D01*
X0296842Y0177195D01*
X0296884Y0177221D01*
X0296928Y0177243D01*
X0296973Y0177261D01*
X0297020Y0177276D01*
X0297067Y0177287D01*
X0297116Y0177294D01*
X0297165Y0177297D01*
X0297214Y0177296D01*
X0297262Y0177291D01*
X0297311Y0177282D01*
X0297358Y0177269D01*
X0297404Y0177252D01*
X0297448Y0177232D01*
X0297491Y0177208D01*
X0297532Y0177181D01*
X0297570Y0177150D01*
X0297606Y0177117D01*
X0297638Y0177081D01*
X0297668Y0177042D01*
X0297695Y0177001D01*
X0297718Y0176957D01*
X0297737Y0176912D01*
X0297753Y0176866D01*
X0297765Y0176819D01*
X0297773Y0176770D01*
X0297777Y0176721D01*
X0297777Y0176673D01*
X0297773Y0176624D01*
X0297765Y0176575D01*
X0297753Y0176528D01*
X0297737Y0176482D01*
X0297718Y0176437D01*
X0297695Y0176393D01*
X0297668Y0176352D01*
X0297638Y0176313D01*
X0297606Y0176277D01*
X0297570Y0176244D01*
X0297532Y0176213D01*
X0297491Y0176186D01*
X0297448Y0176162D01*
X0297404Y0176142D01*
X0297358Y0176125D01*
X0297311Y0176112D01*
X0297262Y0176103D01*
X0297214Y0176098D01*
X0297165Y0176097D01*
X0297116Y0176100D01*
X0297067Y0176107D01*
X0297020Y0176118D01*
X0296973Y0176133D01*
X0296928Y0176151D01*
X0296884Y0176173D01*
X0296842Y0176199D01*
X0296803Y0176228D01*
X0296766Y0176260D01*
X0296732Y0176295D01*
X0296700Y0176333D01*
X0296672Y0176373D01*
X0296647Y0176415D01*
X0296626Y0176459D01*
X0296609Y0176505D01*
X0296595Y0176552D01*
X0296585Y0176600D01*
X0296579Y0176648D01*
X0296577Y0176697D01*
X0490050Y0044248D02*
X0490052Y0044297D01*
X0490058Y0044345D01*
X0490068Y0044393D01*
X0490082Y0044440D01*
X0490099Y0044486D01*
X0490120Y0044530D01*
X0490145Y0044572D01*
X0490173Y0044612D01*
X0490205Y0044650D01*
X0490239Y0044685D01*
X0490276Y0044717D01*
X0490315Y0044746D01*
X0490357Y0044772D01*
X0490401Y0044794D01*
X0490446Y0044812D01*
X0490493Y0044827D01*
X0490540Y0044838D01*
X0490589Y0044845D01*
X0490638Y0044848D01*
X0490687Y0044847D01*
X0490735Y0044842D01*
X0490784Y0044833D01*
X0490831Y0044820D01*
X0490877Y0044803D01*
X0490921Y0044783D01*
X0490964Y0044759D01*
X0491005Y0044732D01*
X0491043Y0044701D01*
X0491079Y0044668D01*
X0491111Y0044632D01*
X0491141Y0044593D01*
X0491168Y0044552D01*
X0491191Y0044508D01*
X0491210Y0044463D01*
X0491226Y0044417D01*
X0491238Y0044370D01*
X0491246Y0044321D01*
X0491250Y0044272D01*
X0491250Y0044224D01*
X0491246Y0044175D01*
X0491238Y0044126D01*
X0491226Y0044079D01*
X0491210Y0044033D01*
X0491191Y0043988D01*
X0491168Y0043944D01*
X0491141Y0043903D01*
X0491111Y0043864D01*
X0491079Y0043828D01*
X0491043Y0043795D01*
X0491005Y0043764D01*
X0490964Y0043737D01*
X0490921Y0043713D01*
X0490877Y0043693D01*
X0490831Y0043676D01*
X0490784Y0043663D01*
X0490735Y0043654D01*
X0490687Y0043649D01*
X0490638Y0043648D01*
X0490589Y0043651D01*
X0490540Y0043658D01*
X0490493Y0043669D01*
X0490446Y0043684D01*
X0490401Y0043702D01*
X0490357Y0043724D01*
X0490315Y0043750D01*
X0490276Y0043779D01*
X0490239Y0043811D01*
X0490205Y0043846D01*
X0490173Y0043884D01*
X0490145Y0043924D01*
X0490120Y0043966D01*
X0490099Y0044010D01*
X0490082Y0044056D01*
X0490068Y0044103D01*
X0490058Y0044151D01*
X0490052Y0044199D01*
X0490050Y0044248D01*
X0430906Y0038102D02*
X0430908Y0038239D01*
X0430914Y0038377D01*
X0430924Y0038514D01*
X0430938Y0038650D01*
X0430956Y0038786D01*
X0430977Y0038922D01*
X0431003Y0039057D01*
X0431033Y0039191D01*
X0431066Y0039324D01*
X0431103Y0039457D01*
X0431145Y0039588D01*
X0431189Y0039717D01*
X0431238Y0039846D01*
X0431290Y0039973D01*
X0431346Y0040098D01*
X0431406Y0040222D01*
X0431469Y0040344D01*
X0431536Y0040464D01*
X0431606Y0040582D01*
X0431679Y0040698D01*
X0431756Y0040812D01*
X0431836Y0040924D01*
X0431920Y0041033D01*
X0432006Y0041140D01*
X0432096Y0041244D01*
X0432188Y0041345D01*
X0432283Y0041444D01*
X0432382Y0041540D01*
X0432482Y0041634D01*
X0432586Y0041724D01*
X0432692Y0041811D01*
X0432801Y0041895D01*
X0432912Y0041976D01*
X0433025Y0042054D01*
X0433141Y0042128D01*
X0433258Y0042199D01*
X0433378Y0042266D01*
X0433499Y0042330D01*
X0433623Y0042391D01*
X0433748Y0042448D01*
X0433874Y0042501D01*
X0434002Y0042551D01*
X0434132Y0042597D01*
X0434263Y0042639D01*
X0434395Y0042677D01*
X0434528Y0042711D01*
X0434661Y0042742D01*
X0434796Y0042769D01*
X0434932Y0042791D01*
X0435068Y0042810D01*
X0435204Y0042825D01*
X0435341Y0042836D01*
X0435478Y0042843D01*
X0435616Y0042846D01*
X0435753Y0042845D01*
X0435890Y0042840D01*
X0436027Y0042831D01*
X0436164Y0042818D01*
X0436300Y0042801D01*
X0436436Y0042780D01*
X0436571Y0042756D01*
X0436706Y0042727D01*
X0436839Y0042695D01*
X0436972Y0042658D01*
X0437103Y0042618D01*
X0437233Y0042574D01*
X0437362Y0042526D01*
X0437489Y0042475D01*
X0437615Y0042420D01*
X0437739Y0042361D01*
X0437862Y0042299D01*
X0437982Y0042233D01*
X0438101Y0042164D01*
X0438217Y0042091D01*
X0438332Y0042015D01*
X0438444Y0041936D01*
X0438554Y0041853D01*
X0438661Y0041768D01*
X0438766Y0041679D01*
X0438868Y0041587D01*
X0438968Y0041493D01*
X0439065Y0041395D01*
X0439159Y0041295D01*
X0439250Y0041192D01*
X0439338Y0041087D01*
X0439422Y0040979D01*
X0439504Y0040868D01*
X0439583Y0040755D01*
X0439658Y0040640D01*
X0439730Y0040523D01*
X0439798Y0040404D01*
X0439863Y0040283D01*
X0439924Y0040160D01*
X0439982Y0040036D01*
X0440036Y0039910D01*
X0440087Y0039782D01*
X0440133Y0039653D01*
X0440176Y0039522D01*
X0440216Y0039391D01*
X0440251Y0039258D01*
X0440283Y0039124D01*
X0440310Y0038990D01*
X0440334Y0038854D01*
X0440354Y0038718D01*
X0440370Y0038582D01*
X0440382Y0038445D01*
X0440390Y0038308D01*
X0440394Y0038171D01*
X0440394Y0038033D01*
X0440390Y0037896D01*
X0440382Y0037759D01*
X0440370Y0037622D01*
X0440354Y0037486D01*
X0440334Y0037350D01*
X0440310Y0037214D01*
X0440283Y0037080D01*
X0440251Y0036946D01*
X0440216Y0036813D01*
X0440176Y0036682D01*
X0440133Y0036551D01*
X0440087Y0036422D01*
X0440036Y0036294D01*
X0439982Y0036168D01*
X0439924Y0036044D01*
X0439863Y0035921D01*
X0439798Y0035800D01*
X0439730Y0035681D01*
X0439658Y0035564D01*
X0439583Y0035449D01*
X0439504Y0035336D01*
X0439422Y0035225D01*
X0439338Y0035117D01*
X0439250Y0035012D01*
X0439159Y0034909D01*
X0439065Y0034809D01*
X0438968Y0034711D01*
X0438868Y0034617D01*
X0438766Y0034525D01*
X0438661Y0034436D01*
X0438554Y0034351D01*
X0438444Y0034268D01*
X0438332Y0034189D01*
X0438217Y0034113D01*
X0438101Y0034040D01*
X0437982Y0033971D01*
X0437862Y0033905D01*
X0437739Y0033843D01*
X0437615Y0033784D01*
X0437489Y0033729D01*
X0437362Y0033678D01*
X0437233Y0033630D01*
X0437103Y0033586D01*
X0436972Y0033546D01*
X0436839Y0033509D01*
X0436706Y0033477D01*
X0436571Y0033448D01*
X0436436Y0033424D01*
X0436300Y0033403D01*
X0436164Y0033386D01*
X0436027Y0033373D01*
X0435890Y0033364D01*
X0435753Y0033359D01*
X0435616Y0033358D01*
X0435478Y0033361D01*
X0435341Y0033368D01*
X0435204Y0033379D01*
X0435068Y0033394D01*
X0434932Y0033413D01*
X0434796Y0033435D01*
X0434661Y0033462D01*
X0434528Y0033493D01*
X0434395Y0033527D01*
X0434263Y0033565D01*
X0434132Y0033607D01*
X0434002Y0033653D01*
X0433874Y0033703D01*
X0433748Y0033756D01*
X0433623Y0033813D01*
X0433499Y0033874D01*
X0433378Y0033938D01*
X0433258Y0034005D01*
X0433141Y0034076D01*
X0433025Y0034150D01*
X0432912Y0034228D01*
X0432801Y0034309D01*
X0432692Y0034393D01*
X0432586Y0034480D01*
X0432482Y0034570D01*
X0432382Y0034664D01*
X0432283Y0034760D01*
X0432188Y0034859D01*
X0432096Y0034960D01*
X0432006Y0035064D01*
X0431920Y0035171D01*
X0431836Y0035280D01*
X0431756Y0035392D01*
X0431679Y0035506D01*
X0431606Y0035622D01*
X0431536Y0035740D01*
X0431469Y0035860D01*
X0431406Y0035982D01*
X0431346Y0036106D01*
X0431290Y0036231D01*
X0431238Y0036358D01*
X0431189Y0036487D01*
X0431145Y0036616D01*
X0431103Y0036747D01*
X0431066Y0036880D01*
X0431033Y0037013D01*
X0431003Y0037147D01*
X0430977Y0037282D01*
X0430956Y0037418D01*
X0430938Y0037554D01*
X0430924Y0037690D01*
X0430914Y0037827D01*
X0430908Y0037965D01*
X0430906Y0038102D01*
X0020585Y0265280D02*
X0020587Y0265329D01*
X0020593Y0265377D01*
X0020603Y0265425D01*
X0020617Y0265472D01*
X0020634Y0265518D01*
X0020655Y0265562D01*
X0020680Y0265604D01*
X0020708Y0265644D01*
X0020740Y0265682D01*
X0020774Y0265717D01*
X0020811Y0265749D01*
X0020850Y0265778D01*
X0020892Y0265804D01*
X0020936Y0265826D01*
X0020981Y0265844D01*
X0021028Y0265859D01*
X0021075Y0265870D01*
X0021124Y0265877D01*
X0021173Y0265880D01*
X0021222Y0265879D01*
X0021270Y0265874D01*
X0021319Y0265865D01*
X0021366Y0265852D01*
X0021412Y0265835D01*
X0021456Y0265815D01*
X0021499Y0265791D01*
X0021540Y0265764D01*
X0021578Y0265733D01*
X0021614Y0265700D01*
X0021646Y0265664D01*
X0021676Y0265625D01*
X0021703Y0265584D01*
X0021726Y0265540D01*
X0021745Y0265495D01*
X0021761Y0265449D01*
X0021773Y0265402D01*
X0021781Y0265353D01*
X0021785Y0265304D01*
X0021785Y0265256D01*
X0021781Y0265207D01*
X0021773Y0265158D01*
X0021761Y0265111D01*
X0021745Y0265065D01*
X0021726Y0265020D01*
X0021703Y0264976D01*
X0021676Y0264935D01*
X0021646Y0264896D01*
X0021614Y0264860D01*
X0021578Y0264827D01*
X0021540Y0264796D01*
X0021499Y0264769D01*
X0021456Y0264745D01*
X0021412Y0264725D01*
X0021366Y0264708D01*
X0021319Y0264695D01*
X0021270Y0264686D01*
X0021222Y0264681D01*
X0021173Y0264680D01*
X0021124Y0264683D01*
X0021075Y0264690D01*
X0021028Y0264701D01*
X0020981Y0264716D01*
X0020936Y0264734D01*
X0020892Y0264756D01*
X0020850Y0264782D01*
X0020811Y0264811D01*
X0020774Y0264843D01*
X0020740Y0264878D01*
X0020708Y0264916D01*
X0020680Y0264956D01*
X0020655Y0264998D01*
X0020634Y0265042D01*
X0020617Y0265088D01*
X0020603Y0265135D01*
X0020593Y0265183D01*
X0020587Y0265231D01*
X0020585Y0265280D01*
X0513113Y0332209D02*
X0513115Y0332258D01*
X0513121Y0332306D01*
X0513131Y0332354D01*
X0513145Y0332401D01*
X0513162Y0332447D01*
X0513183Y0332491D01*
X0513208Y0332533D01*
X0513236Y0332573D01*
X0513268Y0332611D01*
X0513302Y0332646D01*
X0513339Y0332678D01*
X0513378Y0332707D01*
X0513420Y0332733D01*
X0513464Y0332755D01*
X0513509Y0332773D01*
X0513556Y0332788D01*
X0513603Y0332799D01*
X0513652Y0332806D01*
X0513701Y0332809D01*
X0513750Y0332808D01*
X0513798Y0332803D01*
X0513847Y0332794D01*
X0513894Y0332781D01*
X0513940Y0332764D01*
X0513984Y0332744D01*
X0514027Y0332720D01*
X0514068Y0332693D01*
X0514106Y0332662D01*
X0514142Y0332629D01*
X0514174Y0332593D01*
X0514204Y0332554D01*
X0514231Y0332513D01*
X0514254Y0332469D01*
X0514273Y0332424D01*
X0514289Y0332378D01*
X0514301Y0332331D01*
X0514309Y0332282D01*
X0514313Y0332233D01*
X0514313Y0332185D01*
X0514309Y0332136D01*
X0514301Y0332087D01*
X0514289Y0332040D01*
X0514273Y0331994D01*
X0514254Y0331949D01*
X0514231Y0331905D01*
X0514204Y0331864D01*
X0514174Y0331825D01*
X0514142Y0331789D01*
X0514106Y0331756D01*
X0514068Y0331725D01*
X0514027Y0331698D01*
X0513984Y0331674D01*
X0513940Y0331654D01*
X0513894Y0331637D01*
X0513847Y0331624D01*
X0513798Y0331615D01*
X0513750Y0331610D01*
X0513701Y0331609D01*
X0513652Y0331612D01*
X0513603Y0331619D01*
X0513556Y0331630D01*
X0513509Y0331645D01*
X0513464Y0331663D01*
X0513420Y0331685D01*
X0513378Y0331711D01*
X0513339Y0331740D01*
X0513302Y0331772D01*
X0513268Y0331807D01*
X0513236Y0331845D01*
X0513208Y0331885D01*
X0513183Y0331927D01*
X0513162Y0331971D01*
X0513145Y0332017D01*
X0513131Y0332064D01*
X0513121Y0332112D01*
X0513115Y0332160D01*
X0513113Y0332209D01*
D11*
X0513713Y0332209D03*
X0297177Y0176697D03*
X0490650Y0044248D03*
X0173024Y0021185D03*
X0021185Y0265280D03*
D12*
X0009500Y0001500D02*
X0292917Y0001500D01*
X0293110Y0001502D01*
X0293304Y0001509D01*
X0293496Y0001521D01*
X0293689Y0001537D01*
X0293881Y0001558D01*
X0294073Y0001584D01*
X0294264Y0001614D01*
X0294454Y0001649D01*
X0294643Y0001688D01*
X0294832Y0001732D01*
X0295019Y0001781D01*
X0295205Y0001834D01*
X0295389Y0001892D01*
X0295572Y0001954D01*
X0295754Y0002020D01*
X0295934Y0002091D01*
X0296112Y0002166D01*
X0296288Y0002245D01*
X0296463Y0002329D01*
X0296635Y0002416D01*
X0296805Y0002508D01*
X0296973Y0002604D01*
X0297138Y0002704D01*
X0297301Y0002808D01*
X0297462Y0002916D01*
X0297619Y0003028D01*
X0297774Y0003143D01*
X0297926Y0003263D01*
X0298076Y0003385D01*
X0298222Y0003512D01*
X0298365Y0003642D01*
X0298505Y0003775D01*
X0298642Y0003912D01*
X0298775Y0004052D01*
X0298905Y0004195D01*
X0299032Y0004341D01*
X0299154Y0004491D01*
X0299274Y0004643D01*
X0299389Y0004798D01*
X0299501Y0004955D01*
X0299609Y0005116D01*
X0299713Y0005279D01*
X0299813Y0005444D01*
X0299909Y0005612D01*
X0300001Y0005782D01*
X0300088Y0005954D01*
X0300172Y0006129D01*
X0300251Y0006305D01*
X0300326Y0006483D01*
X0300397Y0006663D01*
X0300463Y0006845D01*
X0300525Y0007028D01*
X0300583Y0007212D01*
X0300636Y0007398D01*
X0300685Y0007585D01*
X0300729Y0007774D01*
X0300768Y0007963D01*
X0300803Y0008153D01*
X0300833Y0008344D01*
X0300859Y0008536D01*
X0300880Y0008728D01*
X0300896Y0008921D01*
X0300908Y0009113D01*
X0300915Y0009307D01*
X0300917Y0009500D01*
X0300917Y0080030D01*
X0300919Y0080223D01*
X0300926Y0080417D01*
X0300938Y0080609D01*
X0300954Y0080802D01*
X0300975Y0080994D01*
X0301001Y0081186D01*
X0301031Y0081377D01*
X0301066Y0081567D01*
X0301105Y0081756D01*
X0301149Y0081945D01*
X0301198Y0082132D01*
X0301251Y0082318D01*
X0301309Y0082502D01*
X0301371Y0082685D01*
X0301437Y0082867D01*
X0301508Y0083047D01*
X0301583Y0083225D01*
X0301662Y0083401D01*
X0301746Y0083576D01*
X0301833Y0083748D01*
X0301925Y0083918D01*
X0302021Y0084086D01*
X0302121Y0084251D01*
X0302225Y0084414D01*
X0302333Y0084575D01*
X0302445Y0084732D01*
X0302560Y0084887D01*
X0302680Y0085039D01*
X0302802Y0085189D01*
X0302929Y0085335D01*
X0303059Y0085478D01*
X0303192Y0085618D01*
X0303329Y0085755D01*
X0303469Y0085888D01*
X0303612Y0086018D01*
X0303758Y0086145D01*
X0303908Y0086267D01*
X0304060Y0086387D01*
X0304215Y0086502D01*
X0304372Y0086614D01*
X0304533Y0086722D01*
X0304696Y0086826D01*
X0304861Y0086926D01*
X0305029Y0087022D01*
X0305199Y0087114D01*
X0305371Y0087201D01*
X0305546Y0087285D01*
X0305722Y0087364D01*
X0305900Y0087439D01*
X0306080Y0087510D01*
X0306262Y0087576D01*
X0306445Y0087638D01*
X0306629Y0087696D01*
X0306815Y0087749D01*
X0307002Y0087798D01*
X0307191Y0087842D01*
X0307380Y0087881D01*
X0307570Y0087916D01*
X0307761Y0087946D01*
X0307953Y0087972D01*
X0308145Y0087993D01*
X0308338Y0088009D01*
X0308530Y0088021D01*
X0308724Y0088028D01*
X0308917Y0088030D01*
X0385437Y0088030D01*
X0385630Y0088028D01*
X0385824Y0088021D01*
X0386016Y0088009D01*
X0386209Y0087993D01*
X0386401Y0087972D01*
X0386593Y0087946D01*
X0386784Y0087916D01*
X0386974Y0087881D01*
X0387163Y0087842D01*
X0387352Y0087798D01*
X0387539Y0087749D01*
X0387725Y0087696D01*
X0387909Y0087638D01*
X0388092Y0087576D01*
X0388274Y0087510D01*
X0388454Y0087439D01*
X0388632Y0087364D01*
X0388808Y0087285D01*
X0388983Y0087201D01*
X0389155Y0087114D01*
X0389325Y0087022D01*
X0389493Y0086926D01*
X0389658Y0086826D01*
X0389821Y0086722D01*
X0389982Y0086614D01*
X0390139Y0086502D01*
X0390294Y0086387D01*
X0390446Y0086267D01*
X0390596Y0086145D01*
X0390742Y0086018D01*
X0390885Y0085888D01*
X0391025Y0085755D01*
X0391162Y0085618D01*
X0391295Y0085478D01*
X0391425Y0085335D01*
X0391552Y0085189D01*
X0391674Y0085039D01*
X0391794Y0084887D01*
X0391909Y0084732D01*
X0392021Y0084575D01*
X0392129Y0084414D01*
X0392233Y0084251D01*
X0392333Y0084086D01*
X0392429Y0083918D01*
X0392521Y0083748D01*
X0392608Y0083576D01*
X0392692Y0083401D01*
X0392771Y0083225D01*
X0392846Y0083047D01*
X0392917Y0082867D01*
X0392983Y0082685D01*
X0393045Y0082502D01*
X0393103Y0082318D01*
X0393156Y0082132D01*
X0393205Y0081945D01*
X0393249Y0081756D01*
X0393288Y0081567D01*
X0393323Y0081377D01*
X0393353Y0081186D01*
X0393379Y0080994D01*
X0393400Y0080802D01*
X0393416Y0080609D01*
X0393428Y0080417D01*
X0393435Y0080223D01*
X0393437Y0080030D01*
X0393437Y0009500D01*
X0393439Y0009307D01*
X0393446Y0009113D01*
X0393458Y0008921D01*
X0393474Y0008728D01*
X0393495Y0008536D01*
X0393521Y0008344D01*
X0393551Y0008153D01*
X0393586Y0007963D01*
X0393625Y0007774D01*
X0393669Y0007585D01*
X0393718Y0007398D01*
X0393771Y0007212D01*
X0393829Y0007028D01*
X0393891Y0006845D01*
X0393957Y0006663D01*
X0394028Y0006483D01*
X0394103Y0006305D01*
X0394182Y0006129D01*
X0394266Y0005954D01*
X0394353Y0005782D01*
X0394445Y0005612D01*
X0394541Y0005444D01*
X0394641Y0005279D01*
X0394745Y0005116D01*
X0394853Y0004955D01*
X0394965Y0004798D01*
X0395080Y0004643D01*
X0395200Y0004491D01*
X0395322Y0004341D01*
X0395449Y0004195D01*
X0395579Y0004052D01*
X0395712Y0003912D01*
X0395849Y0003775D01*
X0395989Y0003642D01*
X0396132Y0003512D01*
X0396278Y0003385D01*
X0396428Y0003263D01*
X0396580Y0003143D01*
X0396735Y0003028D01*
X0396892Y0002916D01*
X0397053Y0002808D01*
X0397216Y0002704D01*
X0397381Y0002604D01*
X0397549Y0002508D01*
X0397719Y0002416D01*
X0397891Y0002329D01*
X0398066Y0002245D01*
X0398242Y0002166D01*
X0398420Y0002091D01*
X0398600Y0002020D01*
X0398782Y0001954D01*
X0398965Y0001892D01*
X0399149Y0001834D01*
X0399335Y0001781D01*
X0399522Y0001732D01*
X0399711Y0001688D01*
X0399900Y0001649D01*
X0400090Y0001614D01*
X0400281Y0001584D01*
X0400473Y0001558D01*
X0400665Y0001537D01*
X0400858Y0001521D01*
X0401050Y0001509D01*
X0401244Y0001502D01*
X0401437Y0001500D01*
X0434972Y0001500D01*
X0437350Y0001529D01*
X0439727Y0001615D01*
X0442101Y0001759D01*
X0444471Y0001959D01*
X0446836Y0002218D01*
X0449193Y0002533D01*
X0451543Y0002905D01*
X0453882Y0003334D01*
X0456211Y0003819D01*
X0458527Y0004360D01*
X0460829Y0004957D01*
X0463116Y0005610D01*
X0465387Y0006317D01*
X0467640Y0007080D01*
X0469874Y0007896D01*
X0472088Y0008766D01*
X0474279Y0009690D01*
X0476448Y0010666D01*
X0478593Y0011694D01*
X0480712Y0012774D01*
X0482805Y0013905D01*
X0484870Y0015086D01*
X0486905Y0016316D01*
X0488910Y0017595D01*
X0490884Y0018923D01*
X0492825Y0020298D01*
X0494732Y0021719D01*
X0496604Y0023186D01*
X0498441Y0024697D01*
X0500240Y0026253D01*
X0502001Y0027851D01*
X0503723Y0029492D01*
X0505405Y0031174D01*
X0507046Y0032896D01*
X0508644Y0034657D01*
X0510200Y0036456D01*
X0511711Y0038293D01*
X0513178Y0040165D01*
X0514599Y0042072D01*
X0515974Y0044013D01*
X0517302Y0045987D01*
X0518581Y0047992D01*
X0519811Y0050027D01*
X0520992Y0052092D01*
X0522123Y0054185D01*
X0523203Y0056304D01*
X0524231Y0058449D01*
X0525207Y0060618D01*
X0526131Y0062809D01*
X0527001Y0065023D01*
X0527817Y0067257D01*
X0528580Y0069510D01*
X0529287Y0071781D01*
X0529940Y0074068D01*
X0530537Y0076370D01*
X0531078Y0078686D01*
X0531563Y0081015D01*
X0531992Y0083354D01*
X0532364Y0085704D01*
X0532679Y0088061D01*
X0532938Y0090426D01*
X0533138Y0092796D01*
X0533282Y0095170D01*
X0533368Y0097547D01*
X0533397Y0099925D01*
X0533398Y0099925D02*
X0533398Y0343894D01*
X0533396Y0344087D01*
X0533389Y0344281D01*
X0533377Y0344473D01*
X0533361Y0344666D01*
X0533340Y0344858D01*
X0533314Y0345050D01*
X0533284Y0345241D01*
X0533249Y0345431D01*
X0533210Y0345620D01*
X0533166Y0345809D01*
X0533117Y0345996D01*
X0533064Y0346182D01*
X0533006Y0346366D01*
X0532944Y0346549D01*
X0532878Y0346731D01*
X0532807Y0346911D01*
X0532732Y0347089D01*
X0532653Y0347265D01*
X0532569Y0347440D01*
X0532482Y0347612D01*
X0532390Y0347782D01*
X0532294Y0347950D01*
X0532194Y0348115D01*
X0532090Y0348278D01*
X0531982Y0348439D01*
X0531870Y0348596D01*
X0531755Y0348751D01*
X0531635Y0348903D01*
X0531513Y0349053D01*
X0531386Y0349199D01*
X0531256Y0349342D01*
X0531123Y0349482D01*
X0530986Y0349619D01*
X0530846Y0349752D01*
X0530703Y0349882D01*
X0530557Y0350009D01*
X0530407Y0350131D01*
X0530255Y0350251D01*
X0530100Y0350366D01*
X0529943Y0350478D01*
X0529782Y0350586D01*
X0529619Y0350690D01*
X0529454Y0350790D01*
X0529286Y0350886D01*
X0529116Y0350978D01*
X0528944Y0351065D01*
X0528769Y0351149D01*
X0528593Y0351228D01*
X0528415Y0351303D01*
X0528235Y0351374D01*
X0528053Y0351440D01*
X0527870Y0351502D01*
X0527686Y0351560D01*
X0527500Y0351613D01*
X0527313Y0351662D01*
X0527124Y0351706D01*
X0526935Y0351745D01*
X0526745Y0351780D01*
X0526554Y0351810D01*
X0526362Y0351836D01*
X0526170Y0351857D01*
X0525977Y0351873D01*
X0525785Y0351885D01*
X0525591Y0351892D01*
X0525398Y0351894D01*
X0009500Y0351894D01*
X0009307Y0351892D01*
X0009113Y0351885D01*
X0008921Y0351873D01*
X0008728Y0351857D01*
X0008536Y0351836D01*
X0008344Y0351810D01*
X0008153Y0351780D01*
X0007963Y0351745D01*
X0007774Y0351706D01*
X0007585Y0351662D01*
X0007398Y0351613D01*
X0007212Y0351560D01*
X0007028Y0351502D01*
X0006845Y0351440D01*
X0006663Y0351374D01*
X0006483Y0351303D01*
X0006305Y0351228D01*
X0006129Y0351149D01*
X0005954Y0351065D01*
X0005782Y0350978D01*
X0005612Y0350886D01*
X0005444Y0350790D01*
X0005279Y0350690D01*
X0005116Y0350586D01*
X0004955Y0350478D01*
X0004798Y0350366D01*
X0004643Y0350251D01*
X0004491Y0350131D01*
X0004341Y0350009D01*
X0004195Y0349882D01*
X0004052Y0349752D01*
X0003912Y0349619D01*
X0003775Y0349482D01*
X0003642Y0349342D01*
X0003512Y0349199D01*
X0003385Y0349053D01*
X0003263Y0348903D01*
X0003143Y0348751D01*
X0003028Y0348596D01*
X0002916Y0348439D01*
X0002808Y0348278D01*
X0002704Y0348115D01*
X0002604Y0347950D01*
X0002508Y0347782D01*
X0002416Y0347612D01*
X0002329Y0347440D01*
X0002245Y0347265D01*
X0002166Y0347089D01*
X0002091Y0346911D01*
X0002020Y0346731D01*
X0001954Y0346549D01*
X0001892Y0346366D01*
X0001834Y0346182D01*
X0001781Y0345996D01*
X0001732Y0345809D01*
X0001688Y0345620D01*
X0001649Y0345431D01*
X0001614Y0345241D01*
X0001584Y0345050D01*
X0001558Y0344858D01*
X0001537Y0344666D01*
X0001521Y0344473D01*
X0001509Y0344281D01*
X0001502Y0344087D01*
X0001500Y0343894D01*
X0001500Y0009500D01*
X0001502Y0009307D01*
X0001509Y0009113D01*
X0001521Y0008921D01*
X0001537Y0008728D01*
X0001558Y0008536D01*
X0001584Y0008344D01*
X0001614Y0008153D01*
X0001649Y0007963D01*
X0001688Y0007774D01*
X0001732Y0007585D01*
X0001781Y0007398D01*
X0001834Y0007212D01*
X0001892Y0007028D01*
X0001954Y0006845D01*
X0002020Y0006663D01*
X0002091Y0006483D01*
X0002166Y0006305D01*
X0002245Y0006129D01*
X0002329Y0005954D01*
X0002416Y0005782D01*
X0002508Y0005612D01*
X0002604Y0005444D01*
X0002704Y0005279D01*
X0002808Y0005116D01*
X0002916Y0004955D01*
X0003028Y0004798D01*
X0003143Y0004643D01*
X0003263Y0004491D01*
X0003385Y0004341D01*
X0003512Y0004195D01*
X0003642Y0004052D01*
X0003775Y0003912D01*
X0003912Y0003775D01*
X0004052Y0003642D01*
X0004195Y0003512D01*
X0004341Y0003385D01*
X0004491Y0003263D01*
X0004643Y0003143D01*
X0004798Y0003028D01*
X0004955Y0002916D01*
X0005116Y0002808D01*
X0005279Y0002704D01*
X0005444Y0002604D01*
X0005612Y0002508D01*
X0005782Y0002416D01*
X0005954Y0002329D01*
X0006129Y0002245D01*
X0006305Y0002166D01*
X0006483Y0002091D01*
X0006663Y0002020D01*
X0006845Y0001954D01*
X0007028Y0001892D01*
X0007212Y0001834D01*
X0007398Y0001781D01*
X0007585Y0001732D01*
X0007774Y0001688D01*
X0007963Y0001649D01*
X0008153Y0001614D01*
X0008344Y0001584D01*
X0008536Y0001558D01*
X0008728Y0001537D01*
X0008921Y0001521D01*
X0009113Y0001509D01*
X0009307Y0001502D01*
X0009500Y0001500D01*
D13*
X0015226Y0013015D03*
X0015226Y0023015D03*
X0015226Y0033015D03*
X0015226Y0043015D03*
X0015226Y0053015D03*
X0035226Y0053015D03*
X0045181Y0053023D03*
X0045181Y0043023D03*
X0035226Y0043015D03*
X0035226Y0033015D03*
X0045181Y0033023D03*
X0045181Y0023023D03*
X0035226Y0023015D03*
X0035226Y0013015D03*
X0045181Y0013023D03*
X0065181Y0013023D03*
X0075112Y0013024D03*
X0075112Y0023024D03*
X0065181Y0023023D03*
X0065181Y0033023D03*
X0075112Y0033024D03*
X0075112Y0043024D03*
X0065181Y0043023D03*
X0065181Y0053023D03*
X0075112Y0053024D03*
X0095112Y0053024D03*
X0105141Y0053046D03*
X0105141Y0043046D03*
X0095112Y0043024D03*
X0095112Y0033024D03*
X0105141Y0033046D03*
X0105141Y0023046D03*
X0095112Y0023024D03*
X0095112Y0013024D03*
X0105141Y0013046D03*
X0125141Y0013046D03*
X0125141Y0023046D03*
X0125141Y0033046D03*
X0125141Y0043046D03*
X0125141Y0053046D03*
X0062642Y0084645D03*
X0062642Y0096456D03*
X0085689Y0121173D03*
X0062666Y0128552D03*
X0062666Y0140363D03*
X0085689Y0148110D03*
X0171059Y0152106D03*
X0171059Y0162106D03*
X0171059Y0142106D03*
X0171059Y0132106D03*
X0171059Y0112106D03*
X0171059Y0102106D03*
X0211059Y0102106D03*
X0211059Y0112106D03*
X0211059Y0132106D03*
X0211059Y0142106D03*
X0211059Y0152106D03*
X0211059Y0162106D03*
X0266329Y0214204D03*
X0266329Y0224204D03*
X0266329Y0234204D03*
X0266329Y0244204D03*
X0266329Y0254204D03*
X0286329Y0254204D03*
X0296294Y0254230D03*
X0296294Y0244230D03*
X0286329Y0244204D03*
X0286329Y0234204D03*
X0296294Y0234230D03*
X0296294Y0224230D03*
X0286329Y0224204D03*
X0286329Y0214204D03*
X0296294Y0214230D03*
X0316294Y0214230D03*
X0316294Y0224230D03*
X0316294Y0234230D03*
X0316294Y0244230D03*
X0316294Y0254230D03*
X0216050Y0258920D03*
X0216050Y0248920D03*
X0196050Y0248920D03*
X0186050Y0248926D03*
X0186050Y0258926D03*
X0196050Y0258920D03*
X0196050Y0268920D03*
X0186050Y0268926D03*
X0186050Y0278926D03*
X0196050Y0278920D03*
X0196050Y0288920D03*
X0186050Y0288926D03*
X0166050Y0288926D03*
X0166050Y0278926D03*
X0166050Y0268926D03*
X0166050Y0258926D03*
X0166050Y0248926D03*
X0116900Y0244231D03*
X0116900Y0254231D03*
X0096900Y0254231D03*
X0086943Y0254224D03*
X0086943Y0244224D03*
X0096900Y0244231D03*
X0096900Y0234231D03*
X0086943Y0234224D03*
X0086943Y0224224D03*
X0096900Y0224231D03*
X0096900Y0214231D03*
X0086943Y0214224D03*
X0066943Y0214224D03*
X0066943Y0224224D03*
X0066943Y0234224D03*
X0066943Y0244224D03*
X0066943Y0254224D03*
X0116900Y0234231D03*
X0116900Y0224231D03*
X0116900Y0214231D03*
X0216050Y0268920D03*
X0216050Y0278920D03*
X0216050Y0288920D03*
X0356392Y0184981D03*
X0366392Y0184981D03*
X0376392Y0184981D03*
X0386392Y0184981D03*
X0396392Y0184981D03*
X0406392Y0184981D03*
X0416392Y0184981D03*
X0426392Y0184981D03*
X0436392Y0184981D03*
X0446392Y0184981D03*
X0456392Y0184981D03*
X0466392Y0184981D03*
X0472928Y0209491D03*
X0482928Y0209491D03*
X0492928Y0209491D03*
X0502928Y0209491D03*
X0512928Y0209491D03*
X0522928Y0209491D03*
X0522928Y0249491D03*
X0512928Y0249491D03*
X0502928Y0249491D03*
X0492928Y0249491D03*
X0482928Y0249491D03*
X0472928Y0249491D03*
X0476392Y0104981D03*
X0466392Y0104981D03*
X0456392Y0104981D03*
X0446392Y0104981D03*
X0436392Y0104981D03*
X0426392Y0104981D03*
X0416392Y0104981D03*
X0406392Y0104981D03*
X0396392Y0104981D03*
X0386392Y0104981D03*
X0376392Y0104981D03*
X0366392Y0104981D03*
X0356392Y0104981D03*
X0452657Y0044008D03*
X0452657Y0032197D03*
X0486392Y0104981D03*
X0496392Y0104981D03*
X0506392Y0104981D03*
D14*
X0340966Y0312039D03*
X0330866Y0311739D03*
X0320966Y0312039D03*
X0310966Y0312039D03*
X0300966Y0312039D03*
X0290966Y0312039D03*
X0280966Y0312039D03*
X0280972Y0341986D03*
X0290972Y0341986D03*
X0300972Y0341986D03*
X0310972Y0341986D03*
X0320972Y0341986D03*
X0330972Y0341986D03*
X0340972Y0341986D03*
X0221063Y0341952D03*
X0211063Y0341952D03*
X0201063Y0341952D03*
X0191063Y0341952D03*
X0181063Y0341952D03*
X0171063Y0341952D03*
X0161063Y0341952D03*
X0161057Y0312006D03*
X0171057Y0312006D03*
X0181057Y0312006D03*
X0191057Y0312006D03*
X0201057Y0312006D03*
X0210957Y0311706D03*
X0221057Y0312006D03*
X0101145Y0312039D03*
X0091045Y0311739D03*
X0081145Y0312039D03*
X0071145Y0312039D03*
X0061145Y0312039D03*
X0051145Y0312039D03*
X0041145Y0312039D03*
X0041151Y0341985D03*
X0051151Y0341985D03*
X0061151Y0341985D03*
X0071151Y0341985D03*
X0081151Y0341985D03*
X0091151Y0341985D03*
X0101151Y0341985D03*
D15*
X0342319Y0247396D02*
X0342319Y0242596D01*
X0352319Y0242596D02*
X0352319Y0247396D01*
X0362319Y0247396D02*
X0362319Y0242596D01*
X0372319Y0242596D02*
X0372319Y0247396D01*
X0382319Y0247396D02*
X0382319Y0242596D01*
X0392319Y0242596D02*
X0392319Y0247396D01*
X0402319Y0247396D02*
X0402319Y0242596D01*
X0412319Y0242596D02*
X0412319Y0247396D01*
X0422319Y0247396D02*
X0422319Y0242596D01*
X0432319Y0242596D02*
X0432319Y0247396D01*
X0442319Y0247396D02*
X0442319Y0242596D01*
X0452319Y0242596D02*
X0452319Y0247396D01*
X0447500Y0271777D02*
X0447500Y0276577D01*
X0437500Y0276577D02*
X0437500Y0271777D01*
X0427500Y0271777D02*
X0427500Y0276577D01*
X0417500Y0276577D02*
X0417500Y0271777D01*
X0407500Y0271777D02*
X0407500Y0276577D01*
X0397500Y0276577D02*
X0397500Y0271777D01*
X0397500Y0301777D02*
X0397500Y0306577D01*
X0407500Y0306577D02*
X0407500Y0301777D01*
X0417500Y0301777D02*
X0417500Y0306577D01*
X0427500Y0306577D02*
X0427500Y0301777D01*
X0437500Y0301777D02*
X0437500Y0306577D01*
X0447500Y0306577D02*
X0447500Y0301777D01*
X0457500Y0301777D02*
X0457500Y0306577D01*
X0467500Y0306577D02*
X0467500Y0301777D01*
X0477500Y0301777D02*
X0477500Y0306577D01*
X0487500Y0306577D02*
X0487500Y0301777D01*
X0497500Y0301777D02*
X0497500Y0306577D01*
X0507500Y0306577D02*
X0507500Y0301777D01*
X0507500Y0276577D02*
X0507500Y0271777D01*
X0497500Y0271777D02*
X0497500Y0276577D01*
X0487500Y0276577D02*
X0487500Y0271777D01*
X0477500Y0271777D02*
X0477500Y0276577D01*
X0467500Y0276577D02*
X0467500Y0271777D01*
X0457500Y0271777D02*
X0457500Y0276577D01*
X0452319Y0217396D02*
X0452319Y0212596D01*
X0442319Y0212596D02*
X0442319Y0217396D01*
X0432319Y0217396D02*
X0432319Y0212596D01*
X0422319Y0212596D02*
X0422319Y0217396D01*
X0412319Y0217396D02*
X0412319Y0212596D01*
X0402319Y0212596D02*
X0402319Y0217396D01*
X0392319Y0217396D02*
X0392319Y0212596D01*
X0382319Y0212596D02*
X0382319Y0217396D01*
X0372319Y0217396D02*
X0372319Y0212596D01*
X0362319Y0212596D02*
X0362319Y0217396D01*
X0352319Y0217396D02*
X0352319Y0212596D01*
X0342319Y0212596D02*
X0342319Y0217396D01*
X0266081Y0121673D02*
X0261281Y0121673D01*
X0261281Y0111673D02*
X0266081Y0111673D01*
X0266081Y0101673D02*
X0261281Y0101673D01*
X0261281Y0091673D02*
X0266081Y0091673D01*
X0266081Y0081673D02*
X0261281Y0081673D01*
X0261281Y0071673D02*
X0266081Y0071673D01*
X0266081Y0061673D02*
X0261281Y0061673D01*
X0261281Y0051673D02*
X0266081Y0051673D01*
X0266081Y0041673D02*
X0261281Y0041673D01*
X0261281Y0031673D02*
X0266081Y0031673D01*
X0266081Y0021673D02*
X0261281Y0021673D01*
X0261281Y0011673D02*
X0266081Y0011673D01*
X0236081Y0011673D02*
X0231281Y0011673D01*
X0231281Y0021673D02*
X0236081Y0021673D01*
X0236081Y0031673D02*
X0231281Y0031673D01*
X0231281Y0041673D02*
X0236081Y0041673D01*
X0236081Y0051673D02*
X0231281Y0051673D01*
X0231281Y0061673D02*
X0236081Y0061673D01*
X0236081Y0071673D02*
X0231281Y0071673D01*
X0231281Y0081673D02*
X0236081Y0081673D01*
X0236081Y0091673D02*
X0231281Y0091673D01*
X0231281Y0101673D02*
X0236081Y0101673D01*
X0236081Y0111673D02*
X0231281Y0111673D01*
X0231281Y0121673D02*
X0236081Y0121673D01*
D16*
X0139110Y0102772D02*
X0139110Y0096772D01*
X0129110Y0096772D02*
X0129110Y0102772D01*
X0119110Y0102772D02*
X0119110Y0096772D01*
X0026801Y0170633D02*
X0020801Y0170633D01*
X0020801Y0180633D02*
X0026801Y0180633D01*
X0026801Y0190633D02*
X0020801Y0190633D01*
D17*
X0045658Y0134457D03*
X0045634Y0090550D03*
X0435650Y0038102D03*
D18*
X0285335Y0057602D03*
X0313925Y0135122D03*
X0398957Y0332209D03*
D19*
X0408799Y0332209D03*
X0313925Y0144965D03*
X0285335Y0067445D03*
D20*
X0285335Y0043091D03*
X0285335Y0011091D03*
X0415035Y0080240D03*
X0447035Y0080240D03*
X0474091Y0086146D03*
X0474343Y0068429D03*
X0484343Y0068429D03*
X0494343Y0068429D03*
X0504343Y0068429D03*
X0506091Y0086146D03*
X0379421Y0266075D03*
X0347421Y0266075D03*
X0460508Y0332209D03*
X0492508Y0332209D03*
X0206878Y0186539D03*
X0174878Y0186539D03*
D21*
X0285366Y0109768D03*
X0313925Y0119453D03*
X0313925Y0099768D03*
X0285366Y0090083D03*
X0425531Y0332209D03*
X0445217Y0332209D03*
M02*
