G04 EAGLE Gerber RS-274X export*
G75*
%MOMM*%
%FSLAX34Y34*%
%LPD*%
%INSolder paste top*%
%IPPOS*%
%AMOC8*
5,1,8,0,0,1.08239X$1,22.5*%
G01*
%ADD10C,0.000000*%
%ADD11C,0.254000*%


D10*
X-87500Y64000D02*
X-87495Y64393D01*
X-87481Y64785D01*
X-87457Y65177D01*
X-87423Y65568D01*
X-87380Y65959D01*
X-87327Y66348D01*
X-87264Y66735D01*
X-87193Y67121D01*
X-87111Y67506D01*
X-87021Y67888D01*
X-86920Y68267D01*
X-86811Y68645D01*
X-86692Y69019D01*
X-86565Y69390D01*
X-86428Y69758D01*
X-86282Y70123D01*
X-86127Y70484D01*
X-85964Y70841D01*
X-85792Y71194D01*
X-85611Y71542D01*
X-85421Y71886D01*
X-85224Y72226D01*
X-85018Y72560D01*
X-84804Y72889D01*
X-84581Y73213D01*
X-84351Y73531D01*
X-84114Y73844D01*
X-83868Y74150D01*
X-83615Y74451D01*
X-83355Y74745D01*
X-83088Y75033D01*
X-82814Y75314D01*
X-82533Y75588D01*
X-82245Y75855D01*
X-81951Y76115D01*
X-81650Y76368D01*
X-81344Y76614D01*
X-81031Y76851D01*
X-80713Y77081D01*
X-80389Y77304D01*
X-80060Y77518D01*
X-79726Y77724D01*
X-79386Y77921D01*
X-79042Y78111D01*
X-78694Y78292D01*
X-78341Y78464D01*
X-77984Y78627D01*
X-77623Y78782D01*
X-77258Y78928D01*
X-76890Y79065D01*
X-76519Y79192D01*
X-76145Y79311D01*
X-75767Y79420D01*
X-75388Y79521D01*
X-75006Y79611D01*
X-74621Y79693D01*
X-74235Y79764D01*
X-73848Y79827D01*
X-73459Y79880D01*
X-73068Y79923D01*
X-72677Y79957D01*
X-72285Y79981D01*
X-71893Y79995D01*
X-71500Y80000D01*
X-71107Y79995D01*
X-70715Y79981D01*
X-70323Y79957D01*
X-69932Y79923D01*
X-69541Y79880D01*
X-69152Y79827D01*
X-68765Y79764D01*
X-68379Y79693D01*
X-67994Y79611D01*
X-67612Y79521D01*
X-67233Y79420D01*
X-66855Y79311D01*
X-66481Y79192D01*
X-66110Y79065D01*
X-65742Y78928D01*
X-65377Y78782D01*
X-65016Y78627D01*
X-64659Y78464D01*
X-64306Y78292D01*
X-63958Y78111D01*
X-63614Y77921D01*
X-63274Y77724D01*
X-62940Y77518D01*
X-62611Y77304D01*
X-62287Y77081D01*
X-61969Y76851D01*
X-61656Y76614D01*
X-61350Y76368D01*
X-61049Y76115D01*
X-60755Y75855D01*
X-60467Y75588D01*
X-60186Y75314D01*
X-59912Y75033D01*
X-59645Y74745D01*
X-59385Y74451D01*
X-59132Y74150D01*
X-58886Y73844D01*
X-58649Y73531D01*
X-58419Y73213D01*
X-58196Y72889D01*
X-57982Y72560D01*
X-57776Y72226D01*
X-57579Y71886D01*
X-57389Y71542D01*
X-57208Y71194D01*
X-57036Y70841D01*
X-56873Y70484D01*
X-56718Y70123D01*
X-56572Y69758D01*
X-56435Y69390D01*
X-56308Y69019D01*
X-56189Y68645D01*
X-56080Y68267D01*
X-55979Y67888D01*
X-55889Y67506D01*
X-55807Y67121D01*
X-55736Y66735D01*
X-55673Y66348D01*
X-55620Y65959D01*
X-55577Y65568D01*
X-55543Y65177D01*
X-55519Y64785D01*
X-55505Y64393D01*
X-55500Y64000D01*
X-55505Y63607D01*
X-55519Y63215D01*
X-55543Y62823D01*
X-55577Y62432D01*
X-55620Y62041D01*
X-55673Y61652D01*
X-55736Y61265D01*
X-55807Y60879D01*
X-55889Y60494D01*
X-55979Y60112D01*
X-56080Y59733D01*
X-56189Y59355D01*
X-56308Y58981D01*
X-56435Y58610D01*
X-56572Y58242D01*
X-56718Y57877D01*
X-56873Y57516D01*
X-57036Y57159D01*
X-57208Y56806D01*
X-57389Y56458D01*
X-57579Y56114D01*
X-57776Y55774D01*
X-57982Y55440D01*
X-58196Y55111D01*
X-58419Y54787D01*
X-58649Y54469D01*
X-58886Y54156D01*
X-59132Y53850D01*
X-59385Y53549D01*
X-59645Y53255D01*
X-59912Y52967D01*
X-60186Y52686D01*
X-60467Y52412D01*
X-60755Y52145D01*
X-61049Y51885D01*
X-61350Y51632D01*
X-61656Y51386D01*
X-61969Y51149D01*
X-62287Y50919D01*
X-62611Y50696D01*
X-62940Y50482D01*
X-63274Y50276D01*
X-63614Y50079D01*
X-63958Y49889D01*
X-64306Y49708D01*
X-64659Y49536D01*
X-65016Y49373D01*
X-65377Y49218D01*
X-65742Y49072D01*
X-66110Y48935D01*
X-66481Y48808D01*
X-66855Y48689D01*
X-67233Y48580D01*
X-67612Y48479D01*
X-67994Y48389D01*
X-68379Y48307D01*
X-68765Y48236D01*
X-69152Y48173D01*
X-69541Y48120D01*
X-69932Y48077D01*
X-70323Y48043D01*
X-70715Y48019D01*
X-71107Y48005D01*
X-71500Y48000D01*
X-71893Y48005D01*
X-72285Y48019D01*
X-72677Y48043D01*
X-73068Y48077D01*
X-73459Y48120D01*
X-73848Y48173D01*
X-74235Y48236D01*
X-74621Y48307D01*
X-75006Y48389D01*
X-75388Y48479D01*
X-75767Y48580D01*
X-76145Y48689D01*
X-76519Y48808D01*
X-76890Y48935D01*
X-77258Y49072D01*
X-77623Y49218D01*
X-77984Y49373D01*
X-78341Y49536D01*
X-78694Y49708D01*
X-79042Y49889D01*
X-79386Y50079D01*
X-79726Y50276D01*
X-80060Y50482D01*
X-80389Y50696D01*
X-80713Y50919D01*
X-81031Y51149D01*
X-81344Y51386D01*
X-81650Y51632D01*
X-81951Y51885D01*
X-82245Y52145D01*
X-82533Y52412D01*
X-82814Y52686D01*
X-83088Y52967D01*
X-83355Y53255D01*
X-83615Y53549D01*
X-83868Y53850D01*
X-84114Y54156D01*
X-84351Y54469D01*
X-84581Y54787D01*
X-84804Y55111D01*
X-85018Y55440D01*
X-85224Y55774D01*
X-85421Y56114D01*
X-85611Y56458D01*
X-85792Y56806D01*
X-85964Y57159D01*
X-86127Y57516D01*
X-86282Y57877D01*
X-86428Y58242D01*
X-86565Y58610D01*
X-86692Y58981D01*
X-86811Y59355D01*
X-86920Y59733D01*
X-87021Y60112D01*
X-87111Y60494D01*
X-87193Y60879D01*
X-87264Y61265D01*
X-87327Y61652D01*
X-87380Y62041D01*
X-87423Y62432D01*
X-87457Y62823D01*
X-87481Y63215D01*
X-87495Y63607D01*
X-87500Y64000D01*
X55500Y64000D02*
X55505Y64393D01*
X55519Y64785D01*
X55543Y65177D01*
X55577Y65568D01*
X55620Y65959D01*
X55673Y66348D01*
X55736Y66735D01*
X55807Y67121D01*
X55889Y67506D01*
X55979Y67888D01*
X56080Y68267D01*
X56189Y68645D01*
X56308Y69019D01*
X56435Y69390D01*
X56572Y69758D01*
X56718Y70123D01*
X56873Y70484D01*
X57036Y70841D01*
X57208Y71194D01*
X57389Y71542D01*
X57579Y71886D01*
X57776Y72226D01*
X57982Y72560D01*
X58196Y72889D01*
X58419Y73213D01*
X58649Y73531D01*
X58886Y73844D01*
X59132Y74150D01*
X59385Y74451D01*
X59645Y74745D01*
X59912Y75033D01*
X60186Y75314D01*
X60467Y75588D01*
X60755Y75855D01*
X61049Y76115D01*
X61350Y76368D01*
X61656Y76614D01*
X61969Y76851D01*
X62287Y77081D01*
X62611Y77304D01*
X62940Y77518D01*
X63274Y77724D01*
X63614Y77921D01*
X63958Y78111D01*
X64306Y78292D01*
X64659Y78464D01*
X65016Y78627D01*
X65377Y78782D01*
X65742Y78928D01*
X66110Y79065D01*
X66481Y79192D01*
X66855Y79311D01*
X67233Y79420D01*
X67612Y79521D01*
X67994Y79611D01*
X68379Y79693D01*
X68765Y79764D01*
X69152Y79827D01*
X69541Y79880D01*
X69932Y79923D01*
X70323Y79957D01*
X70715Y79981D01*
X71107Y79995D01*
X71500Y80000D01*
X71893Y79995D01*
X72285Y79981D01*
X72677Y79957D01*
X73068Y79923D01*
X73459Y79880D01*
X73848Y79827D01*
X74235Y79764D01*
X74621Y79693D01*
X75006Y79611D01*
X75388Y79521D01*
X75767Y79420D01*
X76145Y79311D01*
X76519Y79192D01*
X76890Y79065D01*
X77258Y78928D01*
X77623Y78782D01*
X77984Y78627D01*
X78341Y78464D01*
X78694Y78292D01*
X79042Y78111D01*
X79386Y77921D01*
X79726Y77724D01*
X80060Y77518D01*
X80389Y77304D01*
X80713Y77081D01*
X81031Y76851D01*
X81344Y76614D01*
X81650Y76368D01*
X81951Y76115D01*
X82245Y75855D01*
X82533Y75588D01*
X82814Y75314D01*
X83088Y75033D01*
X83355Y74745D01*
X83615Y74451D01*
X83868Y74150D01*
X84114Y73844D01*
X84351Y73531D01*
X84581Y73213D01*
X84804Y72889D01*
X85018Y72560D01*
X85224Y72226D01*
X85421Y71886D01*
X85611Y71542D01*
X85792Y71194D01*
X85964Y70841D01*
X86127Y70484D01*
X86282Y70123D01*
X86428Y69758D01*
X86565Y69390D01*
X86692Y69019D01*
X86811Y68645D01*
X86920Y68267D01*
X87021Y67888D01*
X87111Y67506D01*
X87193Y67121D01*
X87264Y66735D01*
X87327Y66348D01*
X87380Y65959D01*
X87423Y65568D01*
X87457Y65177D01*
X87481Y64785D01*
X87495Y64393D01*
X87500Y64000D01*
X87495Y63607D01*
X87481Y63215D01*
X87457Y62823D01*
X87423Y62432D01*
X87380Y62041D01*
X87327Y61652D01*
X87264Y61265D01*
X87193Y60879D01*
X87111Y60494D01*
X87021Y60112D01*
X86920Y59733D01*
X86811Y59355D01*
X86692Y58981D01*
X86565Y58610D01*
X86428Y58242D01*
X86282Y57877D01*
X86127Y57516D01*
X85964Y57159D01*
X85792Y56806D01*
X85611Y56458D01*
X85421Y56114D01*
X85224Y55774D01*
X85018Y55440D01*
X84804Y55111D01*
X84581Y54787D01*
X84351Y54469D01*
X84114Y54156D01*
X83868Y53850D01*
X83615Y53549D01*
X83355Y53255D01*
X83088Y52967D01*
X82814Y52686D01*
X82533Y52412D01*
X82245Y52145D01*
X81951Y51885D01*
X81650Y51632D01*
X81344Y51386D01*
X81031Y51149D01*
X80713Y50919D01*
X80389Y50696D01*
X80060Y50482D01*
X79726Y50276D01*
X79386Y50079D01*
X79042Y49889D01*
X78694Y49708D01*
X78341Y49536D01*
X77984Y49373D01*
X77623Y49218D01*
X77258Y49072D01*
X76890Y48935D01*
X76519Y48808D01*
X76145Y48689D01*
X75767Y48580D01*
X75388Y48479D01*
X75006Y48389D01*
X74621Y48307D01*
X74235Y48236D01*
X73848Y48173D01*
X73459Y48120D01*
X73068Y48077D01*
X72677Y48043D01*
X72285Y48019D01*
X71893Y48005D01*
X71500Y48000D01*
X71107Y48005D01*
X70715Y48019D01*
X70323Y48043D01*
X69932Y48077D01*
X69541Y48120D01*
X69152Y48173D01*
X68765Y48236D01*
X68379Y48307D01*
X67994Y48389D01*
X67612Y48479D01*
X67233Y48580D01*
X66855Y48689D01*
X66481Y48808D01*
X66110Y48935D01*
X65742Y49072D01*
X65377Y49218D01*
X65016Y49373D01*
X64659Y49536D01*
X64306Y49708D01*
X63958Y49889D01*
X63614Y50079D01*
X63274Y50276D01*
X62940Y50482D01*
X62611Y50696D01*
X62287Y50919D01*
X61969Y51149D01*
X61656Y51386D01*
X61350Y51632D01*
X61049Y51885D01*
X60755Y52145D01*
X60467Y52412D01*
X60186Y52686D01*
X59912Y52967D01*
X59645Y53255D01*
X59385Y53549D01*
X59132Y53850D01*
X58886Y54156D01*
X58649Y54469D01*
X58419Y54787D01*
X58196Y55111D01*
X57982Y55440D01*
X57776Y55774D01*
X57579Y56114D01*
X57389Y56458D01*
X57208Y56806D01*
X57036Y57159D01*
X56873Y57516D01*
X56718Y57877D01*
X56572Y58242D01*
X56435Y58610D01*
X56308Y58981D01*
X56189Y59355D01*
X56080Y59733D01*
X55979Y60112D01*
X55889Y60494D01*
X55807Y60879D01*
X55736Y61265D01*
X55673Y61652D01*
X55620Y62041D01*
X55577Y62432D01*
X55543Y62823D01*
X55519Y63215D01*
X55505Y63607D01*
X55500Y64000D01*
D11*
X112269Y92579D02*
X112500Y-84654D01*
X112269Y92579D02*
X112263Y93015D01*
X112246Y93451D01*
X112219Y93886D01*
X112181Y94320D01*
X112133Y94754D01*
X112073Y95186D01*
X112004Y95616D01*
X111923Y96045D01*
X111832Y96471D01*
X111731Y96895D01*
X111620Y97316D01*
X111498Y97735D01*
X111366Y98151D01*
X111223Y98563D01*
X111071Y98971D01*
X110909Y99376D01*
X110736Y99776D01*
X110554Y100173D01*
X110363Y100564D01*
X110162Y100951D01*
X109951Y101333D01*
X109731Y101709D01*
X109502Y102080D01*
X109264Y102445D01*
X109017Y102805D01*
X108761Y103158D01*
X108497Y103505D01*
X108224Y103845D01*
X107943Y104178D01*
X107654Y104505D01*
X107357Y104824D01*
X107053Y105136D01*
X106740Y105440D01*
X106421Y105736D01*
X106094Y106025D01*
X105760Y106305D01*
X105420Y106578D01*
X105072Y106842D01*
X104719Y107097D01*
X104359Y107343D01*
X103994Y107581D01*
X103622Y107809D01*
X103246Y108029D01*
X102864Y108239D01*
X102476Y108439D01*
X102085Y108630D01*
X101688Y108812D01*
X101287Y108983D01*
X100882Y109145D01*
X100474Y109297D01*
X100061Y109438D01*
X99646Y109570D01*
X99227Y109691D01*
X98805Y109802D01*
X98381Y109903D01*
X97955Y109993D01*
X97526Y110073D01*
X97095Y110142D01*
X96663Y110201D01*
X96230Y110249D01*
X95796Y110286D01*
X95361Y110313D01*
X94925Y110329D01*
X94489Y110334D01*
X-94951Y110334D01*
X-95381Y110329D01*
X-95811Y110313D01*
X-96240Y110287D01*
X-96668Y110251D01*
X-97096Y110204D01*
X-97522Y110147D01*
X-97947Y110080D01*
X-98370Y110002D01*
X-98791Y109914D01*
X-99209Y109817D01*
X-99626Y109708D01*
X-100039Y109590D01*
X-100450Y109462D01*
X-100857Y109324D01*
X-101261Y109177D01*
X-101661Y109019D01*
X-102057Y108852D01*
X-102449Y108676D01*
X-102837Y108490D01*
X-103220Y108294D01*
X-103598Y108090D01*
X-103971Y107876D01*
X-104339Y107653D01*
X-104702Y107422D01*
X-105058Y107182D01*
X-105409Y106933D01*
X-105754Y106676D01*
X-106092Y106411D01*
X-106424Y106137D01*
X-106749Y105856D01*
X-107067Y105566D01*
X-107378Y105270D01*
X-107682Y104965D01*
X-107979Y104654D01*
X-108268Y104335D01*
X-108549Y104010D01*
X-108822Y103678D01*
X-109087Y103339D01*
X-109343Y102994D01*
X-109592Y102643D01*
X-109831Y102286D01*
X-110062Y101923D01*
X-110284Y101555D01*
X-110498Y101181D01*
X-110702Y100803D01*
X-110897Y100420D01*
X-111082Y100032D01*
X-111258Y99639D01*
X-111425Y99243D01*
X-111582Y98843D01*
X-111729Y98439D01*
X-111866Y98031D01*
X-111994Y97621D01*
X-112111Y97207D01*
X-112219Y96791D01*
X-112316Y96372D01*
X-112404Y95951D01*
X-112481Y95528D01*
X-112547Y95103D01*
X-112604Y94677D01*
X-112650Y94249D01*
X-112686Y93820D01*
X-112711Y93391D01*
X-112726Y92961D01*
X-112731Y92531D01*
X-112500Y-84702D01*
X-112493Y-85201D01*
X-112474Y-85699D01*
X-112443Y-86196D01*
X-112400Y-86692D01*
X-112344Y-87188D01*
X-112277Y-87681D01*
X-112197Y-88173D01*
X-112105Y-88663D01*
X-112002Y-89151D01*
X-111886Y-89635D01*
X-111759Y-90117D01*
X-111619Y-90596D01*
X-111468Y-91071D01*
X-111306Y-91542D01*
X-111132Y-92009D01*
X-110946Y-92471D01*
X-110750Y-92929D01*
X-110542Y-93382D01*
X-110323Y-93830D01*
X-110093Y-94272D01*
X-109852Y-94708D01*
X-109601Y-95139D01*
X-109339Y-95563D01*
X-109067Y-95980D01*
X-108785Y-96391D01*
X-108493Y-96795D01*
X-108191Y-97191D01*
X-107879Y-97580D01*
X-107558Y-97961D01*
X-107228Y-98334D01*
X-106888Y-98699D01*
X-106540Y-99056D01*
X-106183Y-99404D01*
X-105818Y-99743D01*
X-105444Y-100072D01*
X-105063Y-100393D01*
X-104674Y-100704D01*
X-104277Y-101006D01*
X-103873Y-101298D01*
X-103462Y-101579D01*
X-103044Y-101851D01*
X-102620Y-102112D01*
X-102189Y-102363D01*
X-101752Y-102603D01*
X-101310Y-102833D01*
X-100862Y-103051D01*
X-100409Y-103259D01*
X-99951Y-103455D01*
X-99488Y-103640D01*
X-99021Y-103813D01*
X-98550Y-103975D01*
X-98074Y-104126D01*
X-97596Y-104265D01*
X-97114Y-104391D01*
X-96629Y-104507D01*
X-96141Y-104610D01*
X-95652Y-104701D01*
X-95159Y-104780D01*
X-94666Y-104847D01*
X-94170Y-104902D01*
X-93674Y-104945D01*
X-93176Y-104975D01*
X-92678Y-104994D01*
X-92180Y-105000D01*
X92180Y-105000D01*
X92671Y-104994D01*
X93163Y-104976D01*
X93653Y-104947D01*
X94143Y-104905D01*
X94631Y-104852D01*
X95118Y-104786D01*
X95604Y-104709D01*
X96087Y-104621D01*
X96568Y-104521D01*
X97047Y-104409D01*
X97522Y-104285D01*
X97995Y-104150D01*
X98464Y-104004D01*
X98930Y-103846D01*
X99391Y-103677D01*
X99848Y-103497D01*
X100301Y-103307D01*
X100749Y-103105D01*
X101192Y-102892D01*
X101630Y-102669D01*
X102062Y-102435D01*
X102489Y-102191D01*
X102909Y-101936D01*
X103324Y-101672D01*
X103731Y-101397D01*
X104132Y-101113D01*
X104526Y-100819D01*
X104913Y-100516D01*
X105292Y-100203D01*
X105664Y-99882D01*
X106027Y-99551D01*
X106383Y-99212D01*
X106730Y-98864D01*
X107069Y-98508D01*
X107399Y-98144D01*
X107720Y-97772D01*
X108032Y-97393D01*
X108335Y-97006D01*
X108628Y-96611D01*
X108912Y-96210D01*
X109186Y-95802D01*
X109450Y-95388D01*
X109704Y-94967D01*
X109947Y-94540D01*
X110181Y-94107D01*
X110403Y-93669D01*
X110616Y-93226D01*
X110817Y-92778D01*
X111007Y-92325D01*
X111187Y-91867D01*
X111355Y-91405D01*
X111512Y-90940D01*
X111658Y-90470D01*
X111792Y-89998D01*
X111915Y-89522D01*
X112026Y-89043D01*
X112126Y-88562D01*
X112214Y-88078D01*
X112290Y-87593D01*
X112355Y-87106D01*
X112407Y-86617D01*
X112448Y-86127D01*
X112477Y-85637D01*
X112495Y-85146D01*
X112500Y-84654D01*
M02*
