G04 EAGLE Gerber RS-274X export*
G75*
%MOMM*%
%FSLAX34Y34*%
%LPD*%
%INSolder paste bottom*%
%IPPOS*%
%AMOC8*
5,1,8,0,0,1.08239X$1,22.5*%
G01*
%ADD10C,0.000000*%
%ADD11C,0.254000*%


D10*
X-46874Y-395000D02*
X-46872Y-394922D01*
X-46866Y-394845D01*
X-46856Y-394767D01*
X-46842Y-394691D01*
X-46825Y-394615D01*
X-46803Y-394540D01*
X-46778Y-394467D01*
X-46749Y-394394D01*
X-46716Y-394324D01*
X-46679Y-394255D01*
X-46640Y-394188D01*
X-46597Y-394123D01*
X-46550Y-394061D01*
X-46501Y-394001D01*
X-46448Y-393943D01*
X-46393Y-393889D01*
X-46335Y-393837D01*
X-46274Y-393788D01*
X-46211Y-393742D01*
X-46145Y-393700D01*
X-46078Y-393661D01*
X-46009Y-393626D01*
X-45938Y-393594D01*
X-45865Y-393566D01*
X-45791Y-393541D01*
X-45716Y-393521D01*
X-45640Y-393504D01*
X-45563Y-393491D01*
X-45486Y-393482D01*
X-45408Y-393477D01*
X-45331Y-393476D01*
X-45253Y-393479D01*
X-45175Y-393486D01*
X-45098Y-393497D01*
X-45022Y-393512D01*
X-44946Y-393530D01*
X-44872Y-393553D01*
X-44798Y-393579D01*
X-44727Y-393609D01*
X-44656Y-393643D01*
X-44588Y-393680D01*
X-44522Y-393721D01*
X-44457Y-393765D01*
X-44395Y-393812D01*
X-44336Y-393862D01*
X-44279Y-393916D01*
X-44225Y-393972D01*
X-44174Y-394030D01*
X-44126Y-394092D01*
X-44081Y-394155D01*
X-44040Y-394221D01*
X-44002Y-394289D01*
X-43967Y-394359D01*
X-43936Y-394430D01*
X-43909Y-394503D01*
X-43886Y-394577D01*
X-43866Y-394653D01*
X-43850Y-394729D01*
X-43838Y-394806D01*
X-43830Y-394883D01*
X-43826Y-394961D01*
X-43826Y-395039D01*
X-43830Y-395117D01*
X-43838Y-395194D01*
X-43850Y-395271D01*
X-43866Y-395347D01*
X-43886Y-395423D01*
X-43909Y-395497D01*
X-43936Y-395570D01*
X-43967Y-395641D01*
X-44002Y-395711D01*
X-44040Y-395779D01*
X-44081Y-395845D01*
X-44126Y-395908D01*
X-44174Y-395970D01*
X-44225Y-396028D01*
X-44279Y-396084D01*
X-44336Y-396138D01*
X-44395Y-396188D01*
X-44457Y-396235D01*
X-44522Y-396279D01*
X-44588Y-396320D01*
X-44656Y-396357D01*
X-44727Y-396391D01*
X-44798Y-396421D01*
X-44872Y-396447D01*
X-44946Y-396470D01*
X-45022Y-396488D01*
X-45098Y-396503D01*
X-45175Y-396514D01*
X-45253Y-396521D01*
X-45331Y-396524D01*
X-45408Y-396523D01*
X-45486Y-396518D01*
X-45563Y-396509D01*
X-45640Y-396496D01*
X-45716Y-396479D01*
X-45791Y-396459D01*
X-45865Y-396434D01*
X-45938Y-396406D01*
X-46009Y-396374D01*
X-46078Y-396339D01*
X-46145Y-396300D01*
X-46211Y-396258D01*
X-46274Y-396212D01*
X-46335Y-396163D01*
X-46393Y-396111D01*
X-46448Y-396057D01*
X-46501Y-395999D01*
X-46550Y-395939D01*
X-46597Y-395877D01*
X-46640Y-395812D01*
X-46679Y-395745D01*
X-46716Y-395676D01*
X-46749Y-395606D01*
X-46778Y-395533D01*
X-46803Y-395460D01*
X-46825Y-395385D01*
X-46842Y-395309D01*
X-46856Y-395233D01*
X-46866Y-395155D01*
X-46872Y-395078D01*
X-46874Y-395000D01*
X759896Y-336420D02*
X759898Y-336342D01*
X759904Y-336265D01*
X759914Y-336187D01*
X759928Y-336111D01*
X759945Y-336035D01*
X759967Y-335960D01*
X759992Y-335887D01*
X760021Y-335814D01*
X760054Y-335744D01*
X760091Y-335675D01*
X760130Y-335608D01*
X760173Y-335543D01*
X760220Y-335481D01*
X760269Y-335421D01*
X760322Y-335363D01*
X760377Y-335309D01*
X760435Y-335257D01*
X760496Y-335208D01*
X760559Y-335162D01*
X760625Y-335120D01*
X760692Y-335081D01*
X760761Y-335046D01*
X760832Y-335014D01*
X760905Y-334986D01*
X760979Y-334961D01*
X761054Y-334941D01*
X761130Y-334924D01*
X761207Y-334911D01*
X761284Y-334902D01*
X761362Y-334897D01*
X761439Y-334896D01*
X761517Y-334899D01*
X761595Y-334906D01*
X761672Y-334917D01*
X761748Y-334932D01*
X761824Y-334950D01*
X761898Y-334973D01*
X761972Y-334999D01*
X762043Y-335029D01*
X762114Y-335063D01*
X762182Y-335100D01*
X762248Y-335141D01*
X762313Y-335185D01*
X762375Y-335232D01*
X762434Y-335282D01*
X762491Y-335336D01*
X762545Y-335392D01*
X762596Y-335450D01*
X762644Y-335512D01*
X762689Y-335575D01*
X762730Y-335641D01*
X762768Y-335709D01*
X762803Y-335779D01*
X762834Y-335850D01*
X762861Y-335923D01*
X762884Y-335997D01*
X762904Y-336073D01*
X762920Y-336149D01*
X762932Y-336226D01*
X762940Y-336303D01*
X762944Y-336381D01*
X762944Y-336459D01*
X762940Y-336537D01*
X762932Y-336614D01*
X762920Y-336691D01*
X762904Y-336767D01*
X762884Y-336843D01*
X762861Y-336917D01*
X762834Y-336990D01*
X762803Y-337061D01*
X762768Y-337131D01*
X762730Y-337199D01*
X762689Y-337265D01*
X762644Y-337328D01*
X762596Y-337390D01*
X762545Y-337448D01*
X762491Y-337504D01*
X762434Y-337558D01*
X762375Y-337608D01*
X762313Y-337655D01*
X762248Y-337699D01*
X762182Y-337740D01*
X762114Y-337777D01*
X762043Y-337811D01*
X761972Y-337841D01*
X761898Y-337867D01*
X761824Y-337890D01*
X761748Y-337908D01*
X761672Y-337923D01*
X761595Y-337934D01*
X761517Y-337941D01*
X761439Y-337944D01*
X761362Y-337943D01*
X761284Y-337938D01*
X761207Y-337929D01*
X761130Y-337916D01*
X761054Y-337899D01*
X760979Y-337879D01*
X760905Y-337854D01*
X760832Y-337826D01*
X760761Y-337794D01*
X760692Y-337759D01*
X760625Y-337720D01*
X760559Y-337678D01*
X760496Y-337632D01*
X760435Y-337583D01*
X760377Y-337531D01*
X760322Y-337477D01*
X760269Y-337419D01*
X760220Y-337359D01*
X760173Y-337297D01*
X760130Y-337232D01*
X760091Y-337165D01*
X760054Y-337096D01*
X760021Y-337026D01*
X759992Y-336953D01*
X759967Y-336880D01*
X759945Y-336805D01*
X759928Y-336729D01*
X759914Y-336653D01*
X759904Y-336575D01*
X759898Y-336498D01*
X759896Y-336420D01*
X268476Y0D02*
X268478Y78D01*
X268484Y155D01*
X268494Y233D01*
X268508Y309D01*
X268525Y385D01*
X268547Y460D01*
X268572Y533D01*
X268601Y606D01*
X268634Y676D01*
X268671Y745D01*
X268710Y812D01*
X268753Y877D01*
X268800Y939D01*
X268849Y999D01*
X268902Y1057D01*
X268957Y1111D01*
X269015Y1163D01*
X269076Y1212D01*
X269139Y1258D01*
X269205Y1300D01*
X269272Y1339D01*
X269341Y1374D01*
X269412Y1406D01*
X269485Y1434D01*
X269559Y1459D01*
X269634Y1479D01*
X269710Y1496D01*
X269787Y1509D01*
X269864Y1518D01*
X269942Y1523D01*
X270019Y1524D01*
X270097Y1521D01*
X270175Y1514D01*
X270252Y1503D01*
X270328Y1488D01*
X270404Y1470D01*
X270478Y1447D01*
X270552Y1421D01*
X270623Y1391D01*
X270694Y1357D01*
X270762Y1320D01*
X270828Y1279D01*
X270893Y1235D01*
X270955Y1188D01*
X271014Y1138D01*
X271071Y1084D01*
X271125Y1028D01*
X271176Y970D01*
X271224Y908D01*
X271269Y845D01*
X271310Y779D01*
X271348Y711D01*
X271383Y641D01*
X271414Y570D01*
X271441Y497D01*
X271464Y423D01*
X271484Y347D01*
X271500Y271D01*
X271512Y194D01*
X271520Y117D01*
X271524Y39D01*
X271524Y-39D01*
X271520Y-117D01*
X271512Y-194D01*
X271500Y-271D01*
X271484Y-347D01*
X271464Y-423D01*
X271441Y-497D01*
X271414Y-570D01*
X271383Y-641D01*
X271348Y-711D01*
X271310Y-779D01*
X271269Y-845D01*
X271224Y-908D01*
X271176Y-970D01*
X271125Y-1028D01*
X271071Y-1084D01*
X271014Y-1138D01*
X270955Y-1188D01*
X270893Y-1235D01*
X270828Y-1279D01*
X270762Y-1320D01*
X270694Y-1357D01*
X270623Y-1391D01*
X270552Y-1421D01*
X270478Y-1447D01*
X270404Y-1470D01*
X270328Y-1488D01*
X270252Y-1503D01*
X270175Y-1514D01*
X270097Y-1521D01*
X270019Y-1524D01*
X269942Y-1523D01*
X269864Y-1518D01*
X269787Y-1509D01*
X269710Y-1496D01*
X269634Y-1479D01*
X269559Y-1459D01*
X269485Y-1434D01*
X269412Y-1406D01*
X269341Y-1374D01*
X269272Y-1339D01*
X269205Y-1300D01*
X269139Y-1258D01*
X269076Y-1212D01*
X269015Y-1163D01*
X268957Y-1111D01*
X268902Y-1057D01*
X268849Y-999D01*
X268800Y-939D01*
X268753Y-877D01*
X268710Y-812D01*
X268671Y-745D01*
X268634Y-676D01*
X268601Y-606D01*
X268572Y-533D01*
X268547Y-460D01*
X268525Y-385D01*
X268508Y-309D01*
X268494Y-233D01*
X268484Y-155D01*
X268478Y-78D01*
X268476Y0D01*
X-432544Y225000D02*
X-432542Y225078D01*
X-432536Y225155D01*
X-432526Y225233D01*
X-432512Y225309D01*
X-432495Y225385D01*
X-432473Y225460D01*
X-432448Y225533D01*
X-432419Y225606D01*
X-432386Y225676D01*
X-432349Y225745D01*
X-432310Y225812D01*
X-432267Y225877D01*
X-432220Y225939D01*
X-432171Y225999D01*
X-432118Y226057D01*
X-432063Y226111D01*
X-432005Y226163D01*
X-431944Y226212D01*
X-431881Y226258D01*
X-431815Y226300D01*
X-431748Y226339D01*
X-431679Y226374D01*
X-431608Y226406D01*
X-431535Y226434D01*
X-431461Y226459D01*
X-431386Y226479D01*
X-431310Y226496D01*
X-431233Y226509D01*
X-431156Y226518D01*
X-431078Y226523D01*
X-431001Y226524D01*
X-430923Y226521D01*
X-430845Y226514D01*
X-430768Y226503D01*
X-430692Y226488D01*
X-430616Y226470D01*
X-430542Y226447D01*
X-430468Y226421D01*
X-430397Y226391D01*
X-430326Y226357D01*
X-430258Y226320D01*
X-430192Y226279D01*
X-430127Y226235D01*
X-430065Y226188D01*
X-430006Y226138D01*
X-429949Y226084D01*
X-429895Y226028D01*
X-429844Y225970D01*
X-429796Y225908D01*
X-429751Y225845D01*
X-429710Y225779D01*
X-429672Y225711D01*
X-429637Y225641D01*
X-429606Y225570D01*
X-429579Y225497D01*
X-429556Y225423D01*
X-429536Y225347D01*
X-429520Y225271D01*
X-429508Y225194D01*
X-429500Y225117D01*
X-429496Y225039D01*
X-429496Y224961D01*
X-429500Y224883D01*
X-429508Y224806D01*
X-429520Y224729D01*
X-429536Y224653D01*
X-429556Y224577D01*
X-429579Y224503D01*
X-429606Y224430D01*
X-429637Y224359D01*
X-429672Y224289D01*
X-429710Y224221D01*
X-429751Y224155D01*
X-429796Y224092D01*
X-429844Y224030D01*
X-429895Y223972D01*
X-429949Y223916D01*
X-430006Y223862D01*
X-430065Y223812D01*
X-430127Y223765D01*
X-430192Y223721D01*
X-430258Y223680D01*
X-430326Y223643D01*
X-430397Y223609D01*
X-430468Y223579D01*
X-430542Y223553D01*
X-430616Y223530D01*
X-430692Y223512D01*
X-430768Y223497D01*
X-430845Y223486D01*
X-430923Y223479D01*
X-431001Y223476D01*
X-431078Y223477D01*
X-431156Y223482D01*
X-431233Y223491D01*
X-431310Y223504D01*
X-431386Y223521D01*
X-431461Y223541D01*
X-431535Y223566D01*
X-431608Y223594D01*
X-431679Y223626D01*
X-431748Y223661D01*
X-431815Y223700D01*
X-431881Y223742D01*
X-431944Y223788D01*
X-432005Y223837D01*
X-432063Y223889D01*
X-432118Y223943D01*
X-432171Y224001D01*
X-432220Y224061D01*
X-432267Y224123D01*
X-432310Y224188D01*
X-432349Y224255D01*
X-432386Y224324D01*
X-432419Y224394D01*
X-432448Y224467D01*
X-432473Y224540D01*
X-432495Y224615D01*
X-432512Y224691D01*
X-432526Y224767D01*
X-432536Y224845D01*
X-432542Y224922D01*
X-432544Y225000D01*
X818476Y395000D02*
X818478Y395078D01*
X818484Y395155D01*
X818494Y395233D01*
X818508Y395309D01*
X818525Y395385D01*
X818547Y395460D01*
X818572Y395533D01*
X818601Y395606D01*
X818634Y395676D01*
X818671Y395745D01*
X818710Y395812D01*
X818753Y395877D01*
X818800Y395939D01*
X818849Y395999D01*
X818902Y396057D01*
X818957Y396111D01*
X819015Y396163D01*
X819076Y396212D01*
X819139Y396258D01*
X819205Y396300D01*
X819272Y396339D01*
X819341Y396374D01*
X819412Y396406D01*
X819485Y396434D01*
X819559Y396459D01*
X819634Y396479D01*
X819710Y396496D01*
X819787Y396509D01*
X819864Y396518D01*
X819942Y396523D01*
X820019Y396524D01*
X820097Y396521D01*
X820175Y396514D01*
X820252Y396503D01*
X820328Y396488D01*
X820404Y396470D01*
X820478Y396447D01*
X820552Y396421D01*
X820623Y396391D01*
X820694Y396357D01*
X820762Y396320D01*
X820828Y396279D01*
X820893Y396235D01*
X820955Y396188D01*
X821014Y396138D01*
X821071Y396084D01*
X821125Y396028D01*
X821176Y395970D01*
X821224Y395908D01*
X821269Y395845D01*
X821310Y395779D01*
X821348Y395711D01*
X821383Y395641D01*
X821414Y395570D01*
X821441Y395497D01*
X821464Y395423D01*
X821484Y395347D01*
X821500Y395271D01*
X821512Y395194D01*
X821520Y395117D01*
X821524Y395039D01*
X821524Y394961D01*
X821520Y394883D01*
X821512Y394806D01*
X821500Y394729D01*
X821484Y394653D01*
X821464Y394577D01*
X821441Y394503D01*
X821414Y394430D01*
X821383Y394359D01*
X821348Y394289D01*
X821310Y394221D01*
X821269Y394155D01*
X821224Y394092D01*
X821176Y394030D01*
X821125Y393972D01*
X821071Y393916D01*
X821014Y393862D01*
X820955Y393812D01*
X820893Y393765D01*
X820828Y393721D01*
X820762Y393680D01*
X820694Y393643D01*
X820623Y393609D01*
X820552Y393579D01*
X820478Y393553D01*
X820404Y393530D01*
X820328Y393512D01*
X820252Y393497D01*
X820175Y393486D01*
X820097Y393479D01*
X820019Y393476D01*
X819942Y393477D01*
X819864Y393482D01*
X819787Y393491D01*
X819710Y393504D01*
X819634Y393521D01*
X819559Y393541D01*
X819485Y393566D01*
X819412Y393594D01*
X819341Y393626D01*
X819272Y393661D01*
X819205Y393700D01*
X819139Y393742D01*
X819076Y393788D01*
X819015Y393837D01*
X818957Y393889D01*
X818902Y393943D01*
X818849Y394001D01*
X818800Y394061D01*
X818753Y394123D01*
X818710Y394188D01*
X818671Y394255D01*
X818634Y394324D01*
X818601Y394394D01*
X818572Y394467D01*
X818547Y394540D01*
X818525Y394615D01*
X818508Y394691D01*
X818494Y394767D01*
X818484Y394845D01*
X818478Y394922D01*
X818476Y395000D01*
D11*
X-481020Y424680D02*
X-481020Y-424680D01*
X-481014Y-425171D01*
X-480996Y-425662D01*
X-480967Y-426152D01*
X-480925Y-426641D01*
X-480872Y-427129D01*
X-480807Y-427616D01*
X-480730Y-428101D01*
X-480641Y-428584D01*
X-480541Y-429065D01*
X-480430Y-429543D01*
X-480306Y-430018D01*
X-480172Y-430490D01*
X-480025Y-430959D01*
X-479868Y-431424D01*
X-479700Y-431886D01*
X-479520Y-432343D01*
X-479329Y-432795D01*
X-479128Y-433243D01*
X-478915Y-433686D01*
X-478692Y-434123D01*
X-478459Y-434555D01*
X-478215Y-434981D01*
X-477961Y-435402D01*
X-477697Y-435816D01*
X-477423Y-436223D01*
X-477139Y-436624D01*
X-476846Y-437018D01*
X-476543Y-437404D01*
X-476231Y-437783D01*
X-475910Y-438155D01*
X-475580Y-438518D01*
X-475241Y-438874D01*
X-474894Y-439221D01*
X-474538Y-439560D01*
X-474175Y-439890D01*
X-473803Y-440211D01*
X-473424Y-440523D01*
X-473038Y-440826D01*
X-472644Y-441119D01*
X-472243Y-441403D01*
X-471836Y-441677D01*
X-471422Y-441941D01*
X-471001Y-442195D01*
X-470575Y-442439D01*
X-470143Y-442672D01*
X-469706Y-442895D01*
X-469263Y-443108D01*
X-468815Y-443309D01*
X-468363Y-443500D01*
X-467906Y-443680D01*
X-467444Y-443848D01*
X-466979Y-444005D01*
X-466510Y-444152D01*
X-466038Y-444286D01*
X-465563Y-444410D01*
X-465085Y-444521D01*
X-464604Y-444621D01*
X-464121Y-444710D01*
X-463636Y-444787D01*
X-463149Y-444852D01*
X-462661Y-444905D01*
X-462172Y-444947D01*
X-461682Y-444976D01*
X-461191Y-444994D01*
X-460700Y-445000D01*
X259180Y-445000D01*
X259671Y-444994D01*
X260162Y-444976D01*
X260652Y-444947D01*
X261141Y-444905D01*
X261629Y-444852D01*
X262116Y-444787D01*
X262601Y-444710D01*
X263084Y-444621D01*
X263565Y-444521D01*
X264043Y-444410D01*
X264518Y-444286D01*
X264990Y-444152D01*
X265459Y-444005D01*
X265924Y-443848D01*
X266386Y-443680D01*
X266843Y-443500D01*
X267295Y-443309D01*
X267743Y-443108D01*
X268186Y-442895D01*
X268623Y-442672D01*
X269055Y-442439D01*
X269481Y-442195D01*
X269902Y-441941D01*
X270316Y-441677D01*
X270723Y-441403D01*
X271124Y-441119D01*
X271518Y-440826D01*
X271904Y-440523D01*
X272283Y-440211D01*
X272655Y-439890D01*
X273018Y-439560D01*
X273374Y-439221D01*
X273721Y-438874D01*
X274060Y-438518D01*
X274390Y-438155D01*
X274711Y-437783D01*
X275023Y-437404D01*
X275326Y-437018D01*
X275619Y-436624D01*
X275903Y-436223D01*
X276177Y-435816D01*
X276441Y-435402D01*
X276695Y-434981D01*
X276939Y-434555D01*
X277172Y-434123D01*
X277395Y-433686D01*
X277608Y-433243D01*
X277809Y-432795D01*
X278000Y-432343D01*
X278180Y-431886D01*
X278348Y-431424D01*
X278505Y-430959D01*
X278652Y-430490D01*
X278786Y-430018D01*
X278910Y-429543D01*
X279021Y-429065D01*
X279121Y-428584D01*
X279210Y-428101D01*
X279287Y-427616D01*
X279352Y-427129D01*
X279405Y-426641D01*
X279447Y-426152D01*
X279476Y-425662D01*
X279494Y-425171D01*
X279500Y-424680D01*
X279500Y-245534D01*
X279506Y-245043D01*
X279524Y-244552D01*
X279553Y-244062D01*
X279595Y-243573D01*
X279648Y-243085D01*
X279713Y-242598D01*
X279790Y-242113D01*
X279879Y-241630D01*
X279979Y-241149D01*
X280090Y-240671D01*
X280214Y-240196D01*
X280348Y-239724D01*
X280495Y-239255D01*
X280652Y-238790D01*
X280820Y-238328D01*
X281000Y-237871D01*
X281191Y-237419D01*
X281392Y-236971D01*
X281605Y-236528D01*
X281828Y-236091D01*
X282061Y-235659D01*
X282305Y-235233D01*
X282559Y-234812D01*
X282823Y-234398D01*
X283097Y-233991D01*
X283381Y-233590D01*
X283674Y-233196D01*
X283977Y-232810D01*
X284289Y-232431D01*
X284610Y-232059D01*
X284940Y-231696D01*
X285279Y-231340D01*
X285626Y-230993D01*
X285982Y-230654D01*
X286345Y-230324D01*
X286717Y-230003D01*
X287096Y-229691D01*
X287482Y-229388D01*
X287876Y-229095D01*
X288277Y-228811D01*
X288684Y-228537D01*
X289098Y-228273D01*
X289519Y-228019D01*
X289945Y-227775D01*
X290377Y-227542D01*
X290814Y-227319D01*
X291257Y-227106D01*
X291705Y-226905D01*
X292157Y-226714D01*
X292614Y-226534D01*
X293076Y-226366D01*
X293541Y-226209D01*
X294010Y-226062D01*
X294482Y-225928D01*
X294957Y-225804D01*
X295435Y-225693D01*
X295916Y-225593D01*
X296399Y-225504D01*
X296884Y-225427D01*
X297371Y-225362D01*
X297859Y-225309D01*
X298348Y-225267D01*
X298838Y-225238D01*
X299329Y-225220D01*
X299820Y-225214D01*
X494180Y-225214D01*
X494671Y-225220D01*
X495162Y-225238D01*
X495652Y-225267D01*
X496141Y-225309D01*
X496629Y-225362D01*
X497116Y-225427D01*
X497601Y-225504D01*
X498084Y-225593D01*
X498565Y-225693D01*
X499043Y-225804D01*
X499518Y-225928D01*
X499990Y-226062D01*
X500459Y-226209D01*
X500924Y-226366D01*
X501386Y-226534D01*
X501843Y-226714D01*
X502295Y-226905D01*
X502743Y-227106D01*
X503186Y-227319D01*
X503623Y-227542D01*
X504055Y-227775D01*
X504481Y-228019D01*
X504902Y-228273D01*
X505316Y-228537D01*
X505723Y-228811D01*
X506124Y-229095D01*
X506518Y-229388D01*
X506904Y-229691D01*
X507283Y-230003D01*
X507655Y-230324D01*
X508018Y-230654D01*
X508374Y-230993D01*
X508721Y-231340D01*
X509060Y-231696D01*
X509390Y-232059D01*
X509711Y-232431D01*
X510023Y-232810D01*
X510326Y-233196D01*
X510619Y-233590D01*
X510903Y-233991D01*
X511177Y-234398D01*
X511441Y-234812D01*
X511695Y-235233D01*
X511939Y-235659D01*
X512172Y-236091D01*
X512395Y-236528D01*
X512608Y-236971D01*
X512809Y-237419D01*
X513000Y-237871D01*
X513180Y-238328D01*
X513348Y-238790D01*
X513505Y-239255D01*
X513652Y-239724D01*
X513786Y-240196D01*
X513910Y-240671D01*
X514021Y-241149D01*
X514121Y-241630D01*
X514210Y-242113D01*
X514287Y-242598D01*
X514352Y-243085D01*
X514405Y-243573D01*
X514447Y-244062D01*
X514476Y-244552D01*
X514494Y-245043D01*
X514500Y-245534D01*
X514500Y-424680D01*
X514506Y-425171D01*
X514524Y-425662D01*
X514553Y-426152D01*
X514595Y-426641D01*
X514648Y-427129D01*
X514713Y-427616D01*
X514790Y-428101D01*
X514879Y-428584D01*
X514979Y-429065D01*
X515090Y-429543D01*
X515214Y-430018D01*
X515348Y-430490D01*
X515495Y-430959D01*
X515652Y-431424D01*
X515820Y-431886D01*
X516000Y-432343D01*
X516191Y-432795D01*
X516392Y-433243D01*
X516605Y-433686D01*
X516828Y-434123D01*
X517061Y-434555D01*
X517305Y-434981D01*
X517559Y-435402D01*
X517823Y-435816D01*
X518097Y-436223D01*
X518381Y-436624D01*
X518674Y-437018D01*
X518977Y-437404D01*
X519289Y-437783D01*
X519610Y-438155D01*
X519940Y-438518D01*
X520279Y-438874D01*
X520626Y-439221D01*
X520982Y-439560D01*
X521345Y-439890D01*
X521717Y-440211D01*
X522096Y-440523D01*
X522482Y-440826D01*
X522876Y-441119D01*
X523277Y-441403D01*
X523684Y-441677D01*
X524098Y-441941D01*
X524519Y-442195D01*
X524945Y-442439D01*
X525377Y-442672D01*
X525814Y-442895D01*
X526257Y-443108D01*
X526705Y-443309D01*
X527157Y-443500D01*
X527614Y-443680D01*
X528076Y-443848D01*
X528541Y-444005D01*
X529010Y-444152D01*
X529482Y-444286D01*
X529957Y-444410D01*
X530435Y-444521D01*
X530916Y-444621D01*
X531399Y-444710D01*
X531884Y-444787D01*
X532371Y-444852D01*
X532859Y-444905D01*
X533348Y-444947D01*
X533838Y-444976D01*
X534329Y-444994D01*
X534820Y-445000D01*
X620000Y-445000D01*
X626041Y-444927D01*
X632078Y-444708D01*
X638109Y-444343D01*
X644128Y-443833D01*
X650134Y-443177D01*
X656122Y-442377D01*
X662089Y-441432D01*
X668032Y-440343D01*
X673946Y-439110D01*
X679829Y-437735D01*
X685677Y-436219D01*
X691486Y-434561D01*
X697254Y-432764D01*
X702977Y-430828D01*
X708651Y-428754D01*
X714274Y-426544D01*
X719841Y-424198D01*
X725350Y-421719D01*
X730798Y-419107D01*
X736181Y-416364D01*
X741496Y-413492D01*
X746740Y-410492D01*
X751910Y-407367D01*
X757003Y-404118D01*
X762016Y-400746D01*
X766946Y-397254D01*
X771791Y-393644D01*
X776546Y-389919D01*
X781211Y-386079D01*
X785781Y-382128D01*
X790254Y-378067D01*
X794628Y-373900D01*
X798900Y-369628D01*
X803067Y-365254D01*
X807128Y-360781D01*
X811079Y-356211D01*
X814919Y-351546D01*
X818644Y-346791D01*
X822254Y-341946D01*
X825746Y-337016D01*
X829118Y-332003D01*
X832367Y-326910D01*
X835492Y-321740D01*
X838492Y-316496D01*
X841364Y-311181D01*
X844107Y-305798D01*
X846719Y-300350D01*
X849198Y-294841D01*
X851544Y-289274D01*
X853754Y-283651D01*
X855828Y-277977D01*
X857764Y-272254D01*
X859561Y-266486D01*
X861219Y-260677D01*
X862735Y-254829D01*
X864110Y-248946D01*
X865343Y-243032D01*
X866432Y-237089D01*
X867377Y-231122D01*
X868177Y-225134D01*
X868833Y-219128D01*
X869343Y-213109D01*
X869708Y-207078D01*
X869927Y-201041D01*
X870000Y-195000D01*
X870000Y424680D01*
X869994Y425171D01*
X869976Y425662D01*
X869947Y426152D01*
X869905Y426641D01*
X869852Y427129D01*
X869787Y427616D01*
X869710Y428101D01*
X869621Y428584D01*
X869521Y429065D01*
X869410Y429543D01*
X869286Y430018D01*
X869152Y430490D01*
X869005Y430959D01*
X868848Y431424D01*
X868680Y431886D01*
X868500Y432343D01*
X868309Y432795D01*
X868108Y433243D01*
X867895Y433686D01*
X867672Y434123D01*
X867439Y434555D01*
X867195Y434981D01*
X866941Y435402D01*
X866677Y435816D01*
X866403Y436223D01*
X866119Y436624D01*
X865826Y437018D01*
X865523Y437404D01*
X865211Y437783D01*
X864890Y438155D01*
X864560Y438518D01*
X864221Y438874D01*
X863874Y439221D01*
X863518Y439560D01*
X863155Y439890D01*
X862783Y440211D01*
X862404Y440523D01*
X862018Y440826D01*
X861624Y441119D01*
X861223Y441403D01*
X860816Y441677D01*
X860402Y441941D01*
X859981Y442195D01*
X859555Y442439D01*
X859123Y442672D01*
X858686Y442895D01*
X858243Y443108D01*
X857795Y443309D01*
X857343Y443500D01*
X856886Y443680D01*
X856424Y443848D01*
X855959Y444005D01*
X855490Y444152D01*
X855018Y444286D01*
X854543Y444410D01*
X854065Y444521D01*
X853584Y444621D01*
X853101Y444710D01*
X852616Y444787D01*
X852129Y444852D01*
X851641Y444905D01*
X851152Y444947D01*
X850662Y444976D01*
X850171Y444994D01*
X849680Y445000D01*
X-460700Y445000D01*
X-461191Y444994D01*
X-461682Y444976D01*
X-462172Y444947D01*
X-462661Y444905D01*
X-463149Y444852D01*
X-463636Y444787D01*
X-464121Y444710D01*
X-464604Y444621D01*
X-465085Y444521D01*
X-465563Y444410D01*
X-466038Y444286D01*
X-466510Y444152D01*
X-466979Y444005D01*
X-467444Y443848D01*
X-467906Y443680D01*
X-468363Y443500D01*
X-468815Y443309D01*
X-469263Y443108D01*
X-469706Y442895D01*
X-470143Y442672D01*
X-470575Y442439D01*
X-471001Y442195D01*
X-471422Y441941D01*
X-471836Y441677D01*
X-472243Y441403D01*
X-472644Y441119D01*
X-473038Y440826D01*
X-473424Y440523D01*
X-473803Y440211D01*
X-474175Y439890D01*
X-474538Y439560D01*
X-474894Y439221D01*
X-475241Y438874D01*
X-475580Y438518D01*
X-475910Y438155D01*
X-476231Y437783D01*
X-476543Y437404D01*
X-476846Y437018D01*
X-477139Y436624D01*
X-477423Y436223D01*
X-477697Y435816D01*
X-477961Y435402D01*
X-478215Y434981D01*
X-478459Y434555D01*
X-478692Y434123D01*
X-478915Y433686D01*
X-479128Y433243D01*
X-479329Y432795D01*
X-479520Y432343D01*
X-479700Y431886D01*
X-479868Y431424D01*
X-480025Y430959D01*
X-480172Y430490D01*
X-480306Y430018D01*
X-480430Y429543D01*
X-480541Y429065D01*
X-480641Y428584D01*
X-480730Y428101D01*
X-480807Y427616D01*
X-480872Y427129D01*
X-480925Y426641D01*
X-480967Y426152D01*
X-480996Y425662D01*
X-481014Y425171D01*
X-481020Y424680D01*
D10*
X-380908Y-107288D02*
X-380904Y-106992D01*
X-380893Y-106697D01*
X-380875Y-106402D01*
X-380850Y-106107D01*
X-380817Y-105813D01*
X-380778Y-105520D01*
X-380731Y-105228D01*
X-380676Y-104937D01*
X-380615Y-104648D01*
X-380547Y-104360D01*
X-380472Y-104074D01*
X-380389Y-103790D01*
X-380300Y-103508D01*
X-380204Y-103228D01*
X-380101Y-102951D01*
X-379991Y-102677D01*
X-379874Y-102405D01*
X-379751Y-102136D01*
X-379621Y-101870D01*
X-379485Y-101608D01*
X-379343Y-101349D01*
X-379194Y-101093D01*
X-379038Y-100841D01*
X-378877Y-100593D01*
X-378710Y-100350D01*
X-378537Y-100110D01*
X-378358Y-99874D01*
X-378173Y-99644D01*
X-377982Y-99417D01*
X-377786Y-99196D01*
X-377585Y-98979D01*
X-377379Y-98767D01*
X-377167Y-98561D01*
X-376950Y-98360D01*
X-376729Y-98164D01*
X-376502Y-97973D01*
X-376272Y-97788D01*
X-376036Y-97609D01*
X-375796Y-97436D01*
X-375553Y-97269D01*
X-375305Y-97108D01*
X-375053Y-96952D01*
X-374797Y-96803D01*
X-374538Y-96661D01*
X-374276Y-96525D01*
X-374010Y-96395D01*
X-373741Y-96272D01*
X-373469Y-96155D01*
X-373195Y-96045D01*
X-372918Y-95942D01*
X-372638Y-95846D01*
X-372356Y-95757D01*
X-372072Y-95674D01*
X-371786Y-95599D01*
X-371498Y-95531D01*
X-371209Y-95470D01*
X-370918Y-95415D01*
X-370626Y-95368D01*
X-370333Y-95329D01*
X-370039Y-95296D01*
X-369744Y-95271D01*
X-369449Y-95253D01*
X-369154Y-95242D01*
X-368858Y-95238D01*
X-368562Y-95242D01*
X-368267Y-95253D01*
X-367972Y-95271D01*
X-367677Y-95296D01*
X-367383Y-95329D01*
X-367090Y-95368D01*
X-366798Y-95415D01*
X-366507Y-95470D01*
X-366218Y-95531D01*
X-365930Y-95599D01*
X-365644Y-95674D01*
X-365360Y-95757D01*
X-365078Y-95846D01*
X-364798Y-95942D01*
X-364521Y-96045D01*
X-364247Y-96155D01*
X-363975Y-96272D01*
X-363706Y-96395D01*
X-363440Y-96525D01*
X-363178Y-96661D01*
X-362919Y-96803D01*
X-362663Y-96952D01*
X-362411Y-97108D01*
X-362163Y-97269D01*
X-361920Y-97436D01*
X-361680Y-97609D01*
X-361444Y-97788D01*
X-361214Y-97973D01*
X-360987Y-98164D01*
X-360766Y-98360D01*
X-360549Y-98561D01*
X-360337Y-98767D01*
X-360131Y-98979D01*
X-359930Y-99196D01*
X-359734Y-99417D01*
X-359543Y-99644D01*
X-359358Y-99874D01*
X-359179Y-100110D01*
X-359006Y-100350D01*
X-358839Y-100593D01*
X-358678Y-100841D01*
X-358522Y-101093D01*
X-358373Y-101349D01*
X-358231Y-101608D01*
X-358095Y-101870D01*
X-357965Y-102136D01*
X-357842Y-102405D01*
X-357725Y-102677D01*
X-357615Y-102951D01*
X-357512Y-103228D01*
X-357416Y-103508D01*
X-357327Y-103790D01*
X-357244Y-104074D01*
X-357169Y-104360D01*
X-357101Y-104648D01*
X-357040Y-104937D01*
X-356985Y-105228D01*
X-356938Y-105520D01*
X-356899Y-105813D01*
X-356866Y-106107D01*
X-356841Y-106402D01*
X-356823Y-106697D01*
X-356812Y-106992D01*
X-356808Y-107288D01*
X-356812Y-107584D01*
X-356823Y-107879D01*
X-356841Y-108174D01*
X-356866Y-108469D01*
X-356899Y-108763D01*
X-356938Y-109056D01*
X-356985Y-109348D01*
X-357040Y-109639D01*
X-357101Y-109928D01*
X-357169Y-110216D01*
X-357244Y-110502D01*
X-357327Y-110786D01*
X-357416Y-111068D01*
X-357512Y-111348D01*
X-357615Y-111625D01*
X-357725Y-111899D01*
X-357842Y-112171D01*
X-357965Y-112440D01*
X-358095Y-112706D01*
X-358231Y-112968D01*
X-358373Y-113227D01*
X-358522Y-113483D01*
X-358678Y-113735D01*
X-358839Y-113983D01*
X-359006Y-114226D01*
X-359179Y-114466D01*
X-359358Y-114702D01*
X-359543Y-114932D01*
X-359734Y-115159D01*
X-359930Y-115380D01*
X-360131Y-115597D01*
X-360337Y-115809D01*
X-360549Y-116015D01*
X-360766Y-116216D01*
X-360987Y-116412D01*
X-361214Y-116603D01*
X-361444Y-116788D01*
X-361680Y-116967D01*
X-361920Y-117140D01*
X-362163Y-117307D01*
X-362411Y-117468D01*
X-362663Y-117624D01*
X-362919Y-117773D01*
X-363178Y-117915D01*
X-363440Y-118051D01*
X-363706Y-118181D01*
X-363975Y-118304D01*
X-364247Y-118421D01*
X-364521Y-118531D01*
X-364798Y-118634D01*
X-365078Y-118730D01*
X-365360Y-118819D01*
X-365644Y-118902D01*
X-365930Y-118977D01*
X-366218Y-119045D01*
X-366507Y-119106D01*
X-366798Y-119161D01*
X-367090Y-119208D01*
X-367383Y-119247D01*
X-367677Y-119280D01*
X-367972Y-119305D01*
X-368267Y-119323D01*
X-368562Y-119334D01*
X-368858Y-119338D01*
X-369154Y-119334D01*
X-369449Y-119323D01*
X-369744Y-119305D01*
X-370039Y-119280D01*
X-370333Y-119247D01*
X-370626Y-119208D01*
X-370918Y-119161D01*
X-371209Y-119106D01*
X-371498Y-119045D01*
X-371786Y-118977D01*
X-372072Y-118902D01*
X-372356Y-118819D01*
X-372638Y-118730D01*
X-372918Y-118634D01*
X-373195Y-118531D01*
X-373469Y-118421D01*
X-373741Y-118304D01*
X-374010Y-118181D01*
X-374276Y-118051D01*
X-374538Y-117915D01*
X-374797Y-117773D01*
X-375053Y-117624D01*
X-375305Y-117468D01*
X-375553Y-117307D01*
X-375796Y-117140D01*
X-376036Y-116967D01*
X-376272Y-116788D01*
X-376502Y-116603D01*
X-376729Y-116412D01*
X-376950Y-116216D01*
X-377167Y-116015D01*
X-377379Y-115809D01*
X-377585Y-115597D01*
X-377786Y-115380D01*
X-377982Y-115159D01*
X-378173Y-114932D01*
X-378358Y-114702D01*
X-378537Y-114466D01*
X-378710Y-114226D01*
X-378877Y-113983D01*
X-379038Y-113735D01*
X-379194Y-113483D01*
X-379343Y-113227D01*
X-379485Y-112968D01*
X-379621Y-112706D01*
X-379751Y-112440D01*
X-379874Y-112171D01*
X-379991Y-111899D01*
X-380101Y-111625D01*
X-380204Y-111348D01*
X-380300Y-111068D01*
X-380389Y-110786D01*
X-380472Y-110502D01*
X-380547Y-110216D01*
X-380615Y-109928D01*
X-380676Y-109639D01*
X-380731Y-109348D01*
X-380778Y-109056D01*
X-380817Y-108763D01*
X-380850Y-108469D01*
X-380875Y-108174D01*
X-380893Y-107879D01*
X-380904Y-107584D01*
X-380908Y-107288D01*
X609670Y-352030D02*
X609674Y-351734D01*
X609685Y-351439D01*
X609703Y-351144D01*
X609728Y-350849D01*
X609761Y-350555D01*
X609800Y-350262D01*
X609847Y-349970D01*
X609902Y-349679D01*
X609963Y-349390D01*
X610031Y-349102D01*
X610106Y-348816D01*
X610189Y-348532D01*
X610278Y-348250D01*
X610374Y-347970D01*
X610477Y-347693D01*
X610587Y-347419D01*
X610704Y-347147D01*
X610827Y-346878D01*
X610957Y-346612D01*
X611093Y-346350D01*
X611235Y-346091D01*
X611384Y-345835D01*
X611540Y-345583D01*
X611701Y-345335D01*
X611868Y-345092D01*
X612041Y-344852D01*
X612220Y-344616D01*
X612405Y-344386D01*
X612596Y-344159D01*
X612792Y-343938D01*
X612993Y-343721D01*
X613199Y-343509D01*
X613411Y-343303D01*
X613628Y-343102D01*
X613849Y-342906D01*
X614076Y-342715D01*
X614306Y-342530D01*
X614542Y-342351D01*
X614782Y-342178D01*
X615025Y-342011D01*
X615273Y-341850D01*
X615525Y-341694D01*
X615781Y-341545D01*
X616040Y-341403D01*
X616302Y-341267D01*
X616568Y-341137D01*
X616837Y-341014D01*
X617109Y-340897D01*
X617383Y-340787D01*
X617660Y-340684D01*
X617940Y-340588D01*
X618222Y-340499D01*
X618506Y-340416D01*
X618792Y-340341D01*
X619080Y-340273D01*
X619369Y-340212D01*
X619660Y-340157D01*
X619952Y-340110D01*
X620245Y-340071D01*
X620539Y-340038D01*
X620834Y-340013D01*
X621129Y-339995D01*
X621424Y-339984D01*
X621720Y-339980D01*
X622016Y-339984D01*
X622311Y-339995D01*
X622606Y-340013D01*
X622901Y-340038D01*
X623195Y-340071D01*
X623488Y-340110D01*
X623780Y-340157D01*
X624071Y-340212D01*
X624360Y-340273D01*
X624648Y-340341D01*
X624934Y-340416D01*
X625218Y-340499D01*
X625500Y-340588D01*
X625780Y-340684D01*
X626057Y-340787D01*
X626331Y-340897D01*
X626603Y-341014D01*
X626872Y-341137D01*
X627138Y-341267D01*
X627400Y-341403D01*
X627659Y-341545D01*
X627915Y-341694D01*
X628167Y-341850D01*
X628415Y-342011D01*
X628658Y-342178D01*
X628898Y-342351D01*
X629134Y-342530D01*
X629364Y-342715D01*
X629591Y-342906D01*
X629812Y-343102D01*
X630029Y-343303D01*
X630241Y-343509D01*
X630447Y-343721D01*
X630648Y-343938D01*
X630844Y-344159D01*
X631035Y-344386D01*
X631220Y-344616D01*
X631399Y-344852D01*
X631572Y-345092D01*
X631739Y-345335D01*
X631900Y-345583D01*
X632056Y-345835D01*
X632205Y-346091D01*
X632347Y-346350D01*
X632483Y-346612D01*
X632613Y-346878D01*
X632736Y-347147D01*
X632853Y-347419D01*
X632963Y-347693D01*
X633066Y-347970D01*
X633162Y-348250D01*
X633251Y-348532D01*
X633334Y-348816D01*
X633409Y-349102D01*
X633477Y-349390D01*
X633538Y-349679D01*
X633593Y-349970D01*
X633640Y-350262D01*
X633679Y-350555D01*
X633712Y-350849D01*
X633737Y-351144D01*
X633755Y-351439D01*
X633766Y-351734D01*
X633770Y-352030D01*
X633766Y-352326D01*
X633755Y-352621D01*
X633737Y-352916D01*
X633712Y-353211D01*
X633679Y-353505D01*
X633640Y-353798D01*
X633593Y-354090D01*
X633538Y-354381D01*
X633477Y-354670D01*
X633409Y-354958D01*
X633334Y-355244D01*
X633251Y-355528D01*
X633162Y-355810D01*
X633066Y-356090D01*
X632963Y-356367D01*
X632853Y-356641D01*
X632736Y-356913D01*
X632613Y-357182D01*
X632483Y-357448D01*
X632347Y-357710D01*
X632205Y-357969D01*
X632056Y-358225D01*
X631900Y-358477D01*
X631739Y-358725D01*
X631572Y-358968D01*
X631399Y-359208D01*
X631220Y-359444D01*
X631035Y-359674D01*
X630844Y-359901D01*
X630648Y-360122D01*
X630447Y-360339D01*
X630241Y-360551D01*
X630029Y-360757D01*
X629812Y-360958D01*
X629591Y-361154D01*
X629364Y-361345D01*
X629134Y-361530D01*
X628898Y-361709D01*
X628658Y-361882D01*
X628415Y-362049D01*
X628167Y-362210D01*
X627915Y-362366D01*
X627659Y-362515D01*
X627400Y-362657D01*
X627138Y-362793D01*
X626872Y-362923D01*
X626603Y-363046D01*
X626331Y-363163D01*
X626057Y-363273D01*
X625780Y-363376D01*
X625500Y-363472D01*
X625218Y-363561D01*
X624934Y-363644D01*
X624648Y-363719D01*
X624360Y-363787D01*
X624071Y-363848D01*
X623780Y-363903D01*
X623488Y-363950D01*
X623195Y-363989D01*
X622901Y-364022D01*
X622606Y-364047D01*
X622311Y-364065D01*
X622016Y-364076D01*
X621720Y-364080D01*
X621424Y-364076D01*
X621129Y-364065D01*
X620834Y-364047D01*
X620539Y-364022D01*
X620245Y-363989D01*
X619952Y-363950D01*
X619660Y-363903D01*
X619369Y-363848D01*
X619080Y-363787D01*
X618792Y-363719D01*
X618506Y-363644D01*
X618222Y-363561D01*
X617940Y-363472D01*
X617660Y-363376D01*
X617383Y-363273D01*
X617109Y-363163D01*
X616837Y-363046D01*
X616568Y-362923D01*
X616302Y-362793D01*
X616040Y-362657D01*
X615781Y-362515D01*
X615525Y-362366D01*
X615273Y-362210D01*
X615025Y-362049D01*
X614782Y-361882D01*
X614542Y-361709D01*
X614306Y-361530D01*
X614076Y-361345D01*
X613849Y-361154D01*
X613628Y-360958D01*
X613411Y-360757D01*
X613199Y-360551D01*
X612993Y-360339D01*
X612792Y-360122D01*
X612596Y-359901D01*
X612405Y-359674D01*
X612220Y-359444D01*
X612041Y-359208D01*
X611868Y-358968D01*
X611701Y-358725D01*
X611540Y-358477D01*
X611384Y-358225D01*
X611235Y-357969D01*
X611093Y-357710D01*
X610957Y-357448D01*
X610827Y-357182D01*
X610704Y-356913D01*
X610587Y-356641D01*
X610477Y-356367D01*
X610374Y-356090D01*
X610278Y-355810D01*
X610189Y-355528D01*
X610106Y-355244D01*
X610031Y-354958D01*
X609963Y-354670D01*
X609902Y-354381D01*
X609847Y-354090D01*
X609800Y-353798D01*
X609761Y-353505D01*
X609728Y-353211D01*
X609703Y-352916D01*
X609685Y-352621D01*
X609674Y-352326D01*
X609670Y-352030D01*
X-380970Y-218812D02*
X-380966Y-218516D01*
X-380955Y-218221D01*
X-380937Y-217926D01*
X-380912Y-217631D01*
X-380879Y-217337D01*
X-380840Y-217044D01*
X-380793Y-216752D01*
X-380738Y-216461D01*
X-380677Y-216172D01*
X-380609Y-215884D01*
X-380534Y-215598D01*
X-380451Y-215314D01*
X-380362Y-215032D01*
X-380266Y-214752D01*
X-380163Y-214475D01*
X-380053Y-214201D01*
X-379936Y-213929D01*
X-379813Y-213660D01*
X-379683Y-213394D01*
X-379547Y-213132D01*
X-379405Y-212873D01*
X-379256Y-212617D01*
X-379100Y-212365D01*
X-378939Y-212117D01*
X-378772Y-211874D01*
X-378599Y-211634D01*
X-378420Y-211398D01*
X-378235Y-211168D01*
X-378044Y-210941D01*
X-377848Y-210720D01*
X-377647Y-210503D01*
X-377441Y-210291D01*
X-377229Y-210085D01*
X-377012Y-209884D01*
X-376791Y-209688D01*
X-376564Y-209497D01*
X-376334Y-209312D01*
X-376098Y-209133D01*
X-375858Y-208960D01*
X-375615Y-208793D01*
X-375367Y-208632D01*
X-375115Y-208476D01*
X-374859Y-208327D01*
X-374600Y-208185D01*
X-374338Y-208049D01*
X-374072Y-207919D01*
X-373803Y-207796D01*
X-373531Y-207679D01*
X-373257Y-207569D01*
X-372980Y-207466D01*
X-372700Y-207370D01*
X-372418Y-207281D01*
X-372134Y-207198D01*
X-371848Y-207123D01*
X-371560Y-207055D01*
X-371271Y-206994D01*
X-370980Y-206939D01*
X-370688Y-206892D01*
X-370395Y-206853D01*
X-370101Y-206820D01*
X-369806Y-206795D01*
X-369511Y-206777D01*
X-369216Y-206766D01*
X-368920Y-206762D01*
X-368624Y-206766D01*
X-368329Y-206777D01*
X-368034Y-206795D01*
X-367739Y-206820D01*
X-367445Y-206853D01*
X-367152Y-206892D01*
X-366860Y-206939D01*
X-366569Y-206994D01*
X-366280Y-207055D01*
X-365992Y-207123D01*
X-365706Y-207198D01*
X-365422Y-207281D01*
X-365140Y-207370D01*
X-364860Y-207466D01*
X-364583Y-207569D01*
X-364309Y-207679D01*
X-364037Y-207796D01*
X-363768Y-207919D01*
X-363502Y-208049D01*
X-363240Y-208185D01*
X-362981Y-208327D01*
X-362725Y-208476D01*
X-362473Y-208632D01*
X-362225Y-208793D01*
X-361982Y-208960D01*
X-361742Y-209133D01*
X-361506Y-209312D01*
X-361276Y-209497D01*
X-361049Y-209688D01*
X-360828Y-209884D01*
X-360611Y-210085D01*
X-360399Y-210291D01*
X-360193Y-210503D01*
X-359992Y-210720D01*
X-359796Y-210941D01*
X-359605Y-211168D01*
X-359420Y-211398D01*
X-359241Y-211634D01*
X-359068Y-211874D01*
X-358901Y-212117D01*
X-358740Y-212365D01*
X-358584Y-212617D01*
X-358435Y-212873D01*
X-358293Y-213132D01*
X-358157Y-213394D01*
X-358027Y-213660D01*
X-357904Y-213929D01*
X-357787Y-214201D01*
X-357677Y-214475D01*
X-357574Y-214752D01*
X-357478Y-215032D01*
X-357389Y-215314D01*
X-357306Y-215598D01*
X-357231Y-215884D01*
X-357163Y-216172D01*
X-357102Y-216461D01*
X-357047Y-216752D01*
X-357000Y-217044D01*
X-356961Y-217337D01*
X-356928Y-217631D01*
X-356903Y-217926D01*
X-356885Y-218221D01*
X-356874Y-218516D01*
X-356870Y-218812D01*
X-356874Y-219108D01*
X-356885Y-219403D01*
X-356903Y-219698D01*
X-356928Y-219993D01*
X-356961Y-220287D01*
X-357000Y-220580D01*
X-357047Y-220872D01*
X-357102Y-221163D01*
X-357163Y-221452D01*
X-357231Y-221740D01*
X-357306Y-222026D01*
X-357389Y-222310D01*
X-357478Y-222592D01*
X-357574Y-222872D01*
X-357677Y-223149D01*
X-357787Y-223423D01*
X-357904Y-223695D01*
X-358027Y-223964D01*
X-358157Y-224230D01*
X-358293Y-224492D01*
X-358435Y-224751D01*
X-358584Y-225007D01*
X-358740Y-225259D01*
X-358901Y-225507D01*
X-359068Y-225750D01*
X-359241Y-225990D01*
X-359420Y-226226D01*
X-359605Y-226456D01*
X-359796Y-226683D01*
X-359992Y-226904D01*
X-360193Y-227121D01*
X-360399Y-227333D01*
X-360611Y-227539D01*
X-360828Y-227740D01*
X-361049Y-227936D01*
X-361276Y-228127D01*
X-361506Y-228312D01*
X-361742Y-228491D01*
X-361982Y-228664D01*
X-362225Y-228831D01*
X-362473Y-228992D01*
X-362725Y-229148D01*
X-362981Y-229297D01*
X-363240Y-229439D01*
X-363502Y-229575D01*
X-363768Y-229705D01*
X-364037Y-229828D01*
X-364309Y-229945D01*
X-364583Y-230055D01*
X-364860Y-230158D01*
X-365140Y-230254D01*
X-365422Y-230343D01*
X-365706Y-230426D01*
X-365992Y-230501D01*
X-366280Y-230569D01*
X-366569Y-230630D01*
X-366860Y-230685D01*
X-367152Y-230732D01*
X-367445Y-230771D01*
X-367739Y-230804D01*
X-368034Y-230829D01*
X-368329Y-230847D01*
X-368624Y-230858D01*
X-368920Y-230862D01*
X-369216Y-230858D01*
X-369511Y-230847D01*
X-369806Y-230829D01*
X-370101Y-230804D01*
X-370395Y-230771D01*
X-370688Y-230732D01*
X-370980Y-230685D01*
X-371271Y-230630D01*
X-371560Y-230569D01*
X-371848Y-230501D01*
X-372134Y-230426D01*
X-372418Y-230343D01*
X-372700Y-230254D01*
X-372980Y-230158D01*
X-373257Y-230055D01*
X-373531Y-229945D01*
X-373803Y-229828D01*
X-374072Y-229705D01*
X-374338Y-229575D01*
X-374600Y-229439D01*
X-374859Y-229297D01*
X-375115Y-229148D01*
X-375367Y-228992D01*
X-375615Y-228831D01*
X-375858Y-228664D01*
X-376098Y-228491D01*
X-376334Y-228312D01*
X-376564Y-228127D01*
X-376791Y-227936D01*
X-377012Y-227740D01*
X-377229Y-227539D01*
X-377441Y-227333D01*
X-377647Y-227121D01*
X-377848Y-226904D01*
X-378044Y-226683D01*
X-378235Y-226456D01*
X-378420Y-226226D01*
X-378599Y-225990D01*
X-378772Y-225750D01*
X-378939Y-225507D01*
X-379100Y-225259D01*
X-379256Y-225007D01*
X-379405Y-224751D01*
X-379547Y-224492D01*
X-379683Y-224230D01*
X-379813Y-223964D01*
X-379936Y-223695D01*
X-380053Y-223423D01*
X-380163Y-223149D01*
X-380266Y-222872D01*
X-380362Y-222592D01*
X-380451Y-222310D01*
X-380534Y-222026D01*
X-380609Y-221740D01*
X-380677Y-221452D01*
X-380738Y-221163D01*
X-380793Y-220872D01*
X-380840Y-220580D01*
X-380879Y-220287D01*
X-380912Y-219993D01*
X-380937Y-219698D01*
X-380955Y-219403D01*
X-380966Y-219108D01*
X-380970Y-218812D01*
M02*
