%
M48
M72
T01C0.01200
T02C0.02756
T03C0.03150
T04C0.03200
T05C0.03543
T06C0.03937
T07C0.04000
T08C0.09488
%
T01
X134628Y89822
X163378Y92947
X172878Y71697
X145253Y62322
X172878Y47697
X173024Y21185
X225503Y66697
X244003Y53572
X280253Y27322
X280878Y114197
X295878Y124822
X268878Y148697
X261878Y156697
X297177Y176697
X315878Y198572
X336503Y196697
X335253Y172322
X339003Y172322
X370253Y201072
X332128Y221072
X307753Y221697
X327128Y244197
X327128Y247947
X331503Y253572
X338378Y251072
X327878Y265697
X338378Y272322
X356878Y266697
X369003Y258572
X380878Y279197
X401503Y294822
X413378Y321072
X399628Y324822
X350878Y299697
X339628Y293572
X300253Y302322
X293378Y299197
X249003Y271072
X232628Y280447
X234628Y299197
X230253Y316697
X301503Y334197
X316503Y332322
X244003Y254822
X225878Y244197
X200878Y239197
X189628Y236072
X186503Y227947
X179628Y231072
X194003Y227947
X165253Y239197
X150878Y236072
X129628Y263572
X109003Y314822
X21185Y265280
X201503Y195447
X205253Y195447
X215878Y202322
X226503Y210447
X240253Y200447
X243378Y218572
X374003Y233572
X480878Y184697
X480878Y169697
X402503Y124697
X484628Y83572
X490650Y44248
X474628Y321072
X513713Y332209
T02
X445217Y332209
X425531Y332209
X408799Y332209
X398957Y332209
X313925Y144965
X313925Y135122
X313925Y119453
X313925Y99768
X285366Y90083
X285366Y109768
X285335Y67445
X285335Y57602
T03
X280966Y312039
X290966Y312039
X300966Y312039
X310966Y312039
X320966Y312039
X330866Y311739
X340966Y312039
X340972Y341986
X330972Y341986
X320972Y341986
X310972Y341986
X300972Y341986
X290972Y341986
X280972Y341986
X221063Y341952
X211063Y341952
X201063Y341952
X191063Y341952
X181063Y341952
X171063Y341952
X161063Y341952
X161057Y312006
X171057Y312006
X181057Y312006
X191057Y312006
X201057Y312006
X210957Y311706
X221057Y312006
X101145Y312039
X91045Y311739
X81145Y312039
X71145Y312039
X61145Y312039
X51145Y312039
X41145Y312039
X41151Y341985
X51151Y341985
X61151Y341985
X71151Y341985
X81151Y341985
X91151Y341985
X101151Y341985
T04
X342319Y244996
X352319Y244996
X362319Y244996
X372319Y244996
X382319Y244996
X392319Y244996
X402319Y244996
X412319Y244996
X422319Y244996
X432319Y244996
X442319Y244996
X452319Y244996
X447500Y274177
X437500Y274177
X427500Y274177
X417500Y274177
X407500Y274177
X397500Y274177
X397500Y304177
X407500Y304177
X417500Y304177
X427500Y304177
X437500Y304177
X447500Y304177
X457500Y304177
X467500Y304177
X477500Y304177
X487500Y304177
X497500Y304177
X507500Y304177
X507500Y274177
X497500Y274177
X487500Y274177
X477500Y274177
X467500Y274177
X457500Y274177
X452319Y214996
X442319Y214996
X432319Y214996
X422319Y214996
X412319Y214996
X402319Y214996
X392319Y214996
X382319Y214996
X372319Y214996
X362319Y214996
X352319Y214996
X342319Y214996
X263681Y121673
X263681Y111673
X263681Y101673
X263681Y91673
X263681Y81673
X263681Y71673
X263681Y61673
X263681Y51673
X263681Y41673
X263681Y31673
X263681Y21673
X263681Y11673
X233681Y11673
X233681Y21673
X233681Y31673
X233681Y41673
X233681Y51673
X233681Y61673
X233681Y71673
X233681Y81673
X233681Y91673
X233681Y101673
X233681Y111673
X233681Y121673
T05
X206878Y186539
X174878Y186539
X347421Y266075
X379421Y266075
X460508Y332209
X492508Y332209
X506091Y86146
X474091Y86146
X447035Y80240
X415035Y80240
X285335Y43091
X285335Y11091
T06
X356392Y104981
X366392Y104981
X376392Y104981
X386392Y104981
X396392Y104981
X406392Y104981
X416392Y104981
X426392Y104981
X436392Y104981
X446392Y104981
X456392Y104981
X466392Y104981
X476392Y104981
X486392Y104981
X496392Y104981
X506392Y104981
X466392Y184981
X456392Y184981
X446392Y184981
X436392Y184981
X426392Y184981
X416392Y184981
X406392Y184981
X396392Y184981
X386392Y184981
X376392Y184981
X366392Y184981
X356392Y184981
T07
X15226Y13015
X15226Y23015
X15226Y33015
X15226Y43015
X15226Y53015
X35226Y53015
X45181Y53023
X45181Y43023
X35226Y43015
X35226Y33015
X45181Y33023
X45181Y23023
X35226Y23015
X35226Y13015
X45181Y13023
X65181Y13023
X75112Y13024
X75112Y23024
X65181Y23023
X65181Y33023
X75112Y33024
X75112Y43024
X65181Y43023
X65181Y53023
X75112Y53024
X95112Y53024
X105141Y53046
X105141Y43046
X95112Y43024
X95112Y33024
X105141Y33046
X105141Y23046
X95112Y23024
X95112Y13024
X105141Y13046
X125141Y13046
X125141Y23046
X125141Y33046
X125141Y43046
X125141Y53046
X62642Y84645
X62642Y96456
X85689Y121173
X62666Y128552
X62666Y140363
X85689Y148110
X23801Y170633
X23801Y180633
X23801Y190633
X66943Y214224
X66943Y224224
X66943Y234224
X66943Y244224
X66943Y254224
X86943Y254224
X96900Y254231
X96900Y244231
X86943Y244224
X86943Y234224
X96900Y234231
X96900Y224231
X86943Y224224
X86943Y214224
X96900Y214231
X116900Y214231
X116900Y224231
X116900Y234231
X116900Y244231
X116900Y254231
X166050Y258926
X166050Y268926
X166050Y278926
X166050Y288926
X186050Y288926
X196050Y288920
X196050Y278920
X196050Y268920
X186050Y268926
X186050Y278926
X186050Y258926
X196050Y258920
X196050Y248920
X186050Y248926
X166050Y248926
X216050Y248920
X216050Y258920
X216050Y268920
X216050Y278920
X216050Y288920
X266329Y254204
X266329Y244204
X266329Y234204
X266329Y224204
X266329Y214204
X286329Y214204
X296294Y214230
X296294Y224230
X286329Y224204
X286329Y234204
X296294Y234230
X296294Y244230
X286329Y244204
X286329Y254204
X296294Y254230
X316294Y254230
X316294Y244230
X316294Y234230
X316294Y224230
X316294Y214230
X211059Y162106
X211059Y152106
X211059Y142106
X211059Y132106
X211059Y112106
X211059Y102106
X171059Y102106
X171059Y112106
X171059Y132106
X171059Y142106
X171059Y152106
X171059Y162106
X139110Y99772
X129110Y99772
X119110Y99772
X452657Y44008
X452657Y32197
X474343Y68429
X484343Y68429
X494343Y68429
X504343Y68429
X502928Y209491
X492928Y209491
X482928Y209491
X472928Y209491
X512928Y209491
X522928Y209491
X522928Y249491
X512928Y249491
X502928Y249491
X492928Y249491
X482928Y249491
X472928Y249491
T08
X435650Y38102
X45634Y90550
X45658Y134457
M30
