G75*
%MOIN*%
%OFA0B0*%
%FSLAX25Y25*%
%IPPOS*%
%LPD*%
%AMOC8*
5,1,8,0,0,1.08239X$1,22.5*
%
%ADD10C,0.00000*%
%ADD11C,0.01000*%
%ADD12C,0.00700*%
%ADD13C,0.00500*%
D10*
X0040890Y0090550D02*
X0040892Y0090687D01*
X0040898Y0090825D01*
X0040908Y0090962D01*
X0040922Y0091098D01*
X0040940Y0091234D01*
X0040961Y0091370D01*
X0040987Y0091505D01*
X0041017Y0091639D01*
X0041050Y0091772D01*
X0041087Y0091905D01*
X0041129Y0092036D01*
X0041173Y0092165D01*
X0041222Y0092294D01*
X0041274Y0092421D01*
X0041330Y0092546D01*
X0041390Y0092670D01*
X0041453Y0092792D01*
X0041520Y0092912D01*
X0041590Y0093030D01*
X0041663Y0093146D01*
X0041740Y0093260D01*
X0041820Y0093372D01*
X0041904Y0093481D01*
X0041990Y0093588D01*
X0042080Y0093692D01*
X0042172Y0093793D01*
X0042267Y0093892D01*
X0042366Y0093988D01*
X0042466Y0094082D01*
X0042570Y0094172D01*
X0042676Y0094259D01*
X0042785Y0094343D01*
X0042896Y0094424D01*
X0043009Y0094502D01*
X0043125Y0094576D01*
X0043242Y0094647D01*
X0043362Y0094714D01*
X0043483Y0094778D01*
X0043607Y0094839D01*
X0043732Y0094896D01*
X0043858Y0094949D01*
X0043986Y0094999D01*
X0044116Y0095045D01*
X0044247Y0095087D01*
X0044379Y0095125D01*
X0044512Y0095159D01*
X0044645Y0095190D01*
X0044780Y0095217D01*
X0044916Y0095239D01*
X0045052Y0095258D01*
X0045188Y0095273D01*
X0045325Y0095284D01*
X0045462Y0095291D01*
X0045600Y0095294D01*
X0045737Y0095293D01*
X0045874Y0095288D01*
X0046011Y0095279D01*
X0046148Y0095266D01*
X0046284Y0095249D01*
X0046420Y0095228D01*
X0046555Y0095204D01*
X0046690Y0095175D01*
X0046823Y0095143D01*
X0046956Y0095106D01*
X0047087Y0095066D01*
X0047217Y0095022D01*
X0047346Y0094974D01*
X0047473Y0094923D01*
X0047599Y0094868D01*
X0047723Y0094809D01*
X0047846Y0094747D01*
X0047966Y0094681D01*
X0048085Y0094612D01*
X0048201Y0094539D01*
X0048316Y0094463D01*
X0048428Y0094384D01*
X0048538Y0094301D01*
X0048645Y0094216D01*
X0048750Y0094127D01*
X0048852Y0094035D01*
X0048952Y0093941D01*
X0049049Y0093843D01*
X0049143Y0093743D01*
X0049234Y0093640D01*
X0049322Y0093535D01*
X0049406Y0093427D01*
X0049488Y0093316D01*
X0049567Y0093203D01*
X0049642Y0093088D01*
X0049714Y0092971D01*
X0049782Y0092852D01*
X0049847Y0092731D01*
X0049908Y0092608D01*
X0049966Y0092484D01*
X0050020Y0092358D01*
X0050071Y0092230D01*
X0050117Y0092101D01*
X0050160Y0091970D01*
X0050200Y0091839D01*
X0050235Y0091706D01*
X0050267Y0091572D01*
X0050294Y0091438D01*
X0050318Y0091302D01*
X0050338Y0091166D01*
X0050354Y0091030D01*
X0050366Y0090893D01*
X0050374Y0090756D01*
X0050378Y0090619D01*
X0050378Y0090481D01*
X0050374Y0090344D01*
X0050366Y0090207D01*
X0050354Y0090070D01*
X0050338Y0089934D01*
X0050318Y0089798D01*
X0050294Y0089662D01*
X0050267Y0089528D01*
X0050235Y0089394D01*
X0050200Y0089261D01*
X0050160Y0089130D01*
X0050117Y0088999D01*
X0050071Y0088870D01*
X0050020Y0088742D01*
X0049966Y0088616D01*
X0049908Y0088492D01*
X0049847Y0088369D01*
X0049782Y0088248D01*
X0049714Y0088129D01*
X0049642Y0088012D01*
X0049567Y0087897D01*
X0049488Y0087784D01*
X0049406Y0087673D01*
X0049322Y0087565D01*
X0049234Y0087460D01*
X0049143Y0087357D01*
X0049049Y0087257D01*
X0048952Y0087159D01*
X0048852Y0087065D01*
X0048750Y0086973D01*
X0048645Y0086884D01*
X0048538Y0086799D01*
X0048428Y0086716D01*
X0048316Y0086637D01*
X0048201Y0086561D01*
X0048085Y0086488D01*
X0047966Y0086419D01*
X0047846Y0086353D01*
X0047723Y0086291D01*
X0047599Y0086232D01*
X0047473Y0086177D01*
X0047346Y0086126D01*
X0047217Y0086078D01*
X0047087Y0086034D01*
X0046956Y0085994D01*
X0046823Y0085957D01*
X0046690Y0085925D01*
X0046555Y0085896D01*
X0046420Y0085872D01*
X0046284Y0085851D01*
X0046148Y0085834D01*
X0046011Y0085821D01*
X0045874Y0085812D01*
X0045737Y0085807D01*
X0045600Y0085806D01*
X0045462Y0085809D01*
X0045325Y0085816D01*
X0045188Y0085827D01*
X0045052Y0085842D01*
X0044916Y0085861D01*
X0044780Y0085883D01*
X0044645Y0085910D01*
X0044512Y0085941D01*
X0044379Y0085975D01*
X0044247Y0086013D01*
X0044116Y0086055D01*
X0043986Y0086101D01*
X0043858Y0086151D01*
X0043732Y0086204D01*
X0043607Y0086261D01*
X0043483Y0086322D01*
X0043362Y0086386D01*
X0043242Y0086453D01*
X0043125Y0086524D01*
X0043009Y0086598D01*
X0042896Y0086676D01*
X0042785Y0086757D01*
X0042676Y0086841D01*
X0042570Y0086928D01*
X0042466Y0087018D01*
X0042366Y0087112D01*
X0042267Y0087208D01*
X0042172Y0087307D01*
X0042080Y0087408D01*
X0041990Y0087512D01*
X0041904Y0087619D01*
X0041820Y0087728D01*
X0041740Y0087840D01*
X0041663Y0087954D01*
X0041590Y0088070D01*
X0041520Y0088188D01*
X0041453Y0088308D01*
X0041390Y0088430D01*
X0041330Y0088554D01*
X0041274Y0088679D01*
X0041222Y0088806D01*
X0041173Y0088935D01*
X0041129Y0089064D01*
X0041087Y0089195D01*
X0041050Y0089328D01*
X0041017Y0089461D01*
X0040987Y0089595D01*
X0040961Y0089730D01*
X0040940Y0089866D01*
X0040922Y0090002D01*
X0040908Y0090138D01*
X0040898Y0090275D01*
X0040892Y0090413D01*
X0040890Y0090550D01*
X0040914Y0134457D02*
X0040916Y0134594D01*
X0040922Y0134732D01*
X0040932Y0134869D01*
X0040946Y0135005D01*
X0040964Y0135141D01*
X0040985Y0135277D01*
X0041011Y0135412D01*
X0041041Y0135546D01*
X0041074Y0135679D01*
X0041111Y0135812D01*
X0041153Y0135943D01*
X0041197Y0136072D01*
X0041246Y0136201D01*
X0041298Y0136328D01*
X0041354Y0136453D01*
X0041414Y0136577D01*
X0041477Y0136699D01*
X0041544Y0136819D01*
X0041614Y0136937D01*
X0041687Y0137053D01*
X0041764Y0137167D01*
X0041844Y0137279D01*
X0041928Y0137388D01*
X0042014Y0137495D01*
X0042104Y0137599D01*
X0042196Y0137700D01*
X0042291Y0137799D01*
X0042390Y0137895D01*
X0042490Y0137989D01*
X0042594Y0138079D01*
X0042700Y0138166D01*
X0042809Y0138250D01*
X0042920Y0138331D01*
X0043033Y0138409D01*
X0043149Y0138483D01*
X0043266Y0138554D01*
X0043386Y0138621D01*
X0043507Y0138685D01*
X0043631Y0138746D01*
X0043756Y0138803D01*
X0043882Y0138856D01*
X0044010Y0138906D01*
X0044140Y0138952D01*
X0044271Y0138994D01*
X0044403Y0139032D01*
X0044536Y0139066D01*
X0044669Y0139097D01*
X0044804Y0139124D01*
X0044940Y0139146D01*
X0045076Y0139165D01*
X0045212Y0139180D01*
X0045349Y0139191D01*
X0045486Y0139198D01*
X0045624Y0139201D01*
X0045761Y0139200D01*
X0045898Y0139195D01*
X0046035Y0139186D01*
X0046172Y0139173D01*
X0046308Y0139156D01*
X0046444Y0139135D01*
X0046579Y0139111D01*
X0046714Y0139082D01*
X0046847Y0139050D01*
X0046980Y0139013D01*
X0047111Y0138973D01*
X0047241Y0138929D01*
X0047370Y0138881D01*
X0047497Y0138830D01*
X0047623Y0138775D01*
X0047747Y0138716D01*
X0047870Y0138654D01*
X0047990Y0138588D01*
X0048109Y0138519D01*
X0048225Y0138446D01*
X0048340Y0138370D01*
X0048452Y0138291D01*
X0048562Y0138208D01*
X0048669Y0138123D01*
X0048774Y0138034D01*
X0048876Y0137942D01*
X0048976Y0137848D01*
X0049073Y0137750D01*
X0049167Y0137650D01*
X0049258Y0137547D01*
X0049346Y0137442D01*
X0049430Y0137334D01*
X0049512Y0137223D01*
X0049591Y0137110D01*
X0049666Y0136995D01*
X0049738Y0136878D01*
X0049806Y0136759D01*
X0049871Y0136638D01*
X0049932Y0136515D01*
X0049990Y0136391D01*
X0050044Y0136265D01*
X0050095Y0136137D01*
X0050141Y0136008D01*
X0050184Y0135877D01*
X0050224Y0135746D01*
X0050259Y0135613D01*
X0050291Y0135479D01*
X0050318Y0135345D01*
X0050342Y0135209D01*
X0050362Y0135073D01*
X0050378Y0134937D01*
X0050390Y0134800D01*
X0050398Y0134663D01*
X0050402Y0134526D01*
X0050402Y0134388D01*
X0050398Y0134251D01*
X0050390Y0134114D01*
X0050378Y0133977D01*
X0050362Y0133841D01*
X0050342Y0133705D01*
X0050318Y0133569D01*
X0050291Y0133435D01*
X0050259Y0133301D01*
X0050224Y0133168D01*
X0050184Y0133037D01*
X0050141Y0132906D01*
X0050095Y0132777D01*
X0050044Y0132649D01*
X0049990Y0132523D01*
X0049932Y0132399D01*
X0049871Y0132276D01*
X0049806Y0132155D01*
X0049738Y0132036D01*
X0049666Y0131919D01*
X0049591Y0131804D01*
X0049512Y0131691D01*
X0049430Y0131580D01*
X0049346Y0131472D01*
X0049258Y0131367D01*
X0049167Y0131264D01*
X0049073Y0131164D01*
X0048976Y0131066D01*
X0048876Y0130972D01*
X0048774Y0130880D01*
X0048669Y0130791D01*
X0048562Y0130706D01*
X0048452Y0130623D01*
X0048340Y0130544D01*
X0048225Y0130468D01*
X0048109Y0130395D01*
X0047990Y0130326D01*
X0047870Y0130260D01*
X0047747Y0130198D01*
X0047623Y0130139D01*
X0047497Y0130084D01*
X0047370Y0130033D01*
X0047241Y0129985D01*
X0047111Y0129941D01*
X0046980Y0129901D01*
X0046847Y0129864D01*
X0046714Y0129832D01*
X0046579Y0129803D01*
X0046444Y0129779D01*
X0046308Y0129758D01*
X0046172Y0129741D01*
X0046035Y0129728D01*
X0045898Y0129719D01*
X0045761Y0129714D01*
X0045624Y0129713D01*
X0045486Y0129716D01*
X0045349Y0129723D01*
X0045212Y0129734D01*
X0045076Y0129749D01*
X0044940Y0129768D01*
X0044804Y0129790D01*
X0044669Y0129817D01*
X0044536Y0129848D01*
X0044403Y0129882D01*
X0044271Y0129920D01*
X0044140Y0129962D01*
X0044010Y0130008D01*
X0043882Y0130058D01*
X0043756Y0130111D01*
X0043631Y0130168D01*
X0043507Y0130229D01*
X0043386Y0130293D01*
X0043266Y0130360D01*
X0043149Y0130431D01*
X0043033Y0130505D01*
X0042920Y0130583D01*
X0042809Y0130664D01*
X0042700Y0130748D01*
X0042594Y0130835D01*
X0042490Y0130925D01*
X0042390Y0131019D01*
X0042291Y0131115D01*
X0042196Y0131214D01*
X0042104Y0131315D01*
X0042014Y0131419D01*
X0041928Y0131526D01*
X0041844Y0131635D01*
X0041764Y0131747D01*
X0041687Y0131861D01*
X0041614Y0131977D01*
X0041544Y0132095D01*
X0041477Y0132215D01*
X0041414Y0132337D01*
X0041354Y0132461D01*
X0041298Y0132586D01*
X0041246Y0132713D01*
X0041197Y0132842D01*
X0041153Y0132971D01*
X0041111Y0133102D01*
X0041074Y0133235D01*
X0041041Y0133368D01*
X0041011Y0133502D01*
X0040985Y0133637D01*
X0040964Y0133773D01*
X0040946Y0133909D01*
X0040932Y0134045D01*
X0040922Y0134182D01*
X0040916Y0134320D01*
X0040914Y0134457D01*
X0172424Y0021185D02*
X0172426Y0021234D01*
X0172432Y0021282D01*
X0172442Y0021330D01*
X0172456Y0021377D01*
X0172473Y0021423D01*
X0172494Y0021467D01*
X0172519Y0021509D01*
X0172547Y0021549D01*
X0172579Y0021587D01*
X0172613Y0021622D01*
X0172650Y0021654D01*
X0172689Y0021683D01*
X0172731Y0021709D01*
X0172775Y0021731D01*
X0172820Y0021749D01*
X0172867Y0021764D01*
X0172914Y0021775D01*
X0172963Y0021782D01*
X0173012Y0021785D01*
X0173061Y0021784D01*
X0173109Y0021779D01*
X0173158Y0021770D01*
X0173205Y0021757D01*
X0173251Y0021740D01*
X0173295Y0021720D01*
X0173338Y0021696D01*
X0173379Y0021669D01*
X0173417Y0021638D01*
X0173453Y0021605D01*
X0173485Y0021569D01*
X0173515Y0021530D01*
X0173542Y0021489D01*
X0173565Y0021445D01*
X0173584Y0021400D01*
X0173600Y0021354D01*
X0173612Y0021307D01*
X0173620Y0021258D01*
X0173624Y0021209D01*
X0173624Y0021161D01*
X0173620Y0021112D01*
X0173612Y0021063D01*
X0173600Y0021016D01*
X0173584Y0020970D01*
X0173565Y0020925D01*
X0173542Y0020881D01*
X0173515Y0020840D01*
X0173485Y0020801D01*
X0173453Y0020765D01*
X0173417Y0020732D01*
X0173379Y0020701D01*
X0173338Y0020674D01*
X0173295Y0020650D01*
X0173251Y0020630D01*
X0173205Y0020613D01*
X0173158Y0020600D01*
X0173109Y0020591D01*
X0173061Y0020586D01*
X0173012Y0020585D01*
X0172963Y0020588D01*
X0172914Y0020595D01*
X0172867Y0020606D01*
X0172820Y0020621D01*
X0172775Y0020639D01*
X0172731Y0020661D01*
X0172689Y0020687D01*
X0172650Y0020716D01*
X0172613Y0020748D01*
X0172579Y0020783D01*
X0172547Y0020821D01*
X0172519Y0020861D01*
X0172494Y0020903D01*
X0172473Y0020947D01*
X0172456Y0020993D01*
X0172442Y0021040D01*
X0172432Y0021088D01*
X0172426Y0021136D01*
X0172424Y0021185D01*
X0296577Y0176697D02*
X0296579Y0176746D01*
X0296585Y0176794D01*
X0296595Y0176842D01*
X0296609Y0176889D01*
X0296626Y0176935D01*
X0296647Y0176979D01*
X0296672Y0177021D01*
X0296700Y0177061D01*
X0296732Y0177099D01*
X0296766Y0177134D01*
X0296803Y0177166D01*
X0296842Y0177195D01*
X0296884Y0177221D01*
X0296928Y0177243D01*
X0296973Y0177261D01*
X0297020Y0177276D01*
X0297067Y0177287D01*
X0297116Y0177294D01*
X0297165Y0177297D01*
X0297214Y0177296D01*
X0297262Y0177291D01*
X0297311Y0177282D01*
X0297358Y0177269D01*
X0297404Y0177252D01*
X0297448Y0177232D01*
X0297491Y0177208D01*
X0297532Y0177181D01*
X0297570Y0177150D01*
X0297606Y0177117D01*
X0297638Y0177081D01*
X0297668Y0177042D01*
X0297695Y0177001D01*
X0297718Y0176957D01*
X0297737Y0176912D01*
X0297753Y0176866D01*
X0297765Y0176819D01*
X0297773Y0176770D01*
X0297777Y0176721D01*
X0297777Y0176673D01*
X0297773Y0176624D01*
X0297765Y0176575D01*
X0297753Y0176528D01*
X0297737Y0176482D01*
X0297718Y0176437D01*
X0297695Y0176393D01*
X0297668Y0176352D01*
X0297638Y0176313D01*
X0297606Y0176277D01*
X0297570Y0176244D01*
X0297532Y0176213D01*
X0297491Y0176186D01*
X0297448Y0176162D01*
X0297404Y0176142D01*
X0297358Y0176125D01*
X0297311Y0176112D01*
X0297262Y0176103D01*
X0297214Y0176098D01*
X0297165Y0176097D01*
X0297116Y0176100D01*
X0297067Y0176107D01*
X0297020Y0176118D01*
X0296973Y0176133D01*
X0296928Y0176151D01*
X0296884Y0176173D01*
X0296842Y0176199D01*
X0296803Y0176228D01*
X0296766Y0176260D01*
X0296732Y0176295D01*
X0296700Y0176333D01*
X0296672Y0176373D01*
X0296647Y0176415D01*
X0296626Y0176459D01*
X0296609Y0176505D01*
X0296595Y0176552D01*
X0296585Y0176600D01*
X0296579Y0176648D01*
X0296577Y0176697D01*
X0490050Y0044248D02*
X0490052Y0044297D01*
X0490058Y0044345D01*
X0490068Y0044393D01*
X0490082Y0044440D01*
X0490099Y0044486D01*
X0490120Y0044530D01*
X0490145Y0044572D01*
X0490173Y0044612D01*
X0490205Y0044650D01*
X0490239Y0044685D01*
X0490276Y0044717D01*
X0490315Y0044746D01*
X0490357Y0044772D01*
X0490401Y0044794D01*
X0490446Y0044812D01*
X0490493Y0044827D01*
X0490540Y0044838D01*
X0490589Y0044845D01*
X0490638Y0044848D01*
X0490687Y0044847D01*
X0490735Y0044842D01*
X0490784Y0044833D01*
X0490831Y0044820D01*
X0490877Y0044803D01*
X0490921Y0044783D01*
X0490964Y0044759D01*
X0491005Y0044732D01*
X0491043Y0044701D01*
X0491079Y0044668D01*
X0491111Y0044632D01*
X0491141Y0044593D01*
X0491168Y0044552D01*
X0491191Y0044508D01*
X0491210Y0044463D01*
X0491226Y0044417D01*
X0491238Y0044370D01*
X0491246Y0044321D01*
X0491250Y0044272D01*
X0491250Y0044224D01*
X0491246Y0044175D01*
X0491238Y0044126D01*
X0491226Y0044079D01*
X0491210Y0044033D01*
X0491191Y0043988D01*
X0491168Y0043944D01*
X0491141Y0043903D01*
X0491111Y0043864D01*
X0491079Y0043828D01*
X0491043Y0043795D01*
X0491005Y0043764D01*
X0490964Y0043737D01*
X0490921Y0043713D01*
X0490877Y0043693D01*
X0490831Y0043676D01*
X0490784Y0043663D01*
X0490735Y0043654D01*
X0490687Y0043649D01*
X0490638Y0043648D01*
X0490589Y0043651D01*
X0490540Y0043658D01*
X0490493Y0043669D01*
X0490446Y0043684D01*
X0490401Y0043702D01*
X0490357Y0043724D01*
X0490315Y0043750D01*
X0490276Y0043779D01*
X0490239Y0043811D01*
X0490205Y0043846D01*
X0490173Y0043884D01*
X0490145Y0043924D01*
X0490120Y0043966D01*
X0490099Y0044010D01*
X0490082Y0044056D01*
X0490068Y0044103D01*
X0490058Y0044151D01*
X0490052Y0044199D01*
X0490050Y0044248D01*
X0430906Y0038102D02*
X0430908Y0038239D01*
X0430914Y0038377D01*
X0430924Y0038514D01*
X0430938Y0038650D01*
X0430956Y0038786D01*
X0430977Y0038922D01*
X0431003Y0039057D01*
X0431033Y0039191D01*
X0431066Y0039324D01*
X0431103Y0039457D01*
X0431145Y0039588D01*
X0431189Y0039717D01*
X0431238Y0039846D01*
X0431290Y0039973D01*
X0431346Y0040098D01*
X0431406Y0040222D01*
X0431469Y0040344D01*
X0431536Y0040464D01*
X0431606Y0040582D01*
X0431679Y0040698D01*
X0431756Y0040812D01*
X0431836Y0040924D01*
X0431920Y0041033D01*
X0432006Y0041140D01*
X0432096Y0041244D01*
X0432188Y0041345D01*
X0432283Y0041444D01*
X0432382Y0041540D01*
X0432482Y0041634D01*
X0432586Y0041724D01*
X0432692Y0041811D01*
X0432801Y0041895D01*
X0432912Y0041976D01*
X0433025Y0042054D01*
X0433141Y0042128D01*
X0433258Y0042199D01*
X0433378Y0042266D01*
X0433499Y0042330D01*
X0433623Y0042391D01*
X0433748Y0042448D01*
X0433874Y0042501D01*
X0434002Y0042551D01*
X0434132Y0042597D01*
X0434263Y0042639D01*
X0434395Y0042677D01*
X0434528Y0042711D01*
X0434661Y0042742D01*
X0434796Y0042769D01*
X0434932Y0042791D01*
X0435068Y0042810D01*
X0435204Y0042825D01*
X0435341Y0042836D01*
X0435478Y0042843D01*
X0435616Y0042846D01*
X0435753Y0042845D01*
X0435890Y0042840D01*
X0436027Y0042831D01*
X0436164Y0042818D01*
X0436300Y0042801D01*
X0436436Y0042780D01*
X0436571Y0042756D01*
X0436706Y0042727D01*
X0436839Y0042695D01*
X0436972Y0042658D01*
X0437103Y0042618D01*
X0437233Y0042574D01*
X0437362Y0042526D01*
X0437489Y0042475D01*
X0437615Y0042420D01*
X0437739Y0042361D01*
X0437862Y0042299D01*
X0437982Y0042233D01*
X0438101Y0042164D01*
X0438217Y0042091D01*
X0438332Y0042015D01*
X0438444Y0041936D01*
X0438554Y0041853D01*
X0438661Y0041768D01*
X0438766Y0041679D01*
X0438868Y0041587D01*
X0438968Y0041493D01*
X0439065Y0041395D01*
X0439159Y0041295D01*
X0439250Y0041192D01*
X0439338Y0041087D01*
X0439422Y0040979D01*
X0439504Y0040868D01*
X0439583Y0040755D01*
X0439658Y0040640D01*
X0439730Y0040523D01*
X0439798Y0040404D01*
X0439863Y0040283D01*
X0439924Y0040160D01*
X0439982Y0040036D01*
X0440036Y0039910D01*
X0440087Y0039782D01*
X0440133Y0039653D01*
X0440176Y0039522D01*
X0440216Y0039391D01*
X0440251Y0039258D01*
X0440283Y0039124D01*
X0440310Y0038990D01*
X0440334Y0038854D01*
X0440354Y0038718D01*
X0440370Y0038582D01*
X0440382Y0038445D01*
X0440390Y0038308D01*
X0440394Y0038171D01*
X0440394Y0038033D01*
X0440390Y0037896D01*
X0440382Y0037759D01*
X0440370Y0037622D01*
X0440354Y0037486D01*
X0440334Y0037350D01*
X0440310Y0037214D01*
X0440283Y0037080D01*
X0440251Y0036946D01*
X0440216Y0036813D01*
X0440176Y0036682D01*
X0440133Y0036551D01*
X0440087Y0036422D01*
X0440036Y0036294D01*
X0439982Y0036168D01*
X0439924Y0036044D01*
X0439863Y0035921D01*
X0439798Y0035800D01*
X0439730Y0035681D01*
X0439658Y0035564D01*
X0439583Y0035449D01*
X0439504Y0035336D01*
X0439422Y0035225D01*
X0439338Y0035117D01*
X0439250Y0035012D01*
X0439159Y0034909D01*
X0439065Y0034809D01*
X0438968Y0034711D01*
X0438868Y0034617D01*
X0438766Y0034525D01*
X0438661Y0034436D01*
X0438554Y0034351D01*
X0438444Y0034268D01*
X0438332Y0034189D01*
X0438217Y0034113D01*
X0438101Y0034040D01*
X0437982Y0033971D01*
X0437862Y0033905D01*
X0437739Y0033843D01*
X0437615Y0033784D01*
X0437489Y0033729D01*
X0437362Y0033678D01*
X0437233Y0033630D01*
X0437103Y0033586D01*
X0436972Y0033546D01*
X0436839Y0033509D01*
X0436706Y0033477D01*
X0436571Y0033448D01*
X0436436Y0033424D01*
X0436300Y0033403D01*
X0436164Y0033386D01*
X0436027Y0033373D01*
X0435890Y0033364D01*
X0435753Y0033359D01*
X0435616Y0033358D01*
X0435478Y0033361D01*
X0435341Y0033368D01*
X0435204Y0033379D01*
X0435068Y0033394D01*
X0434932Y0033413D01*
X0434796Y0033435D01*
X0434661Y0033462D01*
X0434528Y0033493D01*
X0434395Y0033527D01*
X0434263Y0033565D01*
X0434132Y0033607D01*
X0434002Y0033653D01*
X0433874Y0033703D01*
X0433748Y0033756D01*
X0433623Y0033813D01*
X0433499Y0033874D01*
X0433378Y0033938D01*
X0433258Y0034005D01*
X0433141Y0034076D01*
X0433025Y0034150D01*
X0432912Y0034228D01*
X0432801Y0034309D01*
X0432692Y0034393D01*
X0432586Y0034480D01*
X0432482Y0034570D01*
X0432382Y0034664D01*
X0432283Y0034760D01*
X0432188Y0034859D01*
X0432096Y0034960D01*
X0432006Y0035064D01*
X0431920Y0035171D01*
X0431836Y0035280D01*
X0431756Y0035392D01*
X0431679Y0035506D01*
X0431606Y0035622D01*
X0431536Y0035740D01*
X0431469Y0035860D01*
X0431406Y0035982D01*
X0431346Y0036106D01*
X0431290Y0036231D01*
X0431238Y0036358D01*
X0431189Y0036487D01*
X0431145Y0036616D01*
X0431103Y0036747D01*
X0431066Y0036880D01*
X0431033Y0037013D01*
X0431003Y0037147D01*
X0430977Y0037282D01*
X0430956Y0037418D01*
X0430938Y0037554D01*
X0430924Y0037690D01*
X0430914Y0037827D01*
X0430908Y0037965D01*
X0430906Y0038102D01*
X0020585Y0265280D02*
X0020587Y0265329D01*
X0020593Y0265377D01*
X0020603Y0265425D01*
X0020617Y0265472D01*
X0020634Y0265518D01*
X0020655Y0265562D01*
X0020680Y0265604D01*
X0020708Y0265644D01*
X0020740Y0265682D01*
X0020774Y0265717D01*
X0020811Y0265749D01*
X0020850Y0265778D01*
X0020892Y0265804D01*
X0020936Y0265826D01*
X0020981Y0265844D01*
X0021028Y0265859D01*
X0021075Y0265870D01*
X0021124Y0265877D01*
X0021173Y0265880D01*
X0021222Y0265879D01*
X0021270Y0265874D01*
X0021319Y0265865D01*
X0021366Y0265852D01*
X0021412Y0265835D01*
X0021456Y0265815D01*
X0021499Y0265791D01*
X0021540Y0265764D01*
X0021578Y0265733D01*
X0021614Y0265700D01*
X0021646Y0265664D01*
X0021676Y0265625D01*
X0021703Y0265584D01*
X0021726Y0265540D01*
X0021745Y0265495D01*
X0021761Y0265449D01*
X0021773Y0265402D01*
X0021781Y0265353D01*
X0021785Y0265304D01*
X0021785Y0265256D01*
X0021781Y0265207D01*
X0021773Y0265158D01*
X0021761Y0265111D01*
X0021745Y0265065D01*
X0021726Y0265020D01*
X0021703Y0264976D01*
X0021676Y0264935D01*
X0021646Y0264896D01*
X0021614Y0264860D01*
X0021578Y0264827D01*
X0021540Y0264796D01*
X0021499Y0264769D01*
X0021456Y0264745D01*
X0021412Y0264725D01*
X0021366Y0264708D01*
X0021319Y0264695D01*
X0021270Y0264686D01*
X0021222Y0264681D01*
X0021173Y0264680D01*
X0021124Y0264683D01*
X0021075Y0264690D01*
X0021028Y0264701D01*
X0020981Y0264716D01*
X0020936Y0264734D01*
X0020892Y0264756D01*
X0020850Y0264782D01*
X0020811Y0264811D01*
X0020774Y0264843D01*
X0020740Y0264878D01*
X0020708Y0264916D01*
X0020680Y0264956D01*
X0020655Y0264998D01*
X0020634Y0265042D01*
X0020617Y0265088D01*
X0020603Y0265135D01*
X0020593Y0265183D01*
X0020587Y0265231D01*
X0020585Y0265280D01*
X0513113Y0332209D02*
X0513115Y0332258D01*
X0513121Y0332306D01*
X0513131Y0332354D01*
X0513145Y0332401D01*
X0513162Y0332447D01*
X0513183Y0332491D01*
X0513208Y0332533D01*
X0513236Y0332573D01*
X0513268Y0332611D01*
X0513302Y0332646D01*
X0513339Y0332678D01*
X0513378Y0332707D01*
X0513420Y0332733D01*
X0513464Y0332755D01*
X0513509Y0332773D01*
X0513556Y0332788D01*
X0513603Y0332799D01*
X0513652Y0332806D01*
X0513701Y0332809D01*
X0513750Y0332808D01*
X0513798Y0332803D01*
X0513847Y0332794D01*
X0513894Y0332781D01*
X0513940Y0332764D01*
X0513984Y0332744D01*
X0514027Y0332720D01*
X0514068Y0332693D01*
X0514106Y0332662D01*
X0514142Y0332629D01*
X0514174Y0332593D01*
X0514204Y0332554D01*
X0514231Y0332513D01*
X0514254Y0332469D01*
X0514273Y0332424D01*
X0514289Y0332378D01*
X0514301Y0332331D01*
X0514309Y0332282D01*
X0514313Y0332233D01*
X0514313Y0332185D01*
X0514309Y0332136D01*
X0514301Y0332087D01*
X0514289Y0332040D01*
X0514273Y0331994D01*
X0514254Y0331949D01*
X0514231Y0331905D01*
X0514204Y0331864D01*
X0514174Y0331825D01*
X0514142Y0331789D01*
X0514106Y0331756D01*
X0514068Y0331725D01*
X0514027Y0331698D01*
X0513984Y0331674D01*
X0513940Y0331654D01*
X0513894Y0331637D01*
X0513847Y0331624D01*
X0513798Y0331615D01*
X0513750Y0331610D01*
X0513701Y0331609D01*
X0513652Y0331612D01*
X0513603Y0331619D01*
X0513556Y0331630D01*
X0513509Y0331645D01*
X0513464Y0331663D01*
X0513420Y0331685D01*
X0513378Y0331711D01*
X0513339Y0331740D01*
X0513302Y0331772D01*
X0513268Y0331807D01*
X0513236Y0331845D01*
X0513208Y0331885D01*
X0513183Y0331927D01*
X0513162Y0331971D01*
X0513145Y0332017D01*
X0513131Y0332064D01*
X0513121Y0332112D01*
X0513115Y0332160D01*
X0513113Y0332209D01*
D11*
X0292917Y0001500D02*
X0009500Y0001500D01*
X0009307Y0001502D01*
X0009113Y0001509D01*
X0008921Y0001521D01*
X0008728Y0001537D01*
X0008536Y0001558D01*
X0008344Y0001584D01*
X0008153Y0001614D01*
X0007963Y0001649D01*
X0007774Y0001688D01*
X0007585Y0001732D01*
X0007398Y0001781D01*
X0007212Y0001834D01*
X0007028Y0001892D01*
X0006845Y0001954D01*
X0006663Y0002020D01*
X0006483Y0002091D01*
X0006305Y0002166D01*
X0006129Y0002245D01*
X0005954Y0002329D01*
X0005782Y0002416D01*
X0005612Y0002508D01*
X0005444Y0002604D01*
X0005279Y0002704D01*
X0005116Y0002808D01*
X0004955Y0002916D01*
X0004798Y0003028D01*
X0004643Y0003143D01*
X0004491Y0003263D01*
X0004341Y0003385D01*
X0004195Y0003512D01*
X0004052Y0003642D01*
X0003912Y0003775D01*
X0003775Y0003912D01*
X0003642Y0004052D01*
X0003512Y0004195D01*
X0003385Y0004341D01*
X0003263Y0004491D01*
X0003143Y0004643D01*
X0003028Y0004798D01*
X0002916Y0004955D01*
X0002808Y0005116D01*
X0002704Y0005279D01*
X0002604Y0005444D01*
X0002508Y0005612D01*
X0002416Y0005782D01*
X0002329Y0005954D01*
X0002245Y0006129D01*
X0002166Y0006305D01*
X0002091Y0006483D01*
X0002020Y0006663D01*
X0001954Y0006845D01*
X0001892Y0007028D01*
X0001834Y0007212D01*
X0001781Y0007398D01*
X0001732Y0007585D01*
X0001688Y0007774D01*
X0001649Y0007963D01*
X0001614Y0008153D01*
X0001584Y0008344D01*
X0001558Y0008536D01*
X0001537Y0008728D01*
X0001521Y0008921D01*
X0001509Y0009113D01*
X0001502Y0009307D01*
X0001500Y0009500D01*
X0001500Y0343894D01*
X0001502Y0344087D01*
X0001509Y0344281D01*
X0001521Y0344473D01*
X0001537Y0344666D01*
X0001558Y0344858D01*
X0001584Y0345050D01*
X0001614Y0345241D01*
X0001649Y0345431D01*
X0001688Y0345620D01*
X0001732Y0345809D01*
X0001781Y0345996D01*
X0001834Y0346182D01*
X0001892Y0346366D01*
X0001954Y0346549D01*
X0002020Y0346731D01*
X0002091Y0346911D01*
X0002166Y0347089D01*
X0002245Y0347265D01*
X0002329Y0347440D01*
X0002416Y0347612D01*
X0002508Y0347782D01*
X0002604Y0347950D01*
X0002704Y0348115D01*
X0002808Y0348278D01*
X0002916Y0348439D01*
X0003028Y0348596D01*
X0003143Y0348751D01*
X0003263Y0348903D01*
X0003385Y0349053D01*
X0003512Y0349199D01*
X0003642Y0349342D01*
X0003775Y0349482D01*
X0003912Y0349619D01*
X0004052Y0349752D01*
X0004195Y0349882D01*
X0004341Y0350009D01*
X0004491Y0350131D01*
X0004643Y0350251D01*
X0004798Y0350366D01*
X0004955Y0350478D01*
X0005116Y0350586D01*
X0005279Y0350690D01*
X0005444Y0350790D01*
X0005612Y0350886D01*
X0005782Y0350978D01*
X0005954Y0351065D01*
X0006129Y0351149D01*
X0006305Y0351228D01*
X0006483Y0351303D01*
X0006663Y0351374D01*
X0006845Y0351440D01*
X0007028Y0351502D01*
X0007212Y0351560D01*
X0007398Y0351613D01*
X0007585Y0351662D01*
X0007774Y0351706D01*
X0007963Y0351745D01*
X0008153Y0351780D01*
X0008344Y0351810D01*
X0008536Y0351836D01*
X0008728Y0351857D01*
X0008921Y0351873D01*
X0009113Y0351885D01*
X0009307Y0351892D01*
X0009500Y0351894D01*
X0525398Y0351894D01*
X0525591Y0351892D01*
X0525785Y0351885D01*
X0525977Y0351873D01*
X0526170Y0351857D01*
X0526362Y0351836D01*
X0526554Y0351810D01*
X0526745Y0351780D01*
X0526935Y0351745D01*
X0527124Y0351706D01*
X0527313Y0351662D01*
X0527500Y0351613D01*
X0527686Y0351560D01*
X0527870Y0351502D01*
X0528053Y0351440D01*
X0528235Y0351374D01*
X0528415Y0351303D01*
X0528593Y0351228D01*
X0528769Y0351149D01*
X0528944Y0351065D01*
X0529116Y0350978D01*
X0529286Y0350886D01*
X0529454Y0350790D01*
X0529619Y0350690D01*
X0529782Y0350586D01*
X0529943Y0350478D01*
X0530100Y0350366D01*
X0530255Y0350251D01*
X0530407Y0350131D01*
X0530557Y0350009D01*
X0530703Y0349882D01*
X0530846Y0349752D01*
X0530986Y0349619D01*
X0531123Y0349482D01*
X0531256Y0349342D01*
X0531386Y0349199D01*
X0531513Y0349053D01*
X0531635Y0348903D01*
X0531755Y0348751D01*
X0531870Y0348596D01*
X0531982Y0348439D01*
X0532090Y0348278D01*
X0532194Y0348115D01*
X0532294Y0347950D01*
X0532390Y0347782D01*
X0532482Y0347612D01*
X0532569Y0347440D01*
X0532653Y0347265D01*
X0532732Y0347089D01*
X0532807Y0346911D01*
X0532878Y0346731D01*
X0532944Y0346549D01*
X0533006Y0346366D01*
X0533064Y0346182D01*
X0533117Y0345996D01*
X0533166Y0345809D01*
X0533210Y0345620D01*
X0533249Y0345431D01*
X0533284Y0345241D01*
X0533314Y0345050D01*
X0533340Y0344858D01*
X0533361Y0344666D01*
X0533377Y0344473D01*
X0533389Y0344281D01*
X0533396Y0344087D01*
X0533398Y0343894D01*
X0533398Y0099925D01*
X0521392Y0099981D02*
X0341392Y0099981D01*
X0341150Y0099984D01*
X0340909Y0099993D01*
X0340668Y0100007D01*
X0340427Y0100028D01*
X0340187Y0100054D01*
X0339947Y0100086D01*
X0339708Y0100124D01*
X0339471Y0100167D01*
X0339234Y0100217D01*
X0338999Y0100272D01*
X0338765Y0100332D01*
X0338533Y0100399D01*
X0338302Y0100470D01*
X0338073Y0100548D01*
X0337846Y0100631D01*
X0337621Y0100719D01*
X0337398Y0100813D01*
X0337178Y0100912D01*
X0336960Y0101017D01*
X0336745Y0101126D01*
X0336532Y0101241D01*
X0336322Y0101361D01*
X0336116Y0101486D01*
X0335912Y0101616D01*
X0335711Y0101751D01*
X0335514Y0101891D01*
X0335320Y0102035D01*
X0335130Y0102184D01*
X0334944Y0102338D01*
X0334761Y0102496D01*
X0334582Y0102658D01*
X0334407Y0102825D01*
X0334236Y0102996D01*
X0334069Y0103171D01*
X0333907Y0103350D01*
X0333749Y0103533D01*
X0333595Y0103719D01*
X0333446Y0103909D01*
X0333302Y0104103D01*
X0333162Y0104300D01*
X0333027Y0104501D01*
X0332897Y0104705D01*
X0332772Y0104911D01*
X0332652Y0105121D01*
X0332537Y0105334D01*
X0332428Y0105549D01*
X0332323Y0105767D01*
X0332224Y0105987D01*
X0332130Y0106210D01*
X0332042Y0106435D01*
X0331959Y0106662D01*
X0331881Y0106891D01*
X0331810Y0107122D01*
X0331743Y0107354D01*
X0331683Y0107588D01*
X0331628Y0107823D01*
X0331578Y0108060D01*
X0331535Y0108297D01*
X0331497Y0108536D01*
X0331465Y0108776D01*
X0331439Y0109016D01*
X0331418Y0109257D01*
X0331404Y0109498D01*
X0331395Y0109739D01*
X0331392Y0109981D01*
X0331392Y0179981D01*
X0331395Y0180223D01*
X0331404Y0180464D01*
X0331418Y0180705D01*
X0331439Y0180946D01*
X0331465Y0181186D01*
X0331497Y0181426D01*
X0331535Y0181665D01*
X0331578Y0181902D01*
X0331628Y0182139D01*
X0331683Y0182374D01*
X0331743Y0182608D01*
X0331810Y0182840D01*
X0331881Y0183071D01*
X0331959Y0183300D01*
X0332042Y0183527D01*
X0332130Y0183752D01*
X0332224Y0183975D01*
X0332323Y0184195D01*
X0332428Y0184413D01*
X0332537Y0184628D01*
X0332652Y0184841D01*
X0332772Y0185051D01*
X0332897Y0185257D01*
X0333027Y0185461D01*
X0333162Y0185662D01*
X0333302Y0185859D01*
X0333446Y0186053D01*
X0333595Y0186243D01*
X0333749Y0186429D01*
X0333907Y0186612D01*
X0334069Y0186791D01*
X0334236Y0186966D01*
X0334407Y0187137D01*
X0334582Y0187304D01*
X0334761Y0187466D01*
X0334944Y0187624D01*
X0335130Y0187778D01*
X0335320Y0187927D01*
X0335514Y0188071D01*
X0335711Y0188211D01*
X0335912Y0188346D01*
X0336116Y0188476D01*
X0336322Y0188601D01*
X0336532Y0188721D01*
X0336745Y0188836D01*
X0336960Y0188945D01*
X0337178Y0189050D01*
X0337398Y0189149D01*
X0337621Y0189243D01*
X0337846Y0189331D01*
X0338073Y0189414D01*
X0338302Y0189492D01*
X0338533Y0189563D01*
X0338765Y0189630D01*
X0338999Y0189690D01*
X0339234Y0189745D01*
X0339471Y0189795D01*
X0339708Y0189838D01*
X0339947Y0189876D01*
X0340187Y0189908D01*
X0340427Y0189934D01*
X0340668Y0189955D01*
X0340909Y0189969D01*
X0341150Y0189978D01*
X0341392Y0189981D01*
X0521392Y0189981D01*
X0526196Y0201991D02*
X0470428Y0201991D01*
X0470288Y0201993D01*
X0470148Y0201999D01*
X0470008Y0202009D01*
X0469868Y0202022D01*
X0469729Y0202040D01*
X0469590Y0202062D01*
X0469453Y0202087D01*
X0469315Y0202116D01*
X0469179Y0202149D01*
X0469044Y0202186D01*
X0468910Y0202227D01*
X0468777Y0202272D01*
X0468645Y0202320D01*
X0468515Y0202372D01*
X0468386Y0202427D01*
X0468259Y0202486D01*
X0468133Y0202549D01*
X0468009Y0202615D01*
X0467888Y0202684D01*
X0467768Y0202757D01*
X0467650Y0202834D01*
X0467535Y0202913D01*
X0467421Y0202996D01*
X0467311Y0203082D01*
X0467202Y0203171D01*
X0467096Y0203263D01*
X0466993Y0203358D01*
X0466892Y0203455D01*
X0466795Y0203556D01*
X0466700Y0203659D01*
X0466608Y0203765D01*
X0466519Y0203874D01*
X0466433Y0203984D01*
X0466350Y0204098D01*
X0466271Y0204213D01*
X0466194Y0204331D01*
X0466121Y0204451D01*
X0466052Y0204572D01*
X0465986Y0204696D01*
X0465923Y0204822D01*
X0465864Y0204949D01*
X0465809Y0205078D01*
X0465757Y0205208D01*
X0465709Y0205340D01*
X0465664Y0205473D01*
X0465623Y0205607D01*
X0465586Y0205742D01*
X0465553Y0205878D01*
X0465524Y0206016D01*
X0465499Y0206153D01*
X0465477Y0206292D01*
X0465459Y0206431D01*
X0465446Y0206571D01*
X0465436Y0206711D01*
X0465430Y0206851D01*
X0465428Y0206991D01*
X0465428Y0253766D01*
X0465430Y0253879D01*
X0465436Y0253991D01*
X0465446Y0254103D01*
X0465459Y0254215D01*
X0465477Y0254326D01*
X0465498Y0254437D01*
X0465524Y0254546D01*
X0465553Y0254655D01*
X0465586Y0254763D01*
X0465622Y0254869D01*
X0465663Y0254974D01*
X0465707Y0255078D01*
X0465754Y0255180D01*
X0465805Y0255280D01*
X0465860Y0255379D01*
X0465918Y0255475D01*
X0465979Y0255569D01*
X0466044Y0255662D01*
X0466112Y0255752D01*
X0466183Y0255839D01*
X0466256Y0255924D01*
X0466333Y0256006D01*
X0466413Y0256086D01*
X0466495Y0256163D01*
X0466580Y0256236D01*
X0466667Y0256307D01*
X0466757Y0256375D01*
X0466850Y0256440D01*
X0466944Y0256501D01*
X0467041Y0256559D01*
X0467139Y0256614D01*
X0467239Y0256665D01*
X0467341Y0256712D01*
X0467445Y0256756D01*
X0467550Y0256797D01*
X0467656Y0256833D01*
X0467764Y0256866D01*
X0467873Y0256895D01*
X0467982Y0256921D01*
X0468093Y0256942D01*
X0468204Y0256960D01*
X0468316Y0256973D01*
X0468428Y0256983D01*
X0468540Y0256989D01*
X0468653Y0256991D01*
X0527014Y0256991D01*
X0527014Y0256990D02*
X0527128Y0256988D01*
X0527242Y0256982D01*
X0527356Y0256973D01*
X0527469Y0256960D01*
X0527582Y0256942D01*
X0527694Y0256922D01*
X0527805Y0256897D01*
X0527916Y0256869D01*
X0528025Y0256837D01*
X0528134Y0256801D01*
X0528241Y0256762D01*
X0528347Y0256719D01*
X0528451Y0256673D01*
X0528554Y0256623D01*
X0528655Y0256570D01*
X0528754Y0256513D01*
X0528851Y0256454D01*
X0528946Y0256391D01*
X0529039Y0256325D01*
X0529130Y0256255D01*
X0529218Y0256183D01*
X0529304Y0256108D01*
X0529387Y0256030D01*
X0529468Y0255949D01*
X0529546Y0255866D01*
X0529621Y0255780D01*
X0529693Y0255692D01*
X0529763Y0255601D01*
X0529829Y0255508D01*
X0529892Y0255413D01*
X0529951Y0255316D01*
X0530008Y0255217D01*
X0530061Y0255116D01*
X0530111Y0255013D01*
X0530157Y0254909D01*
X0530200Y0254803D01*
X0530239Y0254696D01*
X0530275Y0254587D01*
X0530307Y0254478D01*
X0530335Y0254367D01*
X0530360Y0254256D01*
X0530380Y0254144D01*
X0530398Y0254031D01*
X0530411Y0253918D01*
X0530420Y0253804D01*
X0530426Y0253690D01*
X0530428Y0253576D01*
X0530428Y0206223D01*
X0530426Y0206095D01*
X0530420Y0205967D01*
X0530411Y0205840D01*
X0530397Y0205713D01*
X0530380Y0205586D01*
X0530359Y0205460D01*
X0530334Y0205335D01*
X0530305Y0205210D01*
X0530273Y0205087D01*
X0530236Y0204964D01*
X0530197Y0204843D01*
X0530153Y0204722D01*
X0530106Y0204603D01*
X0530055Y0204486D01*
X0530001Y0204370D01*
X0529943Y0204256D01*
X0529882Y0204144D01*
X0529818Y0204034D01*
X0529750Y0203925D01*
X0529679Y0203819D01*
X0529605Y0203715D01*
X0529527Y0203613D01*
X0529447Y0203514D01*
X0529364Y0203417D01*
X0529277Y0203322D01*
X0529188Y0203231D01*
X0529097Y0203142D01*
X0529002Y0203055D01*
X0528905Y0202972D01*
X0528806Y0202892D01*
X0528704Y0202814D01*
X0528600Y0202740D01*
X0528494Y0202669D01*
X0528385Y0202601D01*
X0528275Y0202537D01*
X0528163Y0202476D01*
X0528049Y0202418D01*
X0527933Y0202364D01*
X0527816Y0202313D01*
X0527697Y0202266D01*
X0527576Y0202222D01*
X0527455Y0202183D01*
X0527332Y0202146D01*
X0527209Y0202114D01*
X0527084Y0202085D01*
X0526959Y0202060D01*
X0526833Y0202039D01*
X0526706Y0202022D01*
X0526579Y0202008D01*
X0526452Y0201999D01*
X0526324Y0201993D01*
X0526196Y0201991D01*
X0533397Y0099925D02*
X0533368Y0097547D01*
X0533282Y0095170D01*
X0533138Y0092796D01*
X0532938Y0090426D01*
X0532679Y0088061D01*
X0532364Y0085704D01*
X0531992Y0083354D01*
X0531563Y0081015D01*
X0531078Y0078686D01*
X0530537Y0076370D01*
X0529940Y0074068D01*
X0529287Y0071781D01*
X0528580Y0069510D01*
X0527817Y0067257D01*
X0527001Y0065023D01*
X0526131Y0062809D01*
X0525207Y0060618D01*
X0524231Y0058449D01*
X0523203Y0056304D01*
X0522123Y0054185D01*
X0520992Y0052092D01*
X0519811Y0050027D01*
X0518581Y0047992D01*
X0517302Y0045987D01*
X0515974Y0044013D01*
X0514599Y0042072D01*
X0513178Y0040165D01*
X0511711Y0038293D01*
X0510200Y0036456D01*
X0508644Y0034657D01*
X0507046Y0032896D01*
X0505405Y0031174D01*
X0503723Y0029492D01*
X0502001Y0027851D01*
X0500240Y0026253D01*
X0498441Y0024697D01*
X0496604Y0023186D01*
X0494732Y0021719D01*
X0492825Y0020298D01*
X0490884Y0018923D01*
X0488910Y0017595D01*
X0486905Y0016316D01*
X0484870Y0015086D01*
X0482805Y0013905D01*
X0480712Y0012774D01*
X0478593Y0011694D01*
X0476448Y0010666D01*
X0474279Y0009690D01*
X0472088Y0008766D01*
X0469874Y0007896D01*
X0467640Y0007080D01*
X0465387Y0006317D01*
X0463116Y0005610D01*
X0460829Y0004957D01*
X0458527Y0004360D01*
X0456211Y0003819D01*
X0453882Y0003334D01*
X0451543Y0002905D01*
X0449193Y0002533D01*
X0446836Y0002218D01*
X0444471Y0001959D01*
X0442101Y0001759D01*
X0439727Y0001615D01*
X0437350Y0001529D01*
X0434972Y0001500D01*
X0401437Y0001500D01*
X0401244Y0001502D01*
X0401050Y0001509D01*
X0400858Y0001521D01*
X0400665Y0001537D01*
X0400473Y0001558D01*
X0400281Y0001584D01*
X0400090Y0001614D01*
X0399900Y0001649D01*
X0399711Y0001688D01*
X0399522Y0001732D01*
X0399335Y0001781D01*
X0399149Y0001834D01*
X0398965Y0001892D01*
X0398782Y0001954D01*
X0398600Y0002020D01*
X0398420Y0002091D01*
X0398242Y0002166D01*
X0398066Y0002245D01*
X0397891Y0002329D01*
X0397719Y0002416D01*
X0397549Y0002508D01*
X0397381Y0002604D01*
X0397216Y0002704D01*
X0397053Y0002808D01*
X0396892Y0002916D01*
X0396735Y0003028D01*
X0396580Y0003143D01*
X0396428Y0003263D01*
X0396278Y0003385D01*
X0396132Y0003512D01*
X0395989Y0003642D01*
X0395849Y0003775D01*
X0395712Y0003912D01*
X0395579Y0004052D01*
X0395449Y0004195D01*
X0395322Y0004341D01*
X0395200Y0004491D01*
X0395080Y0004643D01*
X0394965Y0004798D01*
X0394853Y0004955D01*
X0394745Y0005116D01*
X0394641Y0005279D01*
X0394541Y0005444D01*
X0394445Y0005612D01*
X0394353Y0005782D01*
X0394266Y0005954D01*
X0394182Y0006129D01*
X0394103Y0006305D01*
X0394028Y0006483D01*
X0393957Y0006663D01*
X0393891Y0006845D01*
X0393829Y0007028D01*
X0393771Y0007212D01*
X0393718Y0007398D01*
X0393669Y0007585D01*
X0393625Y0007774D01*
X0393586Y0007963D01*
X0393551Y0008153D01*
X0393521Y0008344D01*
X0393495Y0008536D01*
X0393474Y0008728D01*
X0393458Y0008921D01*
X0393446Y0009113D01*
X0393439Y0009307D01*
X0393437Y0009500D01*
X0393437Y0080030D01*
X0393435Y0080223D01*
X0393428Y0080417D01*
X0393416Y0080609D01*
X0393400Y0080802D01*
X0393379Y0080994D01*
X0393353Y0081186D01*
X0393323Y0081377D01*
X0393288Y0081567D01*
X0393249Y0081756D01*
X0393205Y0081945D01*
X0393156Y0082132D01*
X0393103Y0082318D01*
X0393045Y0082502D01*
X0392983Y0082685D01*
X0392917Y0082867D01*
X0392846Y0083047D01*
X0392771Y0083225D01*
X0392692Y0083401D01*
X0392608Y0083576D01*
X0392521Y0083748D01*
X0392429Y0083918D01*
X0392333Y0084086D01*
X0392233Y0084251D01*
X0392129Y0084414D01*
X0392021Y0084575D01*
X0391909Y0084732D01*
X0391794Y0084887D01*
X0391674Y0085039D01*
X0391552Y0085189D01*
X0391425Y0085335D01*
X0391295Y0085478D01*
X0391162Y0085618D01*
X0391025Y0085755D01*
X0390885Y0085888D01*
X0390742Y0086018D01*
X0390596Y0086145D01*
X0390446Y0086267D01*
X0390294Y0086387D01*
X0390139Y0086502D01*
X0389982Y0086614D01*
X0389821Y0086722D01*
X0389658Y0086826D01*
X0389493Y0086926D01*
X0389325Y0087022D01*
X0389155Y0087114D01*
X0388983Y0087201D01*
X0388808Y0087285D01*
X0388632Y0087364D01*
X0388454Y0087439D01*
X0388274Y0087510D01*
X0388092Y0087576D01*
X0387909Y0087638D01*
X0387725Y0087696D01*
X0387539Y0087749D01*
X0387352Y0087798D01*
X0387163Y0087842D01*
X0386974Y0087881D01*
X0386784Y0087916D01*
X0386593Y0087946D01*
X0386401Y0087972D01*
X0386209Y0087993D01*
X0386016Y0088009D01*
X0385824Y0088021D01*
X0385630Y0088028D01*
X0385437Y0088030D01*
X0308917Y0088030D01*
X0308724Y0088028D01*
X0308530Y0088021D01*
X0308338Y0088009D01*
X0308145Y0087993D01*
X0307953Y0087972D01*
X0307761Y0087946D01*
X0307570Y0087916D01*
X0307380Y0087881D01*
X0307191Y0087842D01*
X0307002Y0087798D01*
X0306815Y0087749D01*
X0306629Y0087696D01*
X0306445Y0087638D01*
X0306262Y0087576D01*
X0306080Y0087510D01*
X0305900Y0087439D01*
X0305722Y0087364D01*
X0305546Y0087285D01*
X0305371Y0087201D01*
X0305199Y0087114D01*
X0305029Y0087022D01*
X0304861Y0086926D01*
X0304696Y0086826D01*
X0304533Y0086722D01*
X0304372Y0086614D01*
X0304215Y0086502D01*
X0304060Y0086387D01*
X0303908Y0086267D01*
X0303758Y0086145D01*
X0303612Y0086018D01*
X0303469Y0085888D01*
X0303329Y0085755D01*
X0303192Y0085618D01*
X0303059Y0085478D01*
X0302929Y0085335D01*
X0302802Y0085189D01*
X0302680Y0085039D01*
X0302560Y0084887D01*
X0302445Y0084732D01*
X0302333Y0084575D01*
X0302225Y0084414D01*
X0302121Y0084251D01*
X0302021Y0084086D01*
X0301925Y0083918D01*
X0301833Y0083748D01*
X0301746Y0083576D01*
X0301662Y0083401D01*
X0301583Y0083225D01*
X0301508Y0083047D01*
X0301437Y0082867D01*
X0301371Y0082685D01*
X0301309Y0082502D01*
X0301251Y0082318D01*
X0301198Y0082132D01*
X0301149Y0081945D01*
X0301105Y0081756D01*
X0301066Y0081567D01*
X0301031Y0081377D01*
X0301001Y0081186D01*
X0300975Y0080994D01*
X0300954Y0080802D01*
X0300938Y0080609D01*
X0300926Y0080417D01*
X0300919Y0080223D01*
X0300917Y0080030D01*
X0300917Y0009500D01*
X0300915Y0009307D01*
X0300908Y0009113D01*
X0300896Y0008921D01*
X0300880Y0008728D01*
X0300859Y0008536D01*
X0300833Y0008344D01*
X0300803Y0008153D01*
X0300768Y0007963D01*
X0300729Y0007774D01*
X0300685Y0007585D01*
X0300636Y0007398D01*
X0300583Y0007212D01*
X0300525Y0007028D01*
X0300463Y0006845D01*
X0300397Y0006663D01*
X0300326Y0006483D01*
X0300251Y0006305D01*
X0300172Y0006129D01*
X0300088Y0005954D01*
X0300001Y0005782D01*
X0299909Y0005612D01*
X0299813Y0005444D01*
X0299713Y0005279D01*
X0299609Y0005116D01*
X0299501Y0004955D01*
X0299389Y0004798D01*
X0299274Y0004643D01*
X0299154Y0004491D01*
X0299032Y0004341D01*
X0298905Y0004195D01*
X0298775Y0004052D01*
X0298642Y0003912D01*
X0298505Y0003775D01*
X0298365Y0003642D01*
X0298222Y0003512D01*
X0298076Y0003385D01*
X0297926Y0003263D01*
X0297774Y0003143D01*
X0297619Y0003028D01*
X0297462Y0002916D01*
X0297301Y0002808D01*
X0297138Y0002704D01*
X0296973Y0002604D01*
X0296805Y0002508D01*
X0296635Y0002416D01*
X0296463Y0002329D01*
X0296288Y0002245D01*
X0296112Y0002166D01*
X0295934Y0002091D01*
X0295754Y0002020D01*
X0295572Y0001954D01*
X0295389Y0001892D01*
X0295205Y0001834D01*
X0295019Y0001781D01*
X0294832Y0001732D01*
X0294643Y0001688D01*
X0294454Y0001649D01*
X0294264Y0001614D01*
X0294073Y0001584D01*
X0293881Y0001558D01*
X0293689Y0001537D01*
X0293496Y0001521D01*
X0293304Y0001509D01*
X0293110Y0001502D01*
X0292917Y0001500D01*
X0423079Y0018122D02*
X0454234Y0018122D01*
X0454372Y0018124D01*
X0454511Y0018130D01*
X0454649Y0018140D01*
X0454787Y0018154D01*
X0454924Y0018171D01*
X0455061Y0018193D01*
X0455197Y0018218D01*
X0455332Y0018248D01*
X0455466Y0018281D01*
X0455600Y0018318D01*
X0455732Y0018359D01*
X0455863Y0018404D01*
X0455993Y0018452D01*
X0456121Y0018504D01*
X0456248Y0018560D01*
X0456373Y0018619D01*
X0456496Y0018682D01*
X0456618Y0018748D01*
X0456737Y0018818D01*
X0456855Y0018891D01*
X0456970Y0018967D01*
X0457083Y0019047D01*
X0457194Y0019130D01*
X0457302Y0019216D01*
X0457408Y0019305D01*
X0457512Y0019397D01*
X0457612Y0019492D01*
X0457710Y0019590D01*
X0457805Y0019691D01*
X0457898Y0019794D01*
X0457987Y0019900D01*
X0458073Y0020008D01*
X0458156Y0020119D01*
X0458236Y0020232D01*
X0458312Y0020347D01*
X0458386Y0020465D01*
X0458456Y0020584D01*
X0458522Y0020706D01*
X0458585Y0020829D01*
X0458644Y0020954D01*
X0458700Y0021081D01*
X0458752Y0021209D01*
X0458801Y0021339D01*
X0458845Y0021470D01*
X0458886Y0021602D01*
X0458924Y0021735D01*
X0458957Y0021870D01*
X0458987Y0022005D01*
X0459012Y0022141D01*
X0459034Y0022277D01*
X0459052Y0022415D01*
X0459066Y0022552D01*
X0459076Y0022691D01*
X0459082Y0022829D01*
X0459084Y0022967D01*
X0459113Y0053066D01*
X0459111Y0053207D01*
X0459105Y0053347D01*
X0459096Y0053488D01*
X0459082Y0053628D01*
X0459065Y0053767D01*
X0459043Y0053906D01*
X0459018Y0054045D01*
X0458989Y0054182D01*
X0458956Y0054319D01*
X0458919Y0054455D01*
X0458878Y0054589D01*
X0458834Y0054723D01*
X0458785Y0054855D01*
X0458733Y0054986D01*
X0458678Y0055115D01*
X0458619Y0055243D01*
X0458556Y0055369D01*
X0458490Y0055493D01*
X0458420Y0055615D01*
X0458347Y0055735D01*
X0458271Y0055853D01*
X0458191Y0055969D01*
X0458108Y0056083D01*
X0458022Y0056194D01*
X0457933Y0056303D01*
X0457841Y0056409D01*
X0457745Y0056513D01*
X0457647Y0056614D01*
X0457547Y0056712D01*
X0457443Y0056807D01*
X0457337Y0056900D01*
X0457228Y0056989D01*
X0457117Y0057075D01*
X0457003Y0057158D01*
X0456887Y0057238D01*
X0456769Y0057314D01*
X0456649Y0057388D01*
X0456527Y0057457D01*
X0456403Y0057524D01*
X0456277Y0057587D01*
X0456150Y0057646D01*
X0456020Y0057702D01*
X0455890Y0057754D01*
X0455758Y0057802D01*
X0455624Y0057847D01*
X0455489Y0057887D01*
X0455354Y0057924D01*
X0455217Y0057958D01*
X0455079Y0057987D01*
X0454941Y0058012D01*
X0454802Y0058034D01*
X0454662Y0058052D01*
X0454522Y0058065D01*
X0454382Y0058075D01*
X0454242Y0058081D01*
X0454101Y0058083D01*
X0423118Y0058083D01*
X0481091Y0086146D02*
X0483091Y0086146D01*
X0485091Y0083146D01*
X0487091Y0089146D01*
X0489091Y0083146D01*
X0491091Y0089146D01*
X0493091Y0083146D01*
X0495091Y0089146D01*
X0497091Y0086146D01*
X0499091Y0086146D01*
X0069068Y0075415D02*
X0069097Y0105514D01*
X0069098Y0105514D02*
X0069096Y0105655D01*
X0069090Y0105795D01*
X0069081Y0105936D01*
X0069067Y0106076D01*
X0069050Y0106215D01*
X0069028Y0106354D01*
X0069003Y0106493D01*
X0068974Y0106630D01*
X0068941Y0106767D01*
X0068904Y0106903D01*
X0068863Y0107037D01*
X0068819Y0107171D01*
X0068770Y0107303D01*
X0068718Y0107434D01*
X0068663Y0107563D01*
X0068604Y0107691D01*
X0068541Y0107817D01*
X0068475Y0107941D01*
X0068405Y0108063D01*
X0068332Y0108183D01*
X0068256Y0108301D01*
X0068176Y0108417D01*
X0068093Y0108531D01*
X0068007Y0108642D01*
X0067918Y0108751D01*
X0067826Y0108857D01*
X0067730Y0108961D01*
X0067632Y0109062D01*
X0067532Y0109160D01*
X0067428Y0109255D01*
X0067322Y0109348D01*
X0067213Y0109437D01*
X0067102Y0109523D01*
X0066988Y0109606D01*
X0066872Y0109686D01*
X0066754Y0109762D01*
X0066634Y0109836D01*
X0066512Y0109905D01*
X0066388Y0109972D01*
X0066262Y0110035D01*
X0066135Y0110094D01*
X0066005Y0110150D01*
X0065875Y0110202D01*
X0065743Y0110250D01*
X0065609Y0110295D01*
X0065474Y0110335D01*
X0065339Y0110372D01*
X0065202Y0110406D01*
X0065064Y0110435D01*
X0064926Y0110460D01*
X0064787Y0110482D01*
X0064647Y0110500D01*
X0064507Y0110513D01*
X0064367Y0110523D01*
X0064227Y0110529D01*
X0064086Y0110531D01*
X0033102Y0110531D01*
X0033087Y0114477D02*
X0064243Y0114477D01*
X0064381Y0114479D01*
X0064520Y0114485D01*
X0064658Y0114495D01*
X0064796Y0114509D01*
X0064933Y0114526D01*
X0065070Y0114548D01*
X0065206Y0114573D01*
X0065341Y0114603D01*
X0065475Y0114636D01*
X0065609Y0114673D01*
X0065741Y0114714D01*
X0065872Y0114759D01*
X0066002Y0114807D01*
X0066130Y0114859D01*
X0066257Y0114915D01*
X0066382Y0114974D01*
X0066505Y0115037D01*
X0066627Y0115103D01*
X0066746Y0115173D01*
X0066864Y0115246D01*
X0066979Y0115322D01*
X0067092Y0115402D01*
X0067203Y0115485D01*
X0067311Y0115571D01*
X0067417Y0115660D01*
X0067521Y0115752D01*
X0067621Y0115847D01*
X0067719Y0115945D01*
X0067814Y0116046D01*
X0067907Y0116149D01*
X0067996Y0116255D01*
X0068082Y0116363D01*
X0068165Y0116474D01*
X0068245Y0116587D01*
X0068321Y0116702D01*
X0068395Y0116820D01*
X0068465Y0116939D01*
X0068531Y0117061D01*
X0068594Y0117184D01*
X0068653Y0117309D01*
X0068709Y0117436D01*
X0068761Y0117564D01*
X0068810Y0117694D01*
X0068854Y0117825D01*
X0068895Y0117957D01*
X0068933Y0118090D01*
X0068966Y0118225D01*
X0068996Y0118360D01*
X0069021Y0118496D01*
X0069043Y0118632D01*
X0069061Y0118770D01*
X0069075Y0118907D01*
X0069085Y0119046D01*
X0069091Y0119184D01*
X0069093Y0119322D01*
X0069092Y0119322D02*
X0069122Y0149421D01*
X0069120Y0149562D01*
X0069114Y0149702D01*
X0069105Y0149843D01*
X0069091Y0149983D01*
X0069074Y0150122D01*
X0069052Y0150261D01*
X0069027Y0150400D01*
X0068998Y0150537D01*
X0068965Y0150674D01*
X0068928Y0150810D01*
X0068887Y0150944D01*
X0068843Y0151078D01*
X0068794Y0151210D01*
X0068742Y0151341D01*
X0068687Y0151470D01*
X0068628Y0151598D01*
X0068565Y0151724D01*
X0068499Y0151848D01*
X0068429Y0151970D01*
X0068356Y0152090D01*
X0068280Y0152208D01*
X0068200Y0152324D01*
X0068117Y0152438D01*
X0068031Y0152549D01*
X0067942Y0152658D01*
X0067850Y0152764D01*
X0067754Y0152868D01*
X0067656Y0152969D01*
X0067556Y0153067D01*
X0067452Y0153162D01*
X0067346Y0153255D01*
X0067237Y0153344D01*
X0067126Y0153430D01*
X0067012Y0153513D01*
X0066896Y0153593D01*
X0066778Y0153669D01*
X0066658Y0153743D01*
X0066536Y0153812D01*
X0066412Y0153879D01*
X0066286Y0153942D01*
X0066159Y0154001D01*
X0066029Y0154057D01*
X0065899Y0154109D01*
X0065767Y0154157D01*
X0065633Y0154202D01*
X0065498Y0154242D01*
X0065363Y0154279D01*
X0065226Y0154313D01*
X0065088Y0154342D01*
X0064950Y0154367D01*
X0064811Y0154389D01*
X0064671Y0154407D01*
X0064531Y0154420D01*
X0064391Y0154430D01*
X0064251Y0154436D01*
X0064110Y0154438D01*
X0033127Y0154438D01*
X0069068Y0075415D02*
X0069066Y0075277D01*
X0069060Y0075139D01*
X0069050Y0075000D01*
X0069036Y0074863D01*
X0069018Y0074725D01*
X0068996Y0074589D01*
X0068971Y0074453D01*
X0068941Y0074318D01*
X0068908Y0074183D01*
X0068870Y0074050D01*
X0068829Y0073918D01*
X0068785Y0073787D01*
X0068736Y0073657D01*
X0068684Y0073529D01*
X0068628Y0073402D01*
X0068569Y0073277D01*
X0068506Y0073154D01*
X0068440Y0073032D01*
X0068370Y0072913D01*
X0068296Y0072795D01*
X0068220Y0072680D01*
X0068140Y0072567D01*
X0068057Y0072456D01*
X0067971Y0072348D01*
X0067882Y0072242D01*
X0067789Y0072139D01*
X0067694Y0072038D01*
X0067596Y0071940D01*
X0067496Y0071845D01*
X0067392Y0071753D01*
X0067286Y0071664D01*
X0067178Y0071578D01*
X0067067Y0071495D01*
X0066954Y0071415D01*
X0066839Y0071339D01*
X0066721Y0071266D01*
X0066602Y0071196D01*
X0066480Y0071130D01*
X0066357Y0071067D01*
X0066232Y0071008D01*
X0066105Y0070952D01*
X0065977Y0070900D01*
X0065847Y0070852D01*
X0065716Y0070807D01*
X0065584Y0070766D01*
X0065450Y0070729D01*
X0065316Y0070696D01*
X0065181Y0070666D01*
X0065045Y0070641D01*
X0064908Y0070619D01*
X0064771Y0070602D01*
X0064633Y0070588D01*
X0064495Y0070578D01*
X0064356Y0070572D01*
X0064218Y0070570D01*
X0033063Y0070570D01*
D12*
X0072992Y0083094D02*
X0072992Y0084927D01*
X0072992Y0084010D02*
X0076292Y0084010D01*
X0075558Y0083094D01*
X0072992Y0086694D02*
X0072992Y0088527D01*
X0072992Y0086694D02*
X0074825Y0088252D01*
X0076292Y0087702D02*
X0076290Y0087639D01*
X0076284Y0087575D01*
X0076275Y0087513D01*
X0076262Y0087451D01*
X0076245Y0087389D01*
X0076224Y0087329D01*
X0076200Y0087271D01*
X0076173Y0087213D01*
X0076142Y0087158D01*
X0076108Y0087104D01*
X0076070Y0087053D01*
X0076030Y0087004D01*
X0075987Y0086958D01*
X0075941Y0086914D01*
X0075892Y0086873D01*
X0075842Y0086835D01*
X0075789Y0086800D01*
X0075734Y0086768D01*
X0075677Y0086740D01*
X0075618Y0086715D01*
X0075559Y0086694D01*
X0074825Y0088252D02*
X0074865Y0088291D01*
X0074906Y0088327D01*
X0074950Y0088361D01*
X0074996Y0088391D01*
X0075044Y0088419D01*
X0075093Y0088444D01*
X0075144Y0088466D01*
X0075195Y0088484D01*
X0075249Y0088500D01*
X0075302Y0088512D01*
X0075357Y0088520D01*
X0075412Y0088525D01*
X0075467Y0088527D01*
X0075523Y0088525D01*
X0075579Y0088519D01*
X0075635Y0088510D01*
X0075690Y0088496D01*
X0075743Y0088479D01*
X0075796Y0088459D01*
X0075847Y0088435D01*
X0075896Y0088407D01*
X0075943Y0088376D01*
X0075988Y0088342D01*
X0076030Y0088305D01*
X0076070Y0088265D01*
X0076107Y0088223D01*
X0076141Y0088178D01*
X0076172Y0088131D01*
X0076200Y0088082D01*
X0076224Y0088031D01*
X0076244Y0087978D01*
X0076261Y0087925D01*
X0076275Y0087870D01*
X0076284Y0087814D01*
X0076290Y0087758D01*
X0076292Y0087702D01*
X0076292Y0090110D02*
X0072992Y0091210D01*
X0076292Y0092310D01*
X0076292Y0093724D02*
X0076292Y0094457D01*
X0076292Y0094090D02*
X0072992Y0094090D01*
X0072992Y0093724D02*
X0072992Y0094457D01*
X0072992Y0096174D02*
X0076292Y0096174D01*
X0072992Y0098007D01*
X0076292Y0098007D01*
X0074941Y0128659D02*
X0074391Y0129667D01*
X0073016Y0129301D02*
X0073018Y0129225D01*
X0073024Y0129148D01*
X0073033Y0129073D01*
X0073046Y0128997D01*
X0073063Y0128923D01*
X0073083Y0128849D01*
X0073108Y0128776D01*
X0073135Y0128705D01*
X0073166Y0128635D01*
X0073201Y0128567D01*
X0073239Y0128501D01*
X0073280Y0128436D01*
X0073324Y0128374D01*
X0073371Y0128314D01*
X0073421Y0128256D01*
X0073474Y0128201D01*
X0074391Y0129667D02*
X0074363Y0129711D01*
X0074333Y0129752D01*
X0074299Y0129791D01*
X0074263Y0129828D01*
X0074224Y0129863D01*
X0074184Y0129894D01*
X0074141Y0129923D01*
X0074096Y0129948D01*
X0074050Y0129971D01*
X0074002Y0129990D01*
X0073953Y0130006D01*
X0073903Y0130018D01*
X0073852Y0130027D01*
X0073801Y0130032D01*
X0073749Y0130034D01*
X0073697Y0130032D01*
X0073645Y0130027D01*
X0073593Y0130017D01*
X0073542Y0130004D01*
X0073493Y0129988D01*
X0073445Y0129968D01*
X0073398Y0129944D01*
X0073353Y0129918D01*
X0073310Y0129888D01*
X0073269Y0129855D01*
X0073231Y0129819D01*
X0073195Y0129781D01*
X0073162Y0129740D01*
X0073132Y0129697D01*
X0073106Y0129652D01*
X0073082Y0129606D01*
X0073062Y0129557D01*
X0073046Y0129508D01*
X0073033Y0129457D01*
X0073023Y0129405D01*
X0073018Y0129353D01*
X0073016Y0129301D01*
X0076041Y0129851D02*
X0076084Y0129791D01*
X0076123Y0129729D01*
X0076159Y0129664D01*
X0076191Y0129598D01*
X0076220Y0129530D01*
X0076245Y0129461D01*
X0076267Y0129390D01*
X0076284Y0129319D01*
X0076298Y0129246D01*
X0076308Y0129173D01*
X0076314Y0129100D01*
X0076316Y0129026D01*
X0076314Y0128974D01*
X0076309Y0128922D01*
X0076299Y0128870D01*
X0076286Y0128819D01*
X0076270Y0128770D01*
X0076250Y0128722D01*
X0076226Y0128675D01*
X0076200Y0128630D01*
X0076170Y0128587D01*
X0076137Y0128546D01*
X0076101Y0128508D01*
X0076063Y0128472D01*
X0076022Y0128439D01*
X0075979Y0128409D01*
X0075934Y0128383D01*
X0075887Y0128359D01*
X0075839Y0128339D01*
X0075790Y0128323D01*
X0075739Y0128310D01*
X0075687Y0128300D01*
X0075635Y0128295D01*
X0075583Y0128293D01*
X0075583Y0128292D02*
X0075531Y0128294D01*
X0075480Y0128299D01*
X0075429Y0128308D01*
X0075379Y0128320D01*
X0075330Y0128336D01*
X0075282Y0128355D01*
X0075236Y0128378D01*
X0075191Y0128403D01*
X0075148Y0128432D01*
X0075108Y0128463D01*
X0075069Y0128498D01*
X0075033Y0128535D01*
X0074999Y0128574D01*
X0074969Y0128615D01*
X0074941Y0128659D01*
X0075399Y0131681D02*
X0073933Y0131681D01*
X0073933Y0131680D02*
X0073874Y0131682D01*
X0073816Y0131688D01*
X0073758Y0131697D01*
X0073700Y0131710D01*
X0073644Y0131727D01*
X0073589Y0131747D01*
X0073535Y0131771D01*
X0073483Y0131798D01*
X0073433Y0131828D01*
X0073385Y0131862D01*
X0073339Y0131899D01*
X0073295Y0131938D01*
X0073254Y0131981D01*
X0073216Y0132025D01*
X0073181Y0132072D01*
X0073149Y0132122D01*
X0073120Y0132173D01*
X0073094Y0132226D01*
X0073072Y0132280D01*
X0073054Y0132336D01*
X0073039Y0132393D01*
X0073028Y0132451D01*
X0073020Y0132509D01*
X0073016Y0132568D01*
X0073016Y0132626D01*
X0073020Y0132685D01*
X0073028Y0132743D01*
X0073039Y0132801D01*
X0073054Y0132858D01*
X0073072Y0132914D01*
X0073094Y0132968D01*
X0073120Y0133021D01*
X0073149Y0133072D01*
X0073181Y0133122D01*
X0073216Y0133169D01*
X0073254Y0133213D01*
X0073295Y0133256D01*
X0073339Y0133295D01*
X0073385Y0133332D01*
X0073433Y0133366D01*
X0073483Y0133396D01*
X0073535Y0133423D01*
X0073589Y0133447D01*
X0073644Y0133467D01*
X0073700Y0133484D01*
X0073758Y0133497D01*
X0073816Y0133506D01*
X0073874Y0133512D01*
X0073933Y0133514D01*
X0075399Y0133514D01*
X0075458Y0133512D01*
X0075516Y0133506D01*
X0075574Y0133497D01*
X0075632Y0133484D01*
X0075688Y0133467D01*
X0075743Y0133447D01*
X0075797Y0133423D01*
X0075849Y0133396D01*
X0075899Y0133366D01*
X0075947Y0133332D01*
X0075993Y0133295D01*
X0076037Y0133256D01*
X0076078Y0133213D01*
X0076116Y0133169D01*
X0076151Y0133122D01*
X0076183Y0133072D01*
X0076212Y0133021D01*
X0076238Y0132968D01*
X0076260Y0132914D01*
X0076278Y0132858D01*
X0076293Y0132801D01*
X0076304Y0132743D01*
X0076312Y0132685D01*
X0076316Y0132626D01*
X0076316Y0132568D01*
X0076312Y0132509D01*
X0076304Y0132451D01*
X0076293Y0132393D01*
X0076278Y0132336D01*
X0076260Y0132280D01*
X0076238Y0132226D01*
X0076212Y0132173D01*
X0076183Y0132122D01*
X0076151Y0132072D01*
X0076116Y0132025D01*
X0076078Y0131981D01*
X0076037Y0131938D01*
X0075993Y0131899D01*
X0075947Y0131862D01*
X0075899Y0131828D01*
X0075849Y0131798D01*
X0075797Y0131771D01*
X0075743Y0131747D01*
X0075688Y0131727D01*
X0075632Y0131710D01*
X0075574Y0131697D01*
X0075516Y0131688D01*
X0075458Y0131682D01*
X0075399Y0131680D01*
X0076316Y0135401D02*
X0073933Y0135401D01*
X0073933Y0135400D02*
X0073874Y0135402D01*
X0073816Y0135408D01*
X0073758Y0135417D01*
X0073700Y0135430D01*
X0073644Y0135447D01*
X0073589Y0135467D01*
X0073535Y0135491D01*
X0073483Y0135518D01*
X0073433Y0135548D01*
X0073385Y0135582D01*
X0073339Y0135619D01*
X0073295Y0135658D01*
X0073254Y0135701D01*
X0073216Y0135745D01*
X0073181Y0135792D01*
X0073149Y0135842D01*
X0073120Y0135893D01*
X0073094Y0135946D01*
X0073072Y0136000D01*
X0073054Y0136056D01*
X0073039Y0136113D01*
X0073028Y0136171D01*
X0073020Y0136229D01*
X0073016Y0136288D01*
X0073016Y0136346D01*
X0073020Y0136405D01*
X0073028Y0136463D01*
X0073039Y0136521D01*
X0073054Y0136578D01*
X0073072Y0136634D01*
X0073094Y0136688D01*
X0073120Y0136741D01*
X0073149Y0136792D01*
X0073181Y0136842D01*
X0073216Y0136889D01*
X0073254Y0136933D01*
X0073295Y0136976D01*
X0073339Y0137015D01*
X0073385Y0137052D01*
X0073433Y0137086D01*
X0073483Y0137116D01*
X0073535Y0137143D01*
X0073589Y0137167D01*
X0073644Y0137187D01*
X0073700Y0137204D01*
X0073758Y0137217D01*
X0073816Y0137226D01*
X0073874Y0137232D01*
X0073933Y0137234D01*
X0076316Y0137234D01*
X0076316Y0138881D02*
X0076316Y0140714D01*
X0076316Y0139797D02*
X0073016Y0139797D01*
X0463007Y0042337D02*
X0466307Y0042337D01*
X0466307Y0040503D02*
X0463007Y0042337D01*
X0463007Y0040503D02*
X0466307Y0040503D01*
X0466307Y0038857D02*
X0466307Y0037023D01*
X0466307Y0037940D02*
X0463007Y0037940D01*
X0463007Y0034785D02*
X0463007Y0033868D01*
X0466307Y0033868D01*
X0466307Y0034785D01*
X0466305Y0034837D01*
X0466300Y0034889D01*
X0466290Y0034941D01*
X0466277Y0034992D01*
X0466261Y0035041D01*
X0466241Y0035089D01*
X0466217Y0035136D01*
X0466191Y0035181D01*
X0466161Y0035224D01*
X0466128Y0035265D01*
X0466092Y0035303D01*
X0466054Y0035339D01*
X0466013Y0035372D01*
X0465970Y0035402D01*
X0465925Y0035428D01*
X0465878Y0035452D01*
X0465830Y0035472D01*
X0465781Y0035488D01*
X0465730Y0035501D01*
X0465678Y0035511D01*
X0465626Y0035516D01*
X0465574Y0035518D01*
X0465522Y0035516D01*
X0465470Y0035511D01*
X0465418Y0035501D01*
X0465367Y0035488D01*
X0465318Y0035472D01*
X0465270Y0035452D01*
X0465223Y0035428D01*
X0465178Y0035402D01*
X0465135Y0035372D01*
X0465094Y0035339D01*
X0465056Y0035303D01*
X0465020Y0035265D01*
X0464987Y0035224D01*
X0464957Y0035181D01*
X0464931Y0035136D01*
X0464907Y0035089D01*
X0464887Y0035041D01*
X0464871Y0034992D01*
X0464858Y0034941D01*
X0464848Y0034889D01*
X0464843Y0034837D01*
X0464841Y0034785D01*
X0464841Y0033868D01*
X0464841Y0034785D02*
X0464839Y0034844D01*
X0464833Y0034902D01*
X0464824Y0034960D01*
X0464811Y0035018D01*
X0464794Y0035074D01*
X0464774Y0035129D01*
X0464750Y0035183D01*
X0464723Y0035235D01*
X0464693Y0035285D01*
X0464659Y0035333D01*
X0464622Y0035379D01*
X0464583Y0035423D01*
X0464540Y0035464D01*
X0464496Y0035502D01*
X0464449Y0035537D01*
X0464399Y0035569D01*
X0464348Y0035598D01*
X0464295Y0035624D01*
X0464241Y0035646D01*
X0464185Y0035664D01*
X0464128Y0035679D01*
X0464070Y0035690D01*
X0464012Y0035698D01*
X0463953Y0035702D01*
X0463895Y0035702D01*
X0463836Y0035698D01*
X0463778Y0035690D01*
X0463720Y0035679D01*
X0463663Y0035664D01*
X0463607Y0035646D01*
X0463553Y0035624D01*
X0463500Y0035598D01*
X0463449Y0035569D01*
X0463399Y0035537D01*
X0463352Y0035502D01*
X0463308Y0035464D01*
X0463265Y0035423D01*
X0463226Y0035379D01*
X0463189Y0035333D01*
X0463155Y0035285D01*
X0463125Y0035235D01*
X0463098Y0035183D01*
X0463074Y0035129D01*
X0463054Y0035074D01*
X0463037Y0035018D01*
X0463024Y0034960D01*
X0463015Y0034902D01*
X0463009Y0034844D01*
X0463007Y0034785D01*
X0490955Y0077496D02*
X0491689Y0078962D01*
X0491872Y0078962D02*
X0492789Y0078962D01*
X0491872Y0078962D02*
X0491813Y0078964D01*
X0491755Y0078970D01*
X0491697Y0078979D01*
X0491639Y0078992D01*
X0491583Y0079009D01*
X0491528Y0079029D01*
X0491474Y0079053D01*
X0491422Y0079080D01*
X0491372Y0079110D01*
X0491324Y0079144D01*
X0491278Y0079181D01*
X0491234Y0079220D01*
X0491193Y0079263D01*
X0491155Y0079307D01*
X0491120Y0079354D01*
X0491088Y0079404D01*
X0491059Y0079455D01*
X0491033Y0079508D01*
X0491011Y0079562D01*
X0490993Y0079618D01*
X0490978Y0079675D01*
X0490967Y0079733D01*
X0490959Y0079791D01*
X0490955Y0079850D01*
X0490955Y0079908D01*
X0490959Y0079967D01*
X0490967Y0080025D01*
X0490978Y0080083D01*
X0490993Y0080140D01*
X0491011Y0080196D01*
X0491033Y0080250D01*
X0491059Y0080303D01*
X0491088Y0080354D01*
X0491120Y0080404D01*
X0491155Y0080451D01*
X0491193Y0080495D01*
X0491234Y0080538D01*
X0491278Y0080577D01*
X0491324Y0080614D01*
X0491372Y0080648D01*
X0491422Y0080678D01*
X0491474Y0080705D01*
X0491528Y0080729D01*
X0491583Y0080749D01*
X0491639Y0080766D01*
X0491697Y0080779D01*
X0491755Y0080788D01*
X0491813Y0080794D01*
X0491872Y0080796D01*
X0492789Y0080796D01*
X0492789Y0077496D01*
X0489226Y0078412D02*
X0489226Y0079329D01*
X0488126Y0079329D01*
X0489226Y0079329D02*
X0489224Y0079403D01*
X0489218Y0079477D01*
X0489209Y0079551D01*
X0489196Y0079624D01*
X0489179Y0079697D01*
X0489159Y0079768D01*
X0489135Y0079838D01*
X0489107Y0079908D01*
X0489076Y0079975D01*
X0489042Y0080041D01*
X0489004Y0080105D01*
X0488963Y0080167D01*
X0488919Y0080227D01*
X0488872Y0080285D01*
X0488822Y0080340D01*
X0488770Y0080392D01*
X0488715Y0080442D01*
X0488657Y0080489D01*
X0488597Y0080533D01*
X0488535Y0080574D01*
X0488471Y0080612D01*
X0488405Y0080646D01*
X0488338Y0080677D01*
X0488268Y0080705D01*
X0488198Y0080729D01*
X0488127Y0080749D01*
X0488054Y0080766D01*
X0487981Y0080779D01*
X0487907Y0080788D01*
X0487833Y0080794D01*
X0487759Y0080796D01*
X0487392Y0078596D02*
X0487392Y0078412D01*
X0487393Y0078596D02*
X0487395Y0078648D01*
X0487400Y0078700D01*
X0487410Y0078752D01*
X0487423Y0078803D01*
X0487439Y0078852D01*
X0487459Y0078901D01*
X0487483Y0078947D01*
X0487509Y0078992D01*
X0487539Y0079035D01*
X0487572Y0079076D01*
X0487608Y0079114D01*
X0487646Y0079150D01*
X0487687Y0079183D01*
X0487730Y0079213D01*
X0487775Y0079239D01*
X0487822Y0079263D01*
X0487870Y0079283D01*
X0487919Y0079299D01*
X0487970Y0079312D01*
X0488022Y0079322D01*
X0488074Y0079327D01*
X0488126Y0079329D01*
X0487392Y0078412D02*
X0487394Y0078353D01*
X0487400Y0078295D01*
X0487409Y0078237D01*
X0487422Y0078179D01*
X0487439Y0078123D01*
X0487459Y0078068D01*
X0487483Y0078014D01*
X0487510Y0077962D01*
X0487540Y0077912D01*
X0487574Y0077864D01*
X0487611Y0077818D01*
X0487650Y0077774D01*
X0487693Y0077733D01*
X0487737Y0077695D01*
X0487784Y0077660D01*
X0487834Y0077628D01*
X0487885Y0077599D01*
X0487938Y0077573D01*
X0487992Y0077551D01*
X0488048Y0077533D01*
X0488105Y0077518D01*
X0488163Y0077507D01*
X0488221Y0077499D01*
X0488280Y0077495D01*
X0488338Y0077495D01*
X0488397Y0077499D01*
X0488455Y0077507D01*
X0488513Y0077518D01*
X0488570Y0077533D01*
X0488626Y0077551D01*
X0488680Y0077573D01*
X0488733Y0077599D01*
X0488784Y0077628D01*
X0488834Y0077660D01*
X0488881Y0077695D01*
X0488925Y0077733D01*
X0488968Y0077774D01*
X0489007Y0077818D01*
X0489044Y0077864D01*
X0489078Y0077912D01*
X0489108Y0077962D01*
X0489135Y0078014D01*
X0489159Y0078068D01*
X0489179Y0078123D01*
X0489196Y0078179D01*
X0489209Y0078237D01*
X0489218Y0078295D01*
X0489224Y0078353D01*
X0489226Y0078412D01*
X0489157Y0192331D02*
X0489157Y0195631D01*
X0490257Y0193798D01*
X0491357Y0195631D01*
X0491357Y0192331D01*
X0493263Y0192331D02*
X0493997Y0193798D01*
X0494180Y0193798D02*
X0495097Y0193798D01*
X0494180Y0193797D02*
X0494121Y0193799D01*
X0494063Y0193805D01*
X0494005Y0193814D01*
X0493947Y0193827D01*
X0493891Y0193844D01*
X0493836Y0193864D01*
X0493782Y0193888D01*
X0493730Y0193915D01*
X0493680Y0193945D01*
X0493632Y0193979D01*
X0493586Y0194016D01*
X0493542Y0194055D01*
X0493501Y0194098D01*
X0493463Y0194142D01*
X0493428Y0194189D01*
X0493396Y0194239D01*
X0493367Y0194290D01*
X0493341Y0194343D01*
X0493319Y0194397D01*
X0493301Y0194453D01*
X0493286Y0194510D01*
X0493275Y0194568D01*
X0493267Y0194626D01*
X0493263Y0194685D01*
X0493263Y0194743D01*
X0493267Y0194802D01*
X0493275Y0194860D01*
X0493286Y0194918D01*
X0493301Y0194975D01*
X0493319Y0195031D01*
X0493341Y0195085D01*
X0493367Y0195138D01*
X0493396Y0195189D01*
X0493428Y0195239D01*
X0493463Y0195286D01*
X0493501Y0195330D01*
X0493542Y0195373D01*
X0493586Y0195412D01*
X0493632Y0195449D01*
X0493680Y0195483D01*
X0493730Y0195513D01*
X0493782Y0195540D01*
X0493836Y0195564D01*
X0493891Y0195584D01*
X0493947Y0195601D01*
X0494005Y0195614D01*
X0494063Y0195623D01*
X0494121Y0195629D01*
X0494180Y0195631D01*
X0495097Y0195631D01*
X0495097Y0192331D01*
X0496776Y0192331D02*
X0498242Y0192331D01*
X0498242Y0195631D01*
X0496776Y0195631D01*
X0497142Y0194164D02*
X0498242Y0194164D01*
X0500260Y0194164D02*
X0502094Y0194164D01*
X0502094Y0195631D02*
X0502094Y0192331D01*
X0500260Y0192331D02*
X0500260Y0195631D01*
X0503740Y0195631D02*
X0505574Y0195631D01*
X0504657Y0195631D02*
X0504657Y0192331D01*
X0506917Y0192331D02*
X0508017Y0195631D01*
X0509117Y0192331D01*
X0508842Y0193156D02*
X0507192Y0193156D01*
X0510455Y0192331D02*
X0511922Y0192331D01*
X0511922Y0195631D01*
X0510455Y0195631D01*
X0510822Y0194164D02*
X0511922Y0194164D01*
X0513575Y0194164D02*
X0515042Y0194164D01*
X0515042Y0195631D02*
X0515042Y0192331D01*
X0515042Y0195631D02*
X0513575Y0195631D01*
X0485656Y0192790D02*
X0485613Y0192883D01*
X0485573Y0192978D01*
X0485537Y0193074D01*
X0485504Y0193171D01*
X0485476Y0193270D01*
X0485451Y0193370D01*
X0485429Y0193470D01*
X0485412Y0193571D01*
X0485398Y0193673D01*
X0485389Y0193776D01*
X0485383Y0193878D01*
X0485381Y0193981D01*
X0487213Y0193981D02*
X0487211Y0194084D01*
X0487205Y0194186D01*
X0487196Y0194289D01*
X0487182Y0194391D01*
X0487165Y0194492D01*
X0487143Y0194592D01*
X0487118Y0194692D01*
X0487090Y0194791D01*
X0487057Y0194888D01*
X0487021Y0194984D01*
X0486981Y0195079D01*
X0486938Y0195172D01*
X0486297Y0195631D02*
X0486248Y0195629D01*
X0486198Y0195624D01*
X0486150Y0195615D01*
X0486102Y0195602D01*
X0486055Y0195586D01*
X0486010Y0195567D01*
X0485966Y0195544D01*
X0485923Y0195519D01*
X0485883Y0195490D01*
X0485845Y0195458D01*
X0485809Y0195424D01*
X0485776Y0195387D01*
X0485746Y0195348D01*
X0485719Y0195307D01*
X0485694Y0195264D01*
X0485673Y0195219D01*
X0485656Y0195173D01*
X0485564Y0194898D02*
X0487030Y0193064D01*
X0486297Y0192331D02*
X0486248Y0192333D01*
X0486198Y0192338D01*
X0486150Y0192347D01*
X0486102Y0192360D01*
X0486055Y0192376D01*
X0486010Y0192395D01*
X0485966Y0192418D01*
X0485923Y0192443D01*
X0485883Y0192472D01*
X0485845Y0192504D01*
X0485809Y0192538D01*
X0485776Y0192575D01*
X0485746Y0192614D01*
X0485719Y0192655D01*
X0485694Y0192698D01*
X0485673Y0192743D01*
X0485656Y0192789D01*
X0486297Y0192331D02*
X0486346Y0192333D01*
X0486396Y0192338D01*
X0486444Y0192347D01*
X0486492Y0192360D01*
X0486539Y0192376D01*
X0486584Y0192395D01*
X0486628Y0192418D01*
X0486671Y0192443D01*
X0486711Y0192472D01*
X0486749Y0192504D01*
X0486785Y0192538D01*
X0486818Y0192575D01*
X0486848Y0192614D01*
X0486875Y0192655D01*
X0486900Y0192698D01*
X0486921Y0192743D01*
X0486938Y0192789D01*
X0485381Y0193981D02*
X0485383Y0194084D01*
X0485389Y0194186D01*
X0485398Y0194289D01*
X0485412Y0194391D01*
X0485429Y0194492D01*
X0485451Y0194592D01*
X0485476Y0194692D01*
X0485504Y0194791D01*
X0485537Y0194888D01*
X0485573Y0194984D01*
X0485613Y0195079D01*
X0485656Y0195172D01*
X0486297Y0195631D02*
X0486346Y0195629D01*
X0486396Y0195624D01*
X0486444Y0195615D01*
X0486492Y0195602D01*
X0486539Y0195586D01*
X0486584Y0195567D01*
X0486628Y0195544D01*
X0486671Y0195519D01*
X0486711Y0195490D01*
X0486749Y0195458D01*
X0486785Y0195424D01*
X0486818Y0195387D01*
X0486848Y0195348D01*
X0486875Y0195307D01*
X0486900Y0195264D01*
X0486921Y0195219D01*
X0486938Y0195173D01*
X0487213Y0193981D02*
X0487211Y0193878D01*
X0487205Y0193776D01*
X0487196Y0193673D01*
X0487182Y0193571D01*
X0487165Y0193470D01*
X0487143Y0193370D01*
X0487118Y0193270D01*
X0487090Y0193171D01*
X0487057Y0193074D01*
X0487021Y0192978D01*
X0486981Y0192883D01*
X0486938Y0192790D01*
D13*
X0484678Y0215741D02*
X0481178Y0215741D01*
X0481178Y0217296D01*
X0481178Y0219704D02*
X0484678Y0220870D01*
X0484678Y0222331D02*
X0484678Y0223498D01*
X0484679Y0223498D02*
X0484677Y0223554D01*
X0484671Y0223609D01*
X0484661Y0223663D01*
X0484647Y0223717D01*
X0484630Y0223770D01*
X0484609Y0223821D01*
X0484584Y0223871D01*
X0484555Y0223919D01*
X0484524Y0223964D01*
X0484489Y0224007D01*
X0484451Y0224048D01*
X0484410Y0224086D01*
X0484367Y0224121D01*
X0484322Y0224152D01*
X0484274Y0224181D01*
X0484224Y0224206D01*
X0484173Y0224227D01*
X0484120Y0224244D01*
X0484066Y0224258D01*
X0484012Y0224268D01*
X0483957Y0224274D01*
X0483901Y0224276D01*
X0483845Y0224274D01*
X0483790Y0224268D01*
X0483736Y0224258D01*
X0483682Y0224244D01*
X0483629Y0224227D01*
X0483578Y0224206D01*
X0483528Y0224181D01*
X0483480Y0224152D01*
X0483435Y0224121D01*
X0483392Y0224086D01*
X0483351Y0224048D01*
X0483313Y0224007D01*
X0483278Y0223964D01*
X0483247Y0223919D01*
X0483218Y0223871D01*
X0483193Y0223821D01*
X0483172Y0223770D01*
X0483155Y0223717D01*
X0483141Y0223663D01*
X0483131Y0223609D01*
X0483125Y0223554D01*
X0483123Y0223498D01*
X0483123Y0222720D01*
X0483123Y0223304D02*
X0483121Y0223365D01*
X0483115Y0223426D01*
X0483106Y0223486D01*
X0483092Y0223546D01*
X0483075Y0223604D01*
X0483055Y0223662D01*
X0483030Y0223718D01*
X0483003Y0223772D01*
X0482972Y0223825D01*
X0482937Y0223875D01*
X0482900Y0223924D01*
X0482860Y0223969D01*
X0482816Y0224013D01*
X0482771Y0224053D01*
X0482722Y0224090D01*
X0482672Y0224125D01*
X0482619Y0224156D01*
X0482565Y0224183D01*
X0482509Y0224208D01*
X0482451Y0224228D01*
X0482393Y0224245D01*
X0482333Y0224259D01*
X0482273Y0224268D01*
X0482212Y0224274D01*
X0482151Y0224276D01*
X0482090Y0224274D01*
X0482029Y0224268D01*
X0481969Y0224259D01*
X0481909Y0224245D01*
X0481851Y0224228D01*
X0481793Y0224208D01*
X0481737Y0224183D01*
X0481683Y0224156D01*
X0481630Y0224125D01*
X0481580Y0224090D01*
X0481531Y0224053D01*
X0481486Y0224013D01*
X0481442Y0223969D01*
X0481402Y0223924D01*
X0481365Y0223875D01*
X0481330Y0223825D01*
X0481299Y0223772D01*
X0481272Y0223718D01*
X0481247Y0223662D01*
X0481227Y0223604D01*
X0481210Y0223546D01*
X0481196Y0223486D01*
X0481187Y0223426D01*
X0481181Y0223365D01*
X0481179Y0223304D01*
X0481178Y0223304D02*
X0481178Y0222331D01*
X0481178Y0219704D02*
X0484678Y0218537D01*
X0491178Y0217685D02*
X0491178Y0216518D01*
X0491180Y0216462D01*
X0491186Y0216407D01*
X0491196Y0216353D01*
X0491210Y0216299D01*
X0491227Y0216246D01*
X0491248Y0216195D01*
X0491273Y0216145D01*
X0491302Y0216097D01*
X0491333Y0216052D01*
X0491368Y0216009D01*
X0491406Y0215968D01*
X0491447Y0215930D01*
X0491490Y0215895D01*
X0491535Y0215864D01*
X0491583Y0215835D01*
X0491633Y0215810D01*
X0491684Y0215789D01*
X0491737Y0215772D01*
X0491791Y0215758D01*
X0491845Y0215748D01*
X0491900Y0215742D01*
X0491956Y0215740D01*
X0491956Y0215741D02*
X0493901Y0215741D01*
X0493901Y0215740D02*
X0493957Y0215742D01*
X0494012Y0215748D01*
X0494066Y0215758D01*
X0494120Y0215772D01*
X0494173Y0215789D01*
X0494224Y0215810D01*
X0494274Y0215835D01*
X0494322Y0215864D01*
X0494367Y0215895D01*
X0494410Y0215930D01*
X0494451Y0215968D01*
X0494489Y0216009D01*
X0494524Y0216052D01*
X0494555Y0216097D01*
X0494584Y0216145D01*
X0494609Y0216195D01*
X0494630Y0216246D01*
X0494647Y0216299D01*
X0494661Y0216353D01*
X0494671Y0216407D01*
X0494677Y0216462D01*
X0494679Y0216518D01*
X0494678Y0216518D02*
X0494678Y0217685D01*
X0493123Y0217685D02*
X0491178Y0217685D01*
X0491178Y0219581D02*
X0494678Y0219581D01*
X0491178Y0221525D01*
X0494678Y0221525D01*
X0494678Y0223421D02*
X0491178Y0223421D01*
X0491178Y0224393D01*
X0491179Y0224393D02*
X0491181Y0224454D01*
X0491187Y0224515D01*
X0491196Y0224575D01*
X0491210Y0224635D01*
X0491227Y0224693D01*
X0491247Y0224751D01*
X0491272Y0224807D01*
X0491299Y0224861D01*
X0491330Y0224914D01*
X0491365Y0224964D01*
X0491402Y0225013D01*
X0491442Y0225058D01*
X0491486Y0225102D01*
X0491531Y0225142D01*
X0491580Y0225179D01*
X0491630Y0225214D01*
X0491683Y0225245D01*
X0491737Y0225272D01*
X0491793Y0225297D01*
X0491851Y0225317D01*
X0491909Y0225334D01*
X0491969Y0225348D01*
X0492029Y0225357D01*
X0492090Y0225363D01*
X0492151Y0225365D01*
X0493706Y0225365D01*
X0493767Y0225363D01*
X0493828Y0225357D01*
X0493888Y0225348D01*
X0493948Y0225334D01*
X0494006Y0225317D01*
X0494064Y0225297D01*
X0494120Y0225272D01*
X0494174Y0225245D01*
X0494227Y0225214D01*
X0494277Y0225179D01*
X0494326Y0225142D01*
X0494371Y0225102D01*
X0494415Y0225058D01*
X0494455Y0225013D01*
X0494492Y0224964D01*
X0494527Y0224914D01*
X0494558Y0224861D01*
X0494585Y0224807D01*
X0494610Y0224751D01*
X0494630Y0224693D01*
X0494647Y0224635D01*
X0494661Y0224575D01*
X0494670Y0224515D01*
X0494676Y0224454D01*
X0494678Y0224393D01*
X0494678Y0223421D01*
X0501178Y0219704D02*
X0504678Y0220870D01*
X0504678Y0218537D02*
X0501178Y0219704D01*
X0501178Y0217296D02*
X0501178Y0215741D01*
X0504678Y0215741D01*
X0511178Y0215741D02*
X0511178Y0217296D01*
X0511178Y0215741D02*
X0514678Y0215741D01*
X0514678Y0218537D02*
X0511178Y0219704D01*
X0514678Y0220870D01*
X0513122Y0223984D02*
X0513164Y0224025D01*
X0513208Y0224064D01*
X0513255Y0224099D01*
X0513303Y0224132D01*
X0513354Y0224162D01*
X0513406Y0224188D01*
X0513460Y0224211D01*
X0513515Y0224231D01*
X0513571Y0224247D01*
X0513628Y0224260D01*
X0513686Y0224269D01*
X0513744Y0224274D01*
X0513803Y0224276D01*
X0513123Y0223984D02*
X0511178Y0222331D01*
X0511178Y0224276D01*
X0513900Y0222332D02*
X0513961Y0222353D01*
X0514020Y0222378D01*
X0514078Y0222406D01*
X0514134Y0222438D01*
X0514188Y0222473D01*
X0514240Y0222510D01*
X0514290Y0222551D01*
X0514337Y0222594D01*
X0514382Y0222641D01*
X0514424Y0222689D01*
X0514463Y0222740D01*
X0514499Y0222793D01*
X0514533Y0222848D01*
X0514563Y0222905D01*
X0514589Y0222963D01*
X0514613Y0223023D01*
X0514632Y0223084D01*
X0514649Y0223146D01*
X0514662Y0223209D01*
X0514671Y0223273D01*
X0514676Y0223337D01*
X0514678Y0223401D01*
X0514676Y0223458D01*
X0514671Y0223515D01*
X0514661Y0223572D01*
X0514648Y0223627D01*
X0514632Y0223682D01*
X0514611Y0223736D01*
X0514588Y0223788D01*
X0514561Y0223839D01*
X0514531Y0223887D01*
X0514497Y0223934D01*
X0514461Y0223978D01*
X0514422Y0224020D01*
X0514380Y0224059D01*
X0514336Y0224095D01*
X0514289Y0224129D01*
X0514241Y0224159D01*
X0514190Y0224186D01*
X0514138Y0224209D01*
X0514084Y0224230D01*
X0514029Y0224246D01*
X0513974Y0224259D01*
X0513917Y0224269D01*
X0513860Y0224274D01*
X0513803Y0224276D01*
X0521178Y0224276D02*
X0521178Y0222331D01*
X0521178Y0223304D02*
X0524678Y0223304D01*
X0523901Y0222331D01*
X0524678Y0220870D02*
X0521178Y0219704D01*
X0524678Y0218537D01*
X0524678Y0215741D02*
X0521178Y0215741D01*
X0521178Y0217296D01*
X0521178Y0233976D02*
X0524678Y0233976D01*
X0523123Y0233976D02*
X0523123Y0235921D01*
X0524678Y0235921D02*
X0521178Y0235921D01*
X0521178Y0238668D02*
X0524678Y0239835D01*
X0523901Y0241296D02*
X0524678Y0242268D01*
X0521178Y0242268D01*
X0521178Y0241296D02*
X0521178Y0243241D01*
X0521178Y0238668D02*
X0524678Y0237502D01*
X0514678Y0237502D02*
X0511178Y0238668D01*
X0514678Y0239835D01*
X0513122Y0242949D02*
X0513164Y0242990D01*
X0513208Y0243029D01*
X0513255Y0243064D01*
X0513303Y0243097D01*
X0513354Y0243127D01*
X0513406Y0243153D01*
X0513460Y0243176D01*
X0513515Y0243196D01*
X0513571Y0243212D01*
X0513628Y0243225D01*
X0513686Y0243234D01*
X0513744Y0243239D01*
X0513803Y0243241D01*
X0513123Y0242949D02*
X0511178Y0241296D01*
X0511178Y0243241D01*
X0513900Y0241297D02*
X0513961Y0241318D01*
X0514020Y0241343D01*
X0514078Y0241371D01*
X0514134Y0241403D01*
X0514188Y0241438D01*
X0514240Y0241475D01*
X0514290Y0241516D01*
X0514337Y0241559D01*
X0514382Y0241606D01*
X0514424Y0241654D01*
X0514463Y0241705D01*
X0514499Y0241758D01*
X0514533Y0241813D01*
X0514563Y0241870D01*
X0514589Y0241928D01*
X0514613Y0241988D01*
X0514632Y0242049D01*
X0514649Y0242111D01*
X0514662Y0242174D01*
X0514671Y0242238D01*
X0514676Y0242302D01*
X0514678Y0242366D01*
X0514676Y0242423D01*
X0514671Y0242480D01*
X0514661Y0242537D01*
X0514648Y0242592D01*
X0514632Y0242647D01*
X0514611Y0242701D01*
X0514588Y0242753D01*
X0514561Y0242804D01*
X0514531Y0242852D01*
X0514497Y0242899D01*
X0514461Y0242943D01*
X0514422Y0242985D01*
X0514380Y0243024D01*
X0514336Y0243060D01*
X0514289Y0243094D01*
X0514241Y0243124D01*
X0514190Y0243151D01*
X0514138Y0243174D01*
X0514084Y0243195D01*
X0514029Y0243211D01*
X0513974Y0243224D01*
X0513917Y0243234D01*
X0513860Y0243239D01*
X0513803Y0243241D01*
X0504678Y0243241D02*
X0501178Y0242074D01*
X0504678Y0240907D01*
X0504678Y0239326D02*
X0501178Y0239326D01*
X0501178Y0237382D02*
X0504678Y0237382D01*
X0503123Y0237382D02*
X0503123Y0239326D01*
X0494678Y0239401D02*
X0491178Y0239401D01*
X0494678Y0237456D01*
X0491178Y0237456D01*
X0491178Y0235561D02*
X0491178Y0234394D01*
X0491180Y0234338D01*
X0491186Y0234283D01*
X0491196Y0234229D01*
X0491210Y0234175D01*
X0491227Y0234122D01*
X0491248Y0234071D01*
X0491273Y0234021D01*
X0491302Y0233973D01*
X0491333Y0233928D01*
X0491368Y0233885D01*
X0491406Y0233844D01*
X0491447Y0233806D01*
X0491490Y0233771D01*
X0491535Y0233740D01*
X0491583Y0233711D01*
X0491633Y0233686D01*
X0491684Y0233665D01*
X0491737Y0233648D01*
X0491791Y0233634D01*
X0491845Y0233624D01*
X0491900Y0233618D01*
X0491956Y0233616D01*
X0493901Y0233616D01*
X0493957Y0233618D01*
X0494012Y0233624D01*
X0494066Y0233634D01*
X0494120Y0233648D01*
X0494173Y0233665D01*
X0494224Y0233686D01*
X0494274Y0233711D01*
X0494322Y0233740D01*
X0494367Y0233771D01*
X0494410Y0233806D01*
X0494451Y0233844D01*
X0494489Y0233885D01*
X0494524Y0233928D01*
X0494555Y0233973D01*
X0494584Y0234021D01*
X0494609Y0234071D01*
X0494630Y0234122D01*
X0494647Y0234175D01*
X0494661Y0234229D01*
X0494671Y0234283D01*
X0494677Y0234338D01*
X0494679Y0234394D01*
X0494678Y0234394D02*
X0494678Y0235561D01*
X0493123Y0235561D02*
X0491178Y0235561D01*
X0493123Y0235561D02*
X0493123Y0234977D01*
X0484678Y0235921D02*
X0481178Y0235921D01*
X0483123Y0235921D02*
X0483123Y0233976D01*
X0484678Y0233976D02*
X0481178Y0233976D01*
X0481178Y0238668D02*
X0484678Y0239835D01*
X0484678Y0241296D02*
X0484678Y0242463D01*
X0484679Y0242463D02*
X0484677Y0242519D01*
X0484671Y0242574D01*
X0484661Y0242628D01*
X0484647Y0242682D01*
X0484630Y0242735D01*
X0484609Y0242786D01*
X0484584Y0242836D01*
X0484555Y0242884D01*
X0484524Y0242929D01*
X0484489Y0242972D01*
X0484451Y0243013D01*
X0484410Y0243051D01*
X0484367Y0243086D01*
X0484322Y0243117D01*
X0484274Y0243146D01*
X0484224Y0243171D01*
X0484173Y0243192D01*
X0484120Y0243209D01*
X0484066Y0243223D01*
X0484012Y0243233D01*
X0483957Y0243239D01*
X0483901Y0243241D01*
X0483845Y0243239D01*
X0483790Y0243233D01*
X0483736Y0243223D01*
X0483682Y0243209D01*
X0483629Y0243192D01*
X0483578Y0243171D01*
X0483528Y0243146D01*
X0483480Y0243117D01*
X0483435Y0243086D01*
X0483392Y0243051D01*
X0483351Y0243013D01*
X0483313Y0242972D01*
X0483278Y0242929D01*
X0483247Y0242884D01*
X0483218Y0242836D01*
X0483193Y0242786D01*
X0483172Y0242735D01*
X0483155Y0242682D01*
X0483141Y0242628D01*
X0483131Y0242574D01*
X0483125Y0242519D01*
X0483123Y0242463D01*
X0483123Y0241685D01*
X0483123Y0242268D02*
X0483121Y0242329D01*
X0483115Y0242390D01*
X0483106Y0242450D01*
X0483092Y0242510D01*
X0483075Y0242568D01*
X0483055Y0242626D01*
X0483030Y0242682D01*
X0483003Y0242736D01*
X0482972Y0242789D01*
X0482937Y0242839D01*
X0482900Y0242888D01*
X0482860Y0242933D01*
X0482816Y0242977D01*
X0482771Y0243017D01*
X0482722Y0243054D01*
X0482672Y0243089D01*
X0482619Y0243120D01*
X0482565Y0243147D01*
X0482509Y0243172D01*
X0482451Y0243192D01*
X0482393Y0243209D01*
X0482333Y0243223D01*
X0482273Y0243232D01*
X0482212Y0243238D01*
X0482151Y0243240D01*
X0482090Y0243238D01*
X0482029Y0243232D01*
X0481969Y0243223D01*
X0481909Y0243209D01*
X0481851Y0243192D01*
X0481793Y0243172D01*
X0481737Y0243147D01*
X0481683Y0243120D01*
X0481630Y0243089D01*
X0481580Y0243054D01*
X0481531Y0243017D01*
X0481486Y0242977D01*
X0481442Y0242933D01*
X0481402Y0242888D01*
X0481365Y0242839D01*
X0481330Y0242789D01*
X0481299Y0242736D01*
X0481272Y0242682D01*
X0481247Y0242626D01*
X0481227Y0242568D01*
X0481210Y0242510D01*
X0481196Y0242450D01*
X0481187Y0242390D01*
X0481181Y0242329D01*
X0481179Y0242268D01*
X0481178Y0242268D02*
X0481178Y0241296D01*
X0481178Y0238668D02*
X0484678Y0237502D01*
X0491178Y0241296D02*
X0491178Y0242268D01*
X0491178Y0241296D02*
X0494678Y0241296D01*
X0494678Y0242268D01*
X0494676Y0242329D01*
X0494670Y0242390D01*
X0494661Y0242450D01*
X0494647Y0242510D01*
X0494630Y0242568D01*
X0494610Y0242626D01*
X0494585Y0242682D01*
X0494558Y0242736D01*
X0494527Y0242789D01*
X0494492Y0242839D01*
X0494455Y0242888D01*
X0494415Y0242933D01*
X0494371Y0242977D01*
X0494326Y0243017D01*
X0494277Y0243054D01*
X0494227Y0243089D01*
X0494174Y0243120D01*
X0494120Y0243147D01*
X0494064Y0243172D01*
X0494006Y0243192D01*
X0493948Y0243209D01*
X0493888Y0243223D01*
X0493828Y0243232D01*
X0493767Y0243238D01*
X0493706Y0243240D01*
X0493706Y0243241D02*
X0492151Y0243241D01*
X0492151Y0243240D02*
X0492090Y0243238D01*
X0492029Y0243232D01*
X0491969Y0243223D01*
X0491909Y0243209D01*
X0491851Y0243192D01*
X0491793Y0243172D01*
X0491737Y0243147D01*
X0491683Y0243120D01*
X0491630Y0243089D01*
X0491580Y0243054D01*
X0491531Y0243017D01*
X0491486Y0242977D01*
X0491442Y0242933D01*
X0491402Y0242888D01*
X0491365Y0242839D01*
X0491330Y0242789D01*
X0491299Y0242736D01*
X0491272Y0242682D01*
X0491247Y0242626D01*
X0491227Y0242568D01*
X0491210Y0242510D01*
X0491196Y0242450D01*
X0491187Y0242390D01*
X0491181Y0242329D01*
X0491179Y0242268D01*
X0474678Y0242074D02*
X0471956Y0241296D01*
X0471956Y0243241D01*
X0472734Y0242657D02*
X0471178Y0242657D01*
X0471178Y0238668D02*
X0474678Y0239835D01*
X0474678Y0237502D02*
X0471178Y0238668D01*
X0471178Y0235921D02*
X0474678Y0235921D01*
X0473123Y0235921D02*
X0473123Y0233976D01*
X0474678Y0233976D02*
X0471178Y0233976D01*
X0471956Y0224276D02*
X0471956Y0222331D01*
X0474678Y0223109D01*
X0472734Y0223693D02*
X0471178Y0223693D01*
X0471178Y0219704D02*
X0474678Y0220870D01*
X0474678Y0218537D02*
X0471178Y0219704D01*
X0471178Y0217296D02*
X0471178Y0215741D01*
X0474678Y0215741D01*
X0493123Y0217102D02*
X0493123Y0217685D01*
X0511178Y0233976D02*
X0514678Y0233976D01*
X0513123Y0233976D02*
X0513123Y0235921D01*
X0514678Y0235921D02*
X0511178Y0235921D01*
M02*
